<svg xmlns="http://www.w3.org/2000/svg" width="399.458" height="169.221" version="1"><path d="M32.315 148.6H20.767v-35.564h11.548c7.914 0 11.58 5.9 11.58 16.46 0 14.5-4.398 19.103-11.58 19.103M20.767 61.44h11.266c5.816 0 10.523 4.28 10.523 16.07 0 11.915-5.44 16.037-10.523 16.037H20.767V61.44zm30.82 40.508v-.098c4.578-3.213 11.897-8.74 11.897-26.505 0-22.952-11.976-33.348-28.153-33.348H0V168.03h35.146c19.92 0 29.62-14.765 29.62-36.765 0-20.525-8.053-26.193-13.18-29.317zm51.37-40.508h11.266c5.816 0 10.507 4.28 10.507 16.07 0 11.915-5.423 16.037-10.507 16.037h-11.266V61.44m42.33 64.41c0-15.705-4.874-20.117-11.51-23.902v-.098c4.578-3.213 11.834-8.74 11.834-26.505 0-22.952-11.91-33.348-28.09-33.348H82.19V168.03h20.753l.014-54.994h11.262c5.903 0 10.125 4.908 10.125 16.047v38.948h20.928l.01-42.18zm40.485-95.246c0-9.477 8.7-10.7 13.51-10.7 4.807 0 13.474 1.2 13.474 10.7l-.008 62.943h-26.99l.014-62.943M199.282 0c-8.78 0-34.247 1.99-34.247 27.474v140.574h20.763v-55.002h26.96l-.007 54.98h20.78V27.473C233.536 1.943 208.03 0 199.28 0zm96.442 41.97v99.216c0 5.05-4.175 8.422-10.377 8.422-6.23 0-10.328-3.38-10.328-8.422L275 41.97l-20.755.03-.005 102.5c0 19.518 20.065 24.72 31.13 24.72 10.963 0 31.114-5.23 31.114-24.742V41.97h-20.76m82.978 126.045l-.008-99.172c0-5.05-4.172-8.422-10.37-8.422-6.232 0-10.336 3.386-10.336 8.426l-.006 99.172-20.764.016V65.53c0-19.516 20.068-24.72 31.132-24.72 10.964 0 31.108 5.23 31.108 24.743v102.464h-20.756"/></svg>
