<svg xmlns="http://www.w3.org/2000/svg">
  <defs>
    <clipPath id="a">
      <path d="M36 117h54v53.995H36V117z"/>
    </clipPath>
  </defs>
  <g clip-path="url(#a)" transform="matrix(4.62965 0 0 -4.62965 -166.668 791.646)">
    <path fill="#fff" d="M89.595 143.998c0-14.69-11.907-26.602-26.59-26.602-14.695 0-26.61 11.91-26.61 26.602 0 14.693 11.915 26.602 26.61 26.602 14.683 0 26.59-11.91 26.59-26.602"/>
    <path fill="#000" d="M48.352 144.47c.008.277-.164.453-.627.473-.374.012-.56-.134-.576-.463l-.006-.134 1.202-.047.006.17zm-1.512-.034c.03.664.432.883.945.864.51-.02.895-.3.876-.82l-.02-.53-1.816.065.016.42zm1.937 1.435l-1.798.257.05.347 1.795-.26-.048-.343zm-1.05 2.42l-.176-.717.425-.102.143.597.302-.075-.144-.594.445-.11.186.76.298-.073-.267-1.1-1.77.43.26 1.058.3-.072zm1.92 1.76l.305.664.284-.13-.453-.975-1.65.765.148.316 1.367-.64zm-.04 3.032l1.067-.665c.318-.198.367-.516.175-.83-.198-.314-.51-.408-.825-.21l-1.068.665.186.297.97-.607c.255-.158.38-.135.476.016.093.15.06.274-.2.433l-.966.603.184.297zm1.422 1.342l-.463-.573.338-.273.357.444.24-.197-.36-.438.597-.484-.22-.27-1.412 1.142.68.845.24-.193zm1.334 1.354l-.324-.313 1.05-1.083-.25-.24-1.053 1.078-.325-.315-.214.22.9.877.216-.224zm2.612.49c.236.152.28.396.03.783-.207.32-.434.385-.707.205l-.114-.07.65-1.003.14.086zm-.893 1.22c.56.356.97.153 1.25-.276.27-.43.267-.905-.17-1.188l-.46-.295-.98 1.526.36.233zm2.604 1.072l-.666-.31.188-.4.55.267.13-.28-.548-.265.198-.41.702.332.128-.277-1.016-.486-.78 1.64.98.47.135-.28zm1.4.053c.144.046.37.11.3.324-.08.24-.298.146-.46.093l-.127-.042.142-.424.146.05zm-.057.774c.378.124.624-.11.692-.33.062-.188.006-.4-.138-.524l.59-.682-.35-.114-.533.617-.25-.083.232-.712-.332-.113-.568 1.726.658.217zm9.718-.25l-.707.2-.116-.423.546-.15-.082-.296-.547.15-.2-.737-.34.095.482 1.75 1.047-.288-.082-.3zm.928-.81c.133-.057.353-.153.435.06.1.23-.128.298-.294.364l-.12.048-.165-.41.146-.06zm.45.63c.377-.152.41-.487.32-.7-.074-.187-.25-.316-.45-.316l.02-.897-.342.14-.007.815-.25.107-.28-.71-.326.136.68 1.682.637-.255zm2.005-1.332l-.646.352-.203-.38.53-.296-.148-.27-.537.296-.22-.4.683-.376-.15-.268-.984.546.876 1.59.95-.524-.15-.27zm-.24-1.64l1.02 1.504.288-.2-1.02-1.505-.288.2zm2.172-.257l.45.546.27-.22-1.158-1.402-.27.226.51.612-.445.37-.51-.613-.267.22 1.154 1.4.272-.225-.454-.546.446-.368zm1.8-1.21l-.504.537-.314-.3.422-.442-.224-.212-.423.443-.332-.313.535-.566-.225-.213-.774.826 1.32 1.246.743-.788-.224-.214zm-.723-1.483l1.424 1.124.213-.277-1.424-1.125-.214.277zm2.452-.866l-.247.38-1.262-.828-.192.293 1.26.83-.247.377.256.168.685-1.05-.253-.17zm-.122-3.218l-.14.334 1.068.696-1.252-.258-.138.328 1.537 1.04.136-.323-1.104-.683v-.004l1.27.29.142-.36-1.097-.69.005-.003 1.268.28.136-.318-1.83-.33zm1.994-1.462l-.184.712-.424-.107.158-.595-.298-.076-.155.593-.446-.115.198-.755-.294-.078-.286 1.09 1.755.463.275-1.053-.298-.08zm-.117-1.743l.7.092.044-.346-1.795-.238-.052.348.795.104-.077.572-.79-.104-.044.346 1.804.24.046-.35-.707-.09.077-.574zm.497-2.214l-.004.454-1.507-.012-.007.346 1.513.017-.003.454.306.003.012-1.256-.31-.004z"/>
    <path fill="#000" d="M63.007 126.09c-9.903 0-17.916 8.017-17.916 17.908 0 9.892 8.014 17.91 17.917 17.91 9.877 0 17.9-8.018 17.9-17.91 0-9.89-8.023-17.908-17.9-17.908m0 36.266c-10.15 0-18.37-8.22-18.37-18.358 0-10.136 8.22-18.355 18.37-18.355 10.125 0 18.345 8.22 18.345 18.355 0 10.14-8.22 18.358-18.345 18.358"/>
    <path fill="#000" d="M50.283 136.085l-.13-.064c-.04-.013-.06-.073-.04-.106.02-.043.057-.062.1-.043l.134.068c.046.023.062.073.046.112-.024.042-.062.056-.11.035m23.007-4.54c-.032.02-.467-.132-.57-.218-.108-.09-.058-.237.03-.212.084.028.56.312.58.332.02.04 0 .076-.04.1m-7.236 3.955c.066.053.136.09.084.117-.054.027-.104.036-.167-.015-.296-.21-.53-.313-.816-.538-.134-.117-.57-.64-.83-.763.003-.16.16-.156.277-.016.012.02.445.493.503.537.267.228.404.28.684.49l.267.187zm-1.42-.14l.153.064s.08.058.115.09c.043.037.04.175-.105.117l-.098-.06-.012-.013-.048-.02-.127-.067c-.037-.023-.028-.054-.013-.09.02-.044.09-.04.133-.02m-.43-.063l-.095-.07-.066-.025-.125-.076c-.033-.014-.023-.046-.012-.09.02-.033.09-.033.127-.014l.162.062.077.055c.116.09.043.215-.066.157m3.1.458c-.025.032-.074.037-.118.01-.245-.166-.497-.323-.727-.507-.13-.094-.243-.197-.342-.306-.078-.09-.168-.28-.275-.33-.05-.022-.087-.066-.077-.112 0-.046.046-.06.102-.044.197.08.3.327.443.475.27.27.63.467.948.69.04.03.064.09.046.125m-1.663-1.39c-.082.017-.176-.07-.262-.248-.02-.037-.078-.145-.137-.182-.04-.023-.062-.083-.05-.13.007-.047.048-.063.09-.036.092.065.16.185.204.273.083.144.11.144.11.144.037-.014.074.023.09.073.012.055-.004.1-.043.106m2.247.93c-.028.01-.35-.173-.396-.216-.052-.032-.24-.215-.22-.28.01-.042.05-.07.096-.057.088.028.125.088.162.138l.062.076.117.055c.094.032.205.062.237.18.01.043-.02.09-.057.105m-.908-.745c-.045-.027-.098-.062-.098-.062l-.007-.004-.05-.025-.132-.07c-.044-.026-.025-.05-.004-.088.017-.04.086-.037.125-.023l.15.064s-.004.004.047.037c.048.025.068.04.068.04-.038-.02.047.03.03.068-.028.035-.086.09-.13.062m1.513.178c-.094.005-.182-.083-.246-.15l-.068-.066c-.034-.026-.04-.09-.01-.116.03-.038.075-.047.106-.005l.084.07c.032.038.096.098.12.098.046.01.084.037.084.085 0 .04-.034.078-.07.085m.034-2.1c.08.018.126.077.175.135l.06.074c.04.03.12.062.143.062.04 0 .083.034.088.075.008.036-.012.07-.052.08-.092.037-.26-.076-.265-.076l-.103-.112c-.02-.03-.056-.076-.076-.08-.04-.008-.074-.05-.06-.094.008-.047.045-.07.09-.066"/>
    <path fill="#000" d="M77.62 136.075c-.14.03-.275.04-.365.03-.073.042-.152.078-.24.113-.124.037-.253.062-.39.07-.176.008-.372-.026-.56-.11-.25-.006-.643-.193-1-.36-.144-.063-.315.086-.436.038-.097-.037-.25-.078-.32-.087-.45.178-.362.042-.75.344-.417.115-.963.237-1.32.435-.346.06-.655.405-1.026.204-.484-.12-1.04-.28-1.47-.566-.162-.02-.38-.11-.527 0-.41.05-.75.38-1.172.235-.25.1-.54.145-.755.325h-.483c-.002 0-.002 0-.002-.005-.832-.06-1.24-.36-2.133-.504-.186-.034-.332-.108-.92-.146.005.01-.124.393.1.718v.435c-.012.156-.015.475-.02.604-.013.012-.03.017-.05.03-.15.443.118 1.124-.23 1.532.26.46-.013.91.114 1.42.145.038.328-.382.446-.057.186-.135.374-.485.573-.29h.062c-.052-.21.074-.41.115-.613-.082-.2-.513-.243-.306-.487.167-.14.372 0 .552-.097.125.143.222.3.384.35.09-.05.105-.134.025-.207l-.06-.045c.05-.182.45-.348.125-.528v-.166l.237-.03c.024-.29-.37-.272-.215-.62.22-.16.397.175.686.062.165.12.115.258.194.417-.142.2.256.266.12.54-.098.19-.145.412-.28.552-.052.313-.43.392-.467.726-.44.053-.582.495-.85.726.013.082.084.13.187.107.104.054.136-.07.213-.106-.036-.123.05-.22.15-.268.114.094.01.268.09.375.11-.024.296.073.358-.084-.027-.106-.148-.205-.062-.31.14-.107.347-.284.563-.187.187.04.3-.36.42-.047-.022-.312-.084-.67.067-.993-.15-.204-.612.286-.324-.202.26-.097.398-.102.534-.392.127-.05.26-.15.386-.124.395.387.365 1.045.262 1.53-.163.192-.226.353-.237.618-.16.215-.442.3-.535.542-.31.096-.596.28-.96.29-.023.117-.152.117-.263.117-.4.63-1.3.655-1.533 1.318.224.067.36-.22.594-.16.102-.123.34.022.426-.134h.085c-.012.085.027.185-.023.313.11-.128.38-.218.35-.444l.1-.058c.12.594-.6.764-.724 1.283.67-.026.762-.714 1.08-1.138 0-.247-.284-.47-.18-.69.15-.118.285-.14.45-.118.31.18.35.483.682.522.153-.172.314-.38.536-.464.152.122.175.28.152.464.076.02.152-.025.192-.112.02-.034.082-.097.105-.034.163.12-.04.244-.05.345-.09.078-.145.152-.123.264.172.083.28-.122.364-.264-.036-.408.523-.684.444-1.117.086-.168.266-.157.413-.145.214.212.387.075.634.104.08-.103-.08-.076.038-.175.088.122.23.174.114.322-.245.34-.232.9-.785 1.01-.14.254-.334.537-.682.503-.294.29-.854.106-1.052.497-.383.016-.63.383-1.04.367-.315.218-.814-.342-.966.146.152.072.274.155.423.207.028.153-.048.337.063.457.177-.11.33.097.48.038.01.072-.042.22.083.23.246.047.178-.114.3-.21-.013-.05-.023-.077-.062-.125-.075 0-.145-.02-.16.06-.123-.132-.134-.34-.084-.493.122-.276.382-.05.518-.277.198.074.533-.256.632.106.115.195-.1.315-.144.47-.364.112-.426.515-.852.527-.148.057-.16.195-.232.315-.274.048-.527-.025-.69.253-.028.107.04.24.148.24.172-.048.16-.424.392-.325.07.108.234.29.083.433-.073.05-.065.136-.143.184-.04-.084.092-.207 0-.292-.147.085-.332.157-.332.292v.045c.088.1.203-.045.28 0-.367.485-1.052-.217-1.298.39-.167.183-.503.072-.564.372-.278-.068-.225.23-.34.352.036.253-.2.35-.292.545-.095.303-.304.64-.186.953.137.108.028.304 0 .433.013.11-.028.22.028.29.176-.07.357-.274.58-.29.21-.07.286-.636.597-.31.156-.146.448-.096.538-.35-.042-.195.062-.342.12-.498.05-.05.14-.01.215-.022.05.362.507-.01.54.374.114.06.283.11.324.227.232-.024.31-.36.596-.334.062.217.392.182.572.143.21-.6.904.074 1.107-.557-.034-.167.042-.34.2-.376.284.095.3.317.273.58-.01.642-.68.58-1.02.98-.288-.024-.385.41-.71.292-.275.458-.898.078-1.258.324-.363.094-.876-.082-1.074.348-.328-.035-.524.258-.85.233-.047.015-.093.074-.146.11.023.096.075.23.186.238.135.086.335-.204.41.05h.1c.11-.12-.148-.243 0-.335.083-.037.3.01.26.165.126.472-.52.595-.81.8-.158.057-.114-.088-.238-.113-.25-.062-.282.142-.373.288-.02.19-.127.267-.242.425.023.35-.095.512.065.852-.01.155-.17.638-.108.772-.026.192.068.435-.086.578.086-.398-.372-.594-.2-1.015-.07-.06-.07-.097-.148-.122l-.066.23c-.122-.04-.122-.422-.34-.205.155.18-.045.51.188.643.03.12-.07.34.09.35h.095c.005-.06-.033-.133.033-.17.102.268-.09.495-.033.774.236.06.112-.518.467-.34.27-.204-.01-.41.255-.613-.187-.462.163-.826.438-1.188.26.037.518-.273.776-.325.08.134.06.378.303.243.152-.277.274-.553.624-.577-.042-.123.075-.195.15-.24.252.117.41-.21.662-.054.137-.135.034-.24 0-.384.182-.147.248-.56.572-.402.165.098.23.255.268.435.205-.254.567.277.503-.23.276-.24.58-.147.893-.147.057-.034.116-.06.124-.094 0-.157-.094-.12-.048-.26.11-.114.28-.11.39-.024.238.292.1.405.116.665-.612.646-1.377 1.464-2.37 1.456-.303.42-.87.24-1.26.482-.738.29-1.25.75-1.906 1.22-.083.233-.344.413-.3.637.122.037.217.114.167.273-.124.13-.35.2-.405.398.15.097.342-.1.468-.234.304-.224.317-.66.726-.785.082-.42.58-.214.834-.312.148.05.387-.12.475.107-.077.157-.223.292-.238.474.515-.04.41-.7.924-.787.226.06.226.46.55.263-.014-.155.11-.274.234-.348.2-.048.216.183.36.252.027.302-.024.46-.21.68-.11.215-.384.084-.536.19-.482.364-1.1.447-1.75.437-.333.263-.818.182-1.16.47-.193.182-.607.2-.658.544-.132.17-.44.327-.315.676.075.17.295.153.432.113.222-.15.28-.51.61-.55.174.426-.554.556-.61.96.317-.207.58-.523.872-.785-.026-.267.25-.462.447-.584l.217.23c.12-.12.27-.37.47-.493.173.08.595-.172.595.205.013.315-.372.384-.233.762-.476.562-1.112.762-1.708 1.04-.31.372-.715.76-.797 1.24-.175.154-.035.267-.14.463-.014.07-.014.354-.098.39-.173 0-.39-.028-.425-.2-.02-1.39-1.638-1.947-2.76-2.475-.42-.234-.76-.665-.92-1.133-.027-.17.024-.318.146-.435.05-.05.137-.018.213-.03.098.207.446.217.537.465.202-.343.387.14.56.14.102.258.55.077.49.436.06.117.174.23.323.182.036-.094.047-.242.187-.226.074-.017.175-.197.298-.245.29-.07.365.518.627.14-.013-.356-.152-.76-.542-.892-.36-.05-.72-.206-.893-.556.034-.205-.176-.127-.275-.23-.628.088-.866-.493-1.37-.636-.23-.17-.192-.46-.276-.69.146-.154.335-.193.506-.292.54.064.442.714.964.834.115.09.227 0 .263-.107.01-.06 0-.107-.05-.145.05-.07.188.026.237-.083-.215-.193-.05-.764-.49-.62-.034.282.18.404.244.634-.157-.008-.38-.013-.48-.2.028-.368-.373-.685-.688-.828-.102-.037-.195-.053-.27-.145.06-.35-.39-.497-.236-.823-.042-.04-.025-.107-.025-.167.212-.376.35.106.56.142.246.167.162.662.6.58.263.253.477.433.723.663.115.133.038.375.064.5.137.154.19.395.412.454.01-.143-.164-.3-.24-.454.016-.097-.025-.21.037-.29.175.067.264.198.264.407h.153c.12-.13-.24-.214-.03-.352.212.138.512.173.663.4.075.037.11-.036.176-.048.014-.21-.278-.278-.176-.493-.09-.15-.11-.263-.162-.375l-.007-.08c-.087-.08-.053-.226-.132-.274-.47-.565-1.383-.493-1.708-1.194.087-.18.21.12.3-.052-.09-.35-.5-.166-.69-.383-.47.315-.72-.434-1.232-.29-.225-.157-.653-.217-.56-.605.148-.253.384.123.6-.087-.327-.216-.812-.31-.9-.762.236-.384-.515-.636-.037-.975.223-.06.322.206.448.292-.237.39.284.3.337.605.198.08.382.41.625.263.075-.122.25-.19.384-.122.334.108.652.242.96.412.815-.106.725 1.124 1.496.786-.158-.19-.26-.424-.384-.678-.483-.387-.684-1.208-1.384-1.446-.354-.52-1.27-.727-1.346-1.453-.038-.18-.178-.243-.264-.377-.063-.29-.163-.81.086-.976.115-.037.188.035.276.083.02.132-.337.325-.04.438.103-.016.2-.113.3-.04-.034.16-.24.243-.208.413.223.106.32-.156.36-.313.25-.098.265.253.42.337.103.302-.43.232-.23.53.218.147.557.124.747.342.01-.05.076-.098.11-.147.216.06.302.388.54.183.134.084.3.037.422-.037.125.19.178.4.39.58-.042.24.06.455.15.616.07.023.135-.026.148-.086.01-.518-.186-.978-.66-1.305-.043-.568-.6-.676-.838-1.072-.253-.306-.824-.316-.834-.726-.298-.28-.677-.3-1.052-.375-.36-.04-.772.074-1.075-.085-.42-.118-.806-.35-.993-.756-.504-.09-.432-.81-.988-.936-.224-.44-.712-.866-.387-1.41-.15-.29-.598-.632-.298-.934.41-.288.537.376.834.46.096.14.126.314.26.424l-.022.03c.174.185.366.334.55.443 0 0-.003.008 0 .01.11.15.487.13.345.44-.098.067-.037.227-.047.346.086.105.283-.012.346.167.078.208-.047.532.302.58.048.012.066-.03.097-.06.037-.12-.205-.21-.03-.312.194.057.226.278.444.102.16.045.125.253.275.27.077-.2-.065-.386.174-.496.202 0 .352.11.488.272-.05.194-.05.32 0 .514.324.145.036-.306.3-.348.246.034.424-.177.648-.102.476.257.077.762.424 1.09.086.252.052.604.327.724h.1c-.1-.276-.34-.627-.15-.952-.025-.12.127-.243.236-.143.102.37.714.447.563.954.22.204.138.518.15.808-.053.073-.286.19-.11.312.047.06.13.022.206.037.137-.096.164-.276.15-.41-.11-.12-.05-.342-.062-.46.076-.072.187-.1.234-.182.027-.23-.307-.25-.274-.483-.01-.244.068-.52-.173-.677.03-.254-.163-.423-.174-.667-.12-.152-.12-.407-.36-.455-.374-.024-.585-.392-.934-.473-.152-.576-1.028-.77-.864-1.442-.372-.31-.39-.693-.79-.962.066-.168-.11-.253-.047-.43-.184-.447-.826-.378-1.015-.874.162-.07.152-.253.3-.348-.022-.218-.46-.28-.237-.52.063-.242-.198-.394.007-.57v-.09c.16-.082.232.13.296.193l.05.2c.15.025.16-.135.274-.163.174.07.16.347.324.37.25-.17.462.06.66.145.02.055.043.116.083.16v.376c-.024.013-.056.027-.082.04-.07.218-.088.397-.112.62-.048.118-.12.12-.068.29.36-.22.573.347.875.39.045-.02.007-.092.025-.142-.115-.056-.064-.116-.025-.19.08-.144.21-.11.324-.04.247.33.35.732.47 1.102 0 .205-.025.592.187.765.226.11.254.335.513.37.053.366 0 .768.113 1.107h.187c-.15-.38.21-1.128-.336-1.27-.113-.174-.324-.257-.237-.498.098-.122.098-.342.327-.292.21.145.175.482.512.433 0-.157.075-.324.057-.485.04-.184.054-.25.06-.433v-.007c.02-.425-.043-.872.065-1.243-.124-.374-.07-.822-.21-1.19.29-.284-.185-.643-.04-.99-.098-.114-.034-.215-.05-.37l.09-.11-.02-.992c-.415-.097-.694-.2-.964-.302-.843.24-2.835 1.633-3.532 1.52 0 0-.196-.01-.284 0-.092.006-.32.018-.492.018-.17 0-.348-.078-.424-.094-.076-.02-.32-.05-.497-.062-.174-.014-.272-.023-.314-.047-.27-.156-.638-.08-.85-.35-.51.184-.91-.145-1.28-.385-.496.12-.864.357-1.277.645-.34-.083-.484.256-.83.16-.226.202-.546-.056-.768.133-.298.004-.52-.166-.79-.223-.356-.2-.74-.335-1.16-.378-.204-.205-.3-.283-.414-.314-1.225 2.357-1.91 5.03-1.91 7.86 0 9.468 7.67 17.14 17.14 17.14 9.458 0 17.127-7.672 17.127-17.14 0-2.916-.73-5.663-2.024-8.068-.048.026-.267.1-.48.143m-1.768-.737l.344.18s.188.087.237.128c.053.04-.023.076-.13.053-.1-.025-.24-.12-.24-.12s-.282-.154-.32-.2c-.044-.05-.228-.146-.228-.146-.075.024-.438.088-.913.37.117.102.355-.028.46.01.105.046.166.095.302.13.254.054.52.25.823.23.197-.014.368.083.523.064.108-.012.225-.053.388-.103.132-.037.297-.084.52-.132l.333-.143c.007 0-.188-.33-.186-.334-.004-.01-.014-.022-.014-.034-.098-.166-.207-.33-.31-.5-.145.01-.297.016-.444.03l-.135.02c-.155.028-.29.09-.397.185-.037.012-.07.02-.11.032.075.04.156.073.256.106l.032.01.138.047.07.067.06.036c.018.014.036.053.018.063-.02.014-.037.02-.048.01l-.092-.068-.05-.04-.125-.046-.034-.012c-.137-.032-.246-.09-.342-.145-.174.043-.365.073-.55.112l.164.136zm.864-1.587c-.035 0-.055 0-.096.006-.817-.166-1.914.064-2.613-.48-.563.158-1.18-.013-1.756.148-.3.246-.864-.06-1.132.258-.592.055-1.162.21-1.767.156-.386-.03-.574.357-.99.257-.19.18-.482.124-.736.17 0 0-.004-.002-.01-.002l-.62-.22c-.143-.053-.247-.124-.375-.135-.123-.016-.453-.134-.633-.16-.18-.022-.495-.146-.647-.165-.154-.016-.372-.1-.582-.135-.22-.04-.51-.04-.623-.102-.056-.03-.23-.035-.352-.035-.014.114-.064.243-.083.36v.008c-.008.06 0 .106.02.154 0 .11.013.267.027.505-.055.21.03.486-.08.683-.027.23.002.595.04.813 1.29.134 1.69.4 2.628.654l.614.06c.57.154.81-.468 1.356-.378.3-.097.59-.023.864-.162.61-.18 1.165-.446 1.752-.652.464 0 .848-.19 1.304-.24.128-.075.287-.063.418-.096.44-.03 1.28-.228 1.322-.08.038.145-.834.14-1.257.285-.25.016-.476.08-.715.145.038.02.058.05.087.083.054.047.075.07.095.065.028-.016.063.004.072.036.01.03-.007.07-.034.08-.106.03-.172-.05-.227-.103-.032-.035-.073-.07-.098-.07-.02 0-.042-.034-.052-.062-.103.02-.202.037-.3.048l.117.072c.053.036.102.075.147.085.037 0 .065.035.062.062-.008.034-.043.06-.07.058-.082-.007-.153-.063-.213-.108l-.11-.067c-.025-.026-.046-.065-.025-.088 0 0 .003-.007.008-.01h-.03c-.136.052-.283.126-.433.155.033.028.077.035.153.035.168 0 .294.07.398.202.02.023.014.063-.01.083-.023.02-.065.014-.086-.01-.08-.107-.168-.153-.302-.153-.18 0-.26-.076-.295-.143-.025 0-.05-.008-.075-.015-.136.074-.282.134-.422.2l.047.007.093.03.023.01h.072l.157.073.143.02c.1 0 .17.04.248.086.01-.004.02-.017.033-.008.03.004.05.04.044.074l-.01.028c-.003.02-.015.03-.036.04-.018.006-.04.005-.053-.01-.085-.058-.123-.083-.22-.083l-.18-.032-.054-.016-.167-.053-.054-.017-.05-.018-.1-.02-.038-.01-.04-.014c-.01 0-.027 0-.04-.004-.063.028-.13.06-.197.1.166.446.677.25.958.517.292.028.686.177.91-.078.77-.175 1.626-.417 2.283-.82.466 0 .784-.465 1.22-.492.15-.086.353-.072.514-.136.385.013.68-.318 1.05-.413.126.01.255.01.385 0-.192-.28-.378-.545-.58-.813m-4.957-4.47c-.357-.052-.662.038-.97.164.2.243.563.646.982.975.25.202.47.354.653.466.183.093.094.29-.052.2-.13-.087-.38-.253-.568-.405-.48-.39-.92-.887-1.16-1.173-.35.156-.7.348-1.092.393.187.143.38.295.505.385.333.23 1.03.67 1.052.703.033.034.013.07-.02.1-.057.05-.796-.4-1.152-.663-.185-.13-.43-.335-.642-.525h-.033c-.288.137-.597.22-.92.28-.046.036-.098.066-.145.097.11.062.236.117.36.135.13.013.25.08.367.14l.06.026c.047.018.06.07.04.11-.027.04-.064.06-.11.037l-.062-.034c-.1-.05-.216-.107-.32-.123-.16-.014-.314-.093-.448-.178-.035-.026-.077-.042-.113-.072-.247.01-.507-.083-.74.11-.14-.01-.285.025-.443.06-.133.237-.36.286-.453.53.096.014.17.03.208.03.63.043 1.32.15 1.93.292.01.018.003.055 0 .08-.35.014-.67-.075-1.01-.135-.33-.062-.7-.008-1.03-.08-.03-.004-.09-.017-.167-.035-.1.13-.142.248-.348.327-.396.246-.686.22-.897.773-.11.05-.32.233-.417.325.14-.007.274 0 .417-.03.152-.025.296-.103.448-.136.32-.067.66-.08.967-.197.943-.19 1.94-.03 2.883-.225.34.12.702 0 1.082.062-.425-.207-.917-.356-1.41-.42-.07-.13-.274-.125-.384-.25.063-.027.17-.04.17-.04s.472.325.775.218c.195.117.476.07.66.23.535.09.86.507 1.387.66.313.22.817.18 1.19.325.642.125 1.39.235 1.932.553.393-.108.65.207 1.056.13.265.034.53.06.796.087-1.31-1.712-2.95-3.17-4.814-4.282m-7.522 3.65c-.15-.015-.264.054-.343.155l.113.005c.722.223.618.108 1.167.28.136.043.578.12.7.16.12.033.774.103.897.14.122.037.492.286.608.35.128.063.144.123.212.14.06.02.255-.026.455-.174.25-.148.636.012.823-.25.35-.066.63-.013.94-.127.483.015.91-.144 1.333-.153.24-.263.664-.146.975-.18.368-.083.772-.166 1.16-.122-.07-.078-.228-.078-.347-.108-.492-.17-1.04-.263-1.56-.4-.353-.457-.95-.397-1.482-.457-.106.004-.214.007-.323.007.052.022.097.048.1.073.006.042-.028.093-.062.097-.09.014-.16-.027-.202-.055l-.042-.01-.1-.073c-.01-.006-.024-.015-.027-.024-.143.005-.3.01-.433.01l.01.017.03.012c.066.04.184.095.17.207-.012.038-.04.056-.08.063-.045 0-.348-.214-.4-.282-.095.008-.18.008-.272.012l-.155.01c-.06.006-.172.015-.257.02.057.037.126.057.168.053.047-.013.09.02.1.06.007.048-.018.09-.063.097-.123.023-.264-.053-.355-.104-.056-.03-.117-.052-.192-.06-.124.012-.358.047-.49.07l-.312.058c.237.06.447.168.686.25.122.04.252.067.37.104.08.024.464.14.483.217.005.04-.016.082-.048.09-.126.034-.297-.103-.407-.142-.163-.053-.33-.07-.484-.13-.232-.084-.44-.206-.688-.252-.202-.034-.4-.028-.607-.02l-.156.03-.33.06c.237 0 .44.183.672.24.25.065.51.072.77.12.16.03.324.112.478.167.023.015.01 0 .066.07.06.063-.043.11-.09.093-.262-.074-.493-.17-.77-.205-.29-.036-.606-.063-.865-.21-.183-.112-.495-.176-.712-.192l-.15.027c-.17.028-.385.056-.582.068-.034.034-.07.064-.1.098m-2.777.672l-.1.03c.04.053.067.112.094.167l.014.02c.018.047 0 .095-.04.113-.037.02-.088.005-.105-.036l-.014-.024c-.047-.096-.08-.16-.143-.19-.157.027-.302.034-.403.04.107.09.204.185.31.267.12.135-.064.17-.157.088-.138-.135-.275-.258-.437-.355-.018 0-.036-.006-.054-.006h-.266c-.094.006-.187.032-.278.04l-.204.048c-.04.004-.075 0-.12.004.075.028.146.05.215.093.074.042.145.104.212.154.14.086.31.183.472.206.136.01.265.078.376.136l.058.035c.04.016.06.067.037.107-.018.036-.062.053-.102.033l-.07-.027c-.1-.055-.213-.11-.316-.127-.163-.02-.314-.102-.455-.18-.133-.08-.262-.194-.416-.254-.075-.03-.142-.06-.212-.092-.007-.002-.017-.01-.03-.02-.02.015-.045.03-.075.04l-.214.063c-.02.01-.038.02-.065.032-.08.03-.162.052-.252.062.345.135.696.265 1.045.39.217.086.435.166.647.254.116.048.386.228.512.2.046-.013.09.02.1.06.004.05-.017.085-.062.1-.158.034-.378-.115-.512-.167-.2-.085-.406-.157-.604-.233-.312-.113-.624-.214-.925-.34-.093-.033-.425-.12-.563-.23l-.152.027c-.01.01-.026.014-.042.022-.095.033-.166.023-.26.04-.087.01-.17.053-.254.078-.06.01-.123.03-.18.044.673.108 1.434.43 1.942.58.54.155.81.378 1.356.45.254.04.468.128.86.257l-.008-.495c-.038-1.27-.165-1.508-.165-1.508m-3.743 1.67l-.063-.02c-.023-.01-.025-.038-.04-.05-.05-.053-.718-.525-.776-.566-.022-.024-.042-.074-.045-.074-.044.013-.092.033-.128.044l-.103.05v-.01c-.08.027-.155.05-.224.086h-.015v.012l.084.076s.027.014.03.014c.017.01.45.407.45.428v.018c.006 0 .006.003.006.01 0 .013-.014.027-.03.04-.025.02-.047.01-.07 0l-.447-.406-.1-.08-.015-.024c-.02-.028-.032-.042-.045-.067-.12.01-.18.033-.295.087l-.098.038c-.045.025-.083.054-.12.073h-.004c.285.24.876.76.894.858.007.034-.014.07-.05.076-.066.007-.847-.698-1.043-.933h-.032c-.09.03-.167.09-.246.13l-.15.06c-.05.005-.104.005-.163-.012l-.07.038c.182.244.932.686 1.086.796.026.016.042.046.038.095-.025.025-.043.037-.074.02-.195-.126-.92-.607-1.15-.864l-.045.017-.24.136c-.01.044-.033.094-.064.12l-.084.087c-.05.04-.108.074-.168.115-.037.03-.086.05-.133.07h.03c.17.117.37.16.55.237.076.036.895.368.97.354.03-.012.064.002.07.034.007.04-.006.073-.04.08-.12.034-.326-.1-.422-.157-.134-.07-.717-.214-.855-.27-.1-.042-.19-.116-.295-.146-.056-.013-.234 0-.265-.045-.113.046-.2.115-.2.248.293.275.804.086 1.097.362l.24.096s.343.064.38.083c.04.022.203.03.32.078.117.053.41.06.466.07l.255.053c.695.02 1.36-.028 1.953-.228.166-.208 1.61-.93 2.277-1.145-.285-.104-.575-.19-.89-.224-.497-.04-.894-.543-2.242-.647-.11.032-.23.038-.345.016.024.03.673.51.69.534.013.002.02.005.02.005.13.096-.045.115-.02.126m3.313-2.675c-.236-.08-.464-.193-.69-.33-.143-.24-.39-.393-.488-.628-.118.025-.2.06-.24.088-.193.04-1.174.248-1.38.237-.5.057-1.027.067-1.474.31-.258-.024-.47.095-.702.146.115.13.378.486.383.543.006.047-.022.08-.062.087-.043.007-.084-.014-.1-.056-.006-.022-.302-.425-.337-.464-.36.295-.812.295-1.238.39-.01.023-.03.045-.047.052.156.16.437.493.45.553.005.043-.026.077-.064.09-.042.004-.085-.02-.1-.057-.01-.03-.426-.506-.445-.52 0 0-.004-.005-.007-.005-.007 0-.016 0-.025.005-.277.143-.663.313-.954.083-.13-.03-.263-.048-.406-.065.215.246.604.764.62.823.006.042-.028.072-.063.083-.04.01-.084-.014-.094-.053-.013-.028-.62-.81-.644-.83-.016-.01-.023-.026-.033-.04-.55-.042-1.12.013-1.633.1-.016-.005-.028-.005-.038-.01.233.218 1.213 1.124 1.258 1.195.02.044.004.07-.038.092-.122.083-1.224-1.064-1.398-1.266-.128.066-.222.223-.382.195-.258.17-.65.024-1.005-.09-.076.09-.15.174-.22.268.162.13.35.254.517.363.326.203 1.757.724 1.82 1.18.003.053-.025.085-.07.09-.044.013-.087-.022-.093-.068-.044-.318-1.268-.797-1.498-.91-.262-.15-.54-.34-.77-.525-.158.212-.314.425-.465.636.01.014.035.028.066.058.143.123.485.346.54.362.264.13 1.306.242 1.348.63.005.052-.03.087-.07.09-.047.01-.09-.024-.092-.068-.03-.295-1.094-.414-1.277-.51-.206-.103-.4-.294-.59-.43l-.01-.004c-.167.247-.318.5-.478.753l.048.04c.498.19.996.356 1.48.563.13.053.054.11.01.118-.17.016-1.394-.495-1.617-.592-.13.226-.258.453-.38.69.15.013.264.05.515.27.462.01.828.246 1.254.353.356.368.89.05 1.336.075.724-.15 1.308-.598 2.012-.79 1.013-.147 1.528-1.2 2.595-1.217.388-.016.922-.41 1.334-.39l.276-.127c.064-.022.107-.073.175-.078h.102c.068 0 .102-.02.163-.032.078-.014.155.01.224-.004.118-.03.206-.122.352-.123.19-.005.38-.078.566-.115.07-.017.16-.03.217-.05.052-.018.07-.06.133-.073.05-.012.114.003.166-.007.054-.013.187-.042.243-.066.042-.008.07-.034.086-.066.055-.023.106-.028.17-.05.063-.02.103-.06.17-.077.077-.023.18-.01.266-.01h.215c.094 0 .133-.036.217-.038.08-.006.147.006.226.01.105.014.298-.09.53-.13-.024-.282.003-.54-.367-.655m-1.473-1.504c-.387-.3-.952-.257-1.338-.597-.572-.014-1.074-.247-1.683-.208-.4-.332-.92-.138-1.35-.455-.422.07-.884.06-1.223-.19l-.326.007c-.258.17-.516.35-.77.535.058.044.12.103.18.15.144.12.294.246.45.356.198.14.402.274.612.4.104.063.59.22.59.353 0 .008 0 .01-.007.02-.014.04-.038.065-.078.05-.184-.062-.372-.128-.55-.21-.19-.085-.302-.213-.46-.345-.286-.23-.59-.44-.87-.674-.412.303-.798.623-1.183.964.025.016.053.033.092.055.106.082.233.118.354.167.096.044.512.247.532.35.007.036-.012.08-.052.087-.137.046-.384-.202-.516-.26-.19-.083-.347-.193-.52-.3-.335.307-.664.632-.977.968.013.007.034.016.053.037.132.098.396.298.22.312-.055.004-.322-.16-.39-.224-.17.19-.337.383-.503.577.255.113.534.205.73.087.375-.095.693-.198 1.104-.152.187-.148.49.018.698-.092.83-.375 1.72.483 2.455-.19.33.125.51-.22.82-.19.292-.233.63-.43.997-.353.703-.27 1.492-.4 2.246-.423.12-.053.523-.14.926-.222 0-.03-.027-.062-.017-.09-.07-.15-.147-.22-.248-.3m3.44 30.313c-9.617 0-17.41-7.79-17.41-17.404 0-9.604 7.793-17.402 17.41-17.402 9.597 0 17.394 7.798 17.394 17.4 0 9.615-7.796 17.405-17.393 17.405"/>
    <path fill="#000" d="M63.007 120.05c-13.242 0-23.962 10.724-23.962 23.948 0 13.23 10.72 23.953 23.962 23.953 13.215 0 23.942-10.72 23.942-23.952 0-13.224-10.728-23.95-23.943-23.95m0 48.31c-13.463 0-24.37-10.906-24.37-24.36 0-13.45 10.907-24.357 24.37-24.357 13.447 0 24.342 10.908 24.342 24.358 0 13.454-10.896 24.36-24.343 24.36m.914.97l-.9.55-.897-.55.898-.55.9.55zm-3.773-.138l-.973.406-.804-.677.97-.403.807.673z"/>
    <path fill="#000" d="M56.434 168.488l-1.018.255-.702-.79 1.02-.253.7.788zm-3.563-1.248l-1.044.103-.576-.888 1.052-.097.57.882zm-3.34-1.764l-1.047-.053-.438-.965 1.052.06.433.958zm-3.037-2.24l-1.03-.217-.292-1.013 1.037.214.286 1.015zm-2.672-2.674l-.987-.362-.13-1.05.99.367.128 1.045zm-2.263-3.015l-.92-.516.02-1.044.924.504-.023 1.057zm-1.765-3.35l-.837-.637.182-1.036.833.638-.178 1.036zm-1.255-3.56l-.733-.754.335-1 .733.755-.336 1zm-.73-3.758l-.605-.855.472-.938.613.855-.48.937zm-.14-3.842l-.476-.937.61-.86.48.937-.613.86zm.424-3.754l-.333-1 .734-.757.336 1.002-.735.754zm.98-3.65l-.18-1.037.836-.64.176 1.036-.833.64zm1.507-3.46l-.024-1.055.926-.507.02 1.054-.923.507zm2.01-3.2l.135-1.046.988-.353-.136 1.034-.986.363zm2.46-2.863l.29-1.01 1.03-.214-.287 1.01-1.032.215zm2.868-2.477l.435-.952 1.05-.058-.44.956-1.045.055zm3.18-2.018l.574-.884 1.05.105-.574.88-1.052-.1zm3.46-1.522l.696-.795 1.03.263-.7.784-1.025-.25zm3.653-1l.813-.668.97.403-.81.675-.972-.41zm3.817-.416l.902-.552.9.552-.9.536-.902-.536zm3.82.133l.975-.4.8.67-.972.41-.802-.68zm3.706.705l1.024-.26.7.788-1.024.255-.7-.783zm3.574 1.25l1.047-.104.577.874-1.053.102-.57-.87zm3.344 1.755l1.044.058.436.956-1.057-.056-.422-.958zm3.037 2.24l1.022.216.296 1.008-1.04-.21-.278-1.015zm2.674 2.68l.978.36.133 1.047-.98-.366-.13-1.04zm2.26 3.014l.92.507-.023 1.056-.923-.5.027-1.062zm1.764 3.344l.834.643-.18 1.04-.834-.646.18-1.036zm1.252 3.574l.734.753-.34 1-.732-.758.338-.995zm.73 3.745l.604.86-.47.934-.614-.85.48-.943zm.14 3.85l.475.936-.6.86-.484-.94.61-.855zm-.424 3.752l.34 1-.738.754-.334-1.002.732-.753zm-.976 3.65l.178 1.033-.83.643-.186-1.04.84-.637zm-1.51 3.46l.024 1.054-.923.503-.015-1.056.915-.5zm-2.003 3.197l-.132 1.047-.993.358.136-1.04.99-.365zm-2.466 2.86l-.29 1.014-1.036.213.29-1.01 1.037-.215zm-2.87 2.475l-.425.96-1.054.053.43-.955 1.05-.058zm-3.183 2.02l-.574.884-1.044-.1.57-.886 1.048.1zm-3.466 1.528l-.692.786-1.027-.254.7-.788 1.018.256zm-3.648.99l-.812.676-.964-.404.81-.674.966.403zm-1.982.29l-.857.61-.936-.475.86-.615.934.48zm-3.773.14l-.934.478-.856-.615.934-.472.857.61zm-3.748-.423l-1 .33-.757-.733.996-.33.76.733zm-3.65-.98l-1.037.18-.634-.835 1.037-.182.633.838zm-3.458-1.51l-1.052.024-.51-.925 1.052-.02.51.923zm-3.198-2.01l-1.047-.133-.36-.99 1.045.135.362.987zm-2.86-2.464l-1.018-.286-.207-1.03 1.01.282.216 1.033zm-2.49-2.842l-.958-.437-.05-1.045.955.43.053 1.053zm-2.01-3.205l-.88-.57.102-1.05.883.575-.104 1.045zm-1.515-3.456l-.785-.703.256-1.018.79.697-.26 1.022zm-1-3.695l-.677-.81.41-.968.67.81-.404.968zm-.432-3.826l-.546-.898.545-.905.55.907-.55.895zm.138-3.774l-.4-.972.672-.803.408.972-.68.804zm.707-3.705l-.256-1.017.79-.702.256 1.023-.79.698zm1.248-3.568l-.097-1.047.88-.576.103 1.046-.885.576zm1.767-3.344l.056-1.043.96-.442-.057 1.06-.958.425zm2.242-3.033l.21-1.032 1.013-.294-.212 1.033-1.01.292zm2.67-2.686l.362-.984 1.047-.136-.364.988-1.046.13zm3.028-2.25l.506-.924 1.054.026-.506.923-1.053-.025zm3.336-1.78l.637-.83 1.038.18-.637.832-1.037-.182zm3.57-1.262l.755-.728 1.003.338-.76.726-.997-.336zm3.77-.708l.858-.608.94.48-.857.607-.94-.48zm3.824-.133l.938-.482.855.604-.936.48-.856-.603zm3.75.416l1-.336.754.737-1 .332-.753-.733zm3.646.975l1.043-.175.637.838-1.033.177-.647-.84zm3.472 1.513l1.045-.015.51.91-1.06.032-.495-.926zm3.19 2.007l1.043.136.367.986-1.05-.13-.36-.993zm2.864 2.464l1.017.296.206 1.03-1.015-.282-.21-1.043zm2.49 2.85l.953.437.06 1.048-.96-.433-.055-1.052zm2.006 3.2l.875.577-.098 1.045-.884-.57.106-1.05zm1.514 3.466l.79.7-.26 1.022-.792-.697.262-1.024zm1 3.692l.675.806-.402.972-.673-.81.4-.968zm.43 3.823l.538.904-.54.896-.542-.896.543-.903zm-.14 3.774l.402.967-.674.81-.4-.967.67-.81zm-.7 3.71l.258 1.022-.79.696-.255-1.016.785-.702zm-1.25 3.563l.102 1.05-.89.573-.1-1.05.887-.573zm-1.765 3.34l-.057 1.047-.956.44.052-1.053.96-.434zm-2.242 3.037l-.214 1.028-1.013.29.22-1.028 1.008-.29zm-2.672 2.68l-.364.987-1.052.136.37-.983 1.046-.138zm-3.026 2.25l-.51.927-1.05-.024.504-.92 1.056.02zm-3.335 1.783l-.64.836-1.043-.18.645-.84 1.038.184zm-3.58 1.264l-.752.733-.997-.334.755-.735.996.336z"/>
    <path fill="#000" d="M36.707 143.998c0 14.498 11.793 26.294 26.3 26.294 14.486 0 26.288-11.796 26.288-26.294 0-14.49-11.802-26.296-26.288-26.296-14.507 0-26.3 11.805-26.3 26.296m-.707 0C36 129.113 48.11 117 63.007 117 77.884 117 90 129.113 90 143.998c0 14.89-12.116 26.998-26.993 26.998-14.896 0-27.007-12.11-27.007-26.998"/>
    <path fill="#000" d="M43.657 138.38c.164.04.182.16.17.278-.037.163-.078.324-.145.49-.067.146-.2.254-.322.298-.1.037-.226.037-.322.037l-.03.105c.246.023.488.037.727.05.096-.322.17-.656.258-.982.093-.323.193-.648.284-.977l-.12-.042-.016.062c-.033.126-.097.27-.35.2l-2.077-.578c-.21-.06-.19-.21-.155-.343l.017-.045-.127-.036c-.044.194-.083.397-.14.597-.053.19-.12.366-.172.553l.12.034.022-.09c.04-.14.083-.25.295-.193l2.084.58zm-.088 1.417l-.012.057c-.024.136-.07.277-.284.243l-2.17-.335c-.218-.036-.216-.182-.19-.324l.007-.053-.127-.02c-.034.234-.082.632-.134.95-.047.325-.124.72-.164.98.178.02.448.064.628.105l.055-.106c-.264-.064-.476-.14-.416-.548l.084-.523 1.09.166-.075.454c-.03.23-.184.26-.415.245l-.014.112c.164.02.323.04.488.062.16.03.314.058.47.092l.046-.115c-.248-.063-.408-.1-.367-.363l.075-.458.97.148c.264.044.23.27.192.51-.07.463-.138.658-.627.7l.012.113c.23-.016.453-.028.684-.028.033-.245.085-.69.137-1.03.06-.347.14-.795.18-1.01l-.124-.025zm-.67 3.065c.17.007.214.122.227.244.007.162 0 .334-.032.513-.025.157-.135.295-.242.36-.094.056-.214.08-.31.105v.107c.24-.026.477-.072.717-.11.013-.34.013-.678.026-1.015.015-.34.046-.675.058-1.02l-.125-.004-.004.06c-.002.128-.034.282-.292.268l-2.156-.088c-.218-.012-.232-.16-.23-.3l.007-.053-.125-.005c-.01.207 0 .407-.01.612-.01.198-.034.385-.042.574l.13.014v-.09c.004-.156.013-.266.238-.257l2.165.085zm-.866 2.31l-1.15.45v.007l1.212.26-.062-.72zm2.027 4.38c-.126.008-.273.036-.416.07l-1.86.425c-.488.115-.483.298-.446.456l.018.055-.126.032c-.032-.157-.053-.313-.09-.468-.044-.175-.096-.347-.137-.525l.12-.03.022.086c.02.11.124.32.458.24l1.534-.355.007-.008-2.434-1.208c-.023-.118-.033-.228-.064-.337-.033-.144-.08-.288-.11-.435l.12-.025.015.045c.038.176.215.316.444.26l1.768-.404c.282-.065.45-.164.453-.357l-.006-.16c-.01-.125-.07-.203-.193-.24-.13-.04-.285-.073-.435-.106l-2.247-.534c-.036-.007-.072-.018-.107-.025-.012-.007-.012-.014-.014-.028 0-.012.002-.018.005-.032.043-.074.115-.235.15-.364.155-.034.357-.12.51-.183l1.87-.77c.168-.075.258-.207.246-.356l-.003-.022.13-.01c0 .138.002.274.014.414.012.157.032.31.053.47l-.13.006v-.045c-.01-.124-.046-.283-.17-.274-.075.006-.18.06-.32.112l-.424.155.07.88.493.11c.14.028.257.055.312.05.108-.01.11-.16.103-.25l-.002-.04.122-.01c.01.195.013.39.03.58.013.167.057.48.057.48.023.178.043.355.08.525.04.164.094.32.13.484l-.123.03-.018-.065c-.064-.29-.2-.327-.555-.25l-1.732.403 2.793 1.4.033.148zm-.067 1.296c.27-.104.352-.005.454.253.244.61-.188 1.146-.79 1.385-1.027.41-1.48.028-1.71-.545-.03-.084-.05-.17-.078-.253l2.123-.84zm.023-.905l.022.05c.05.13.084.272-.12.353l-2.05.808c-.203.084-.274-.048-.324-.18l-.02-.046-.117.045c.04.11.15.34.245.57.085.233.146.427.21.586.353.88 1.106 1.21 1.922.89.78-.313 1.178-1.164.838-1.875-.067-.16-.175-.406-.27-.65-.1-.244-.184-.508-.217-.598l-.12.046zm.456 5.966c-.248.114-.555.11-.695-.116-.154-.26-.077-.505.202-.68.597-.365 1.022.738 1.886.214.495-.3.522-.835.266-1.26-.113-.18-.294-.317-.483-.425-.19.095-.384.18-.583.276l.04.105c.327-.145.69-.15.883.164.134.224.094.5-.165.657-.635.385-1.024-.705-1.89-.18-.47.286-.56.754-.302 1.18.06.094.266.348.344.447.165-.104.35-.198.536-.284l-.04-.1zm.207 1.056c-.174-.228-.125-.28.085-.516l-.07-.092c-.082.09-.166.17-.253.255-.087.086-.178.157-.268.234l.054.075c.117-.053.174.032.24.11l1.217 1.58c.06.084.118.162.02.244l.072.065c.08-.08.16-.164.243-.238.082-.076.177-.145.266-.216l-.036-.12c-.126.085-.334.22-.49.016l-.392-.503 1.774-1.36c.252-.2.365-.112.48.033l.045.058.1-.076c-.095-.123-.27-.32-.4-.49-.138-.182-.29-.41-.385-.527l-.096.082.045.053c.128.17.174.264-.085.47l-1.78 1.37-.387-.507zm2.805 1.156l-.608 1.082.003.007 1.104-.565-.5-.523zm4.355 2.084c-.092.094-.184.203-.277.32l-1.176 1.506c-.31.396-.185.53-.056.634l.05.03-.08.105c-.126-.097-.24-.21-.37-.307-.136-.11-.296-.21-.436-.324l.08-.098.062.055c.097.07.3.166.515-.106l.972-1.238v-.012l-2.65.6c-.096-.072-.174-.153-.262-.224-.12-.093-.248-.17-.363-.265l.076-.098.04.035c.14.106.367.105.51-.08l1.087-1.396c.205-.266.274-.485.064-.647l-.04-.033c-.09-.093-.177-.112-.296-.07-.13.053-.272.127-.412.195L46.8 159.79c-.034.015-.07.034-.098.048-.016.004-.025-.005-.03-.012-.007-.005-.01-.016-.014-.027-.01-.085-.064-.257-.11-.38.096-.124.197-.32.273-.462l.973-1.803c.094-.162.078-.322-.02-.435l-.014-.014.093-.088c.084.11.17.22.264.325.1.115.213.225.32.343l-.09.078-.03-.03c-.085-.097-.21-.205-.302-.117-.056.046-.1.173-.18.3l-.23.39.61.638.45-.227c.128-.065.24-.118.277-.152.074-.08-.02-.19-.083-.26l-.03-.03.092-.092c.13.15.258.294.39.432.117.127.238.244.358.35.133.113.255.24.387.344.13.103.27.19.4.292l-.073.1-.053-.037c-.237-.18-.367-.13-.59.16l-1.065 1.364 3.054-.678.11.094zm.158 2.092l.463.276c.166.095.145.238.038.42l.1.057c.073-.133.14-.264.22-.39.086-.155.176-.293.274-.436l-.1-.06c-.12.203-.26.32-.474.198l-.416-.246.547-.922c.12-.204.272-.115.442-.013l.043.026.06-.11c-.154-.093-.388-.216-.572-.327-.18-.102-.374-.238-.506-.314l-.062.108.045.025c.122.07.232.165.125.352l-1.122 1.895c-.11.187-.254.13-.37.06l-.045-.024-.063.104c.2.122.557.31.835.475.28.17.616.385.845.52.08-.157.227-.396.333-.546l-.083-.094c-.17.24-.325.382-.59.23l-.53-.317.563-.947zm3.202-.07c.687.3.52 1.01.282 1.57-.246.564-.823 1.128-1.41.87-.618-.267-.545-.947-.322-1.465.3-.686.875-1.224 1.45-.976m-1.195 2.618c.757.325 1.58.074 1.934-.746.385-.89.055-1.733-.704-2.057-.754-.325-1.566-.012-1.923.813-.346.8-.044 1.67.692 1.99m6.34-1.164c-.275-.037-.4-.014-.435.28l-.287 2.306c.08.012.17.04.26.05.61.073 1.16-.177 1.3-1.277.08-.646-.184-1.275-.837-1.358m-3.167.785l-.183-.046-.32 1.21c.05.018.087.04.2.074.338.088.612-.087.71-.444.13-.482-.03-.69-.41-.793m4.534.715c-.107.874-.763 1.418-1.707 1.305-.166-.023-.37-.065-.617-.097-.247-.028-.5-.042-.616-.06l.015-.12.055.003c.14.018.285.014.316-.202l.273-2.227c.027-.214-.113-.26-.254-.276l-.06-.01h-.005c-.185-.03-.273.003-.425.144l-.932.926c.26.205.422.487.33.852-.162.577-.618.6-1.086.473-.193-.055-.374-.12-.59-.177-.237-.064-.47-.108-.593-.14l.043-.13.066.028c.11.03.262.055.35-.24l.565-2.114c.038-.152-.074-.256-.207-.295l-.067-.013.038-.124c.186.052.35.117.53.165.22.056.435.095.65.157l-.033.124-.067-.023c-.17-.044-.312-.07-.392.24l-.25.93.246.06c.368-.4.75-.826 1.144-1.154.117.023.233.075.345.11.117.03.237.042.345.078.1.01.39.072.65.105.264.032.53.053.702.067.784.048 1.34.81 1.24 1.64m1.888 1.162c.007.224-.163.228-.323.232h-.055l.005.127c.168-.004.403-.03.595-.035.193-.01.435 0 .6-.006l-.002-.125-.06.002c-.123.004-.27-.032-.273-.215l-.088-2.526c-.015-.493-.35-1.02-.842-1-.226.007-.453.098-.443.373.007.113.094.226.245.223.312-.007.12-.408.357-.42.134-.002.168.21.168.317l.115 3.05zm1.49-.18c.042.3-.1.327-.255.347l-.045.006.017.125c.165-.022.365-.068.606-.1.23-.033.423-.046.58-.065l-.018-.124-.044.01c-.154.02-.31.034-.35-.265l-.205-1.458c-.075-.527.053-.923.6-1 .506-.07.776.25.857.813l.2 1.43c.043.303-.1.33-.232.344l-.075.01.02.128c.15-.02.31-.06.454-.083.153-.02.302-.022.448-.047l-.018-.127-.077.015c-.11.014-.246.03-.29-.27l-.19-1.347c-.14-.935-.63-1.14-1.2-1.063-.74.103-1.098.453-.998 1.2l.216 1.524zm4.667-2.73l.013.003.446 1.505c.095.334-.102.444-.212.48l-.076.02.03.124c.17-.058.336-.124.516-.17.154-.045.31-.07.46-.12l-.03-.12-.063.016c-.154.046-.338.06-.483-.413l-.54-1.836c-.046-.138-.08-.285-.107-.412l-.127.04-1.23 2.878-.488-1.66c-.103-.35-.076-.493.215-.575l.056-.017-.035-.12c-.157.045-.313.108-.476.152-.16.05-.334.087-.502.133l.036.12.05-.014c.256-.072.39.09.482.412l.5 1.697c.065.224-.062.413-.228.463l-.05.015.034.12c.147-.044.29-.102.42-.145.115-.028.223-.045.335-.08l1.055-2.5zm.35-.892l.047-.02c.13-.054.276-.09.358.108l.86 2.08c.086.2-.042.276-.173.333l-.046.02.044.116c.138-.06.35-.167.523-.24.184-.074.402-.145.572-.213l-.05-.12-.048.026c-.128.05-.273.088-.352-.115l-.865-2.077c-.085-.2.03-.276.168-.33l.05-.02-.05-.115c-.166.068-.38.177-.558.25-.173.07-.395.142-.533.202l.052.115zm2.425-1.135c.665-.36 1.122.212 1.41.753.295.532.384 1.334-.182 1.638-.592.324-1.085-.154-1.353-.65-.362-.66-.42-1.44.125-1.74m1.326 2.55c.723-.39 1.035-1.195.606-1.98-.46-.847-1.33-1.107-2.057-.71-.72.388-.978 1.217-.55 2.014.427.762 1.297 1.062 2 .677m1.396-2.604l.15-.113c.317-.23.576-.223.87.177.22.298.195.62-.083.83-.1.062-.147.085-.187.112l-.75-1.006zm.184 1.078c.184.25.062.345-.034.422l-.054.037.076.105c.096-.074.276-.232.468-.373.187-.136.346-.233.513-.357.39-.286.656-.657.3-1.136-.225-.306-.548-.357-.87-.276l-.104-1.26c-.022-.206.016-.294.146-.425l-.07-.1c-.108.077-.192.163-.296.238-.102.07-.21.13-.304.203.013.518.07 1.033.157 1.572l-.203.152-.532-.72c-.196-.262-.086-.356.053-.466l.06-.035-.08-.1c-.172.128-.343.277-.52.405-.152.11-.308.205-.464.32l.082.1.054-.04c.112-.088.26-.11.355.016l1.267 1.72zm3.185-2.58c.218.208.13.317.02.43l-.026.03.09.09c.11-.125.24-.29.405-.464.157-.17.3-.304.405-.414l-.094-.086-.032.035c-.1.113-.21.228-.432.018l-1.068-.983c-.386-.368-.536-.746-.163-1.15.346-.377.755-.303 1.174.082l1.048.97c.228.204.133.32.042.415l-.055.057.093.086c.106-.115.2-.24.31-.354.103-.113.21-.208.32-.32l-.098-.088-.05.062c-.077.074-.175.18-.4-.02l-.988-.913c-.697-.647-1.21-.492-1.6-.072-.503.548-.566 1.052-.01 1.565l1.107 1.025zm1.95-5.103h.007l1.305.888c.28.195.202.405.134.5l-.046.07.103.072c.107-.15.19-.306.292-.456.092-.13.193-.25.283-.384l-.106-.07-.035.047c-.086.136-.22.266-.632-.017l-1.583-1.075c-.12-.08-.24-.17-.337-.258l-.084.12.88 3-1.432-.973c-.307-.205-.377-.326-.205-.576l.04-.054-.11-.07c-.09.137-.17.285-.265.423-.1.142-.213.277-.31.426l.1.07.033-.045c.15-.223.357-.18.64.012l1.464.99c.186.136.21.368.11.51l-.024.038.096.072c.09-.117.162-.25.245-.378.063-.09.14-.178.212-.272l-.77-2.61zm-.29-.916l.026-.05c.066-.12.15-.245.35-.14l1.944 1.038c.194.103.142.244.074.365l-.027.042.112.064c.066-.132.17-.348.255-.512.084-.17.21-.366.295-.527l-.105-.062-.03.05c-.068.12-.152.244-.342.14l-1.947-1.038c-.19-.1-.138-.24-.074-.362l.026-.048-.11-.062c-.09.164-.183.378-.28.55-.09.164-.207.358-.275.49l.108.06zm3.51-1.066l-.03.085c-.058.13-.14.16-.187.138-.024-.006-.077-.043-.116-.084l-1.47-1.324.003-.005 1.847.1c.14.007.206.032.232.044.115.046.087.16.04.283l-.03.06.12.046c.05-.125.086-.268.15-.42.047-.11.113-.217.153-.322l-.115-.05-.01.032c-.03.068-.07.13-.22.137-.06.008-1.712-.064-2.448-.098-.157-.01-.302-.004-.45-.013l-.054.13 2.06 1.913c.148.142.15.235.092.393l-.018.037.124.047c.075-.182.13-.374.21-.558.076-.174.186-.418.235-.528l-.12-.044zm-1.915-2.414l.016-.05c.033-.134.096-.27.302-.21l2.125.585c.213.06.19.208.148.344l-.01.046.123.037c.06-.223.152-.622.236-.935.088-.313.216-.69.287-.946-.18-.042-.44-.122-.62-.18l-.065.103c.26.09.463.195.35.585l-.145.516-1.06-.292.127-.445c.064-.22.214-.228.433-.193l.037-.115c-.166-.032-.32-.074-.478-.12-.156-.04-.306-.087-.46-.136l-.058.1c.24.09.39.148.324.406l-.123.45-.943-.266c-.266-.072-.206-.288-.14-.525.13-.447.208-.637.7-.62v-.117c-.225-.005-.45-.025-.677-.048-.065.24-.165.67-.258 1.01-.09.332-.237.768-.294.984l.125.03zm2.104-2.805l.026-.188c.057-.382.245-.568.737-.495.37.056.577.307.525.652-.014.112-.035.16-.047.213l-1.24-.184zm.89.63c.31.044.298.198.276.32l-.007.067.12.02c.02-.124.036-.367.074-.598.03-.23.072-.41.102-.61.076-.485-.005-.932-.6-1.02-.372-.055-.632.14-.804.425l-.963-.81c-.165-.135-.202-.216-.198-.41l-.125-.02c-.013.13-.013.254-.04.378-.018.12-.052.24-.068.36.375.354.788.674 1.225.994l-.032.25-.892-.132c-.32-.046-.31-.187-.288-.36l.017-.07-.128-.02c-.035.222-.05.445-.083.66-.027.186-.07.36-.095.554l.123.017.007-.068c.022-.144.115-.262.267-.24l2.11.31zm.207-4.055c.27.055.533.22.52.488-.013.304-.215.464-.546.458-.693-.022-.444-1.174-1.45-1.215-.578-.016-.898.418-.914.912-.007.215.07.425.164.616.222.03.43.06.64.09l.03-.107c-.358-.06-.66-.25-.648-.62.01-.266.2-.473.494-.46.743.026.47 1.15 1.482 1.186.544.018.882-.327.9-.828.007-.104-.034-.438-.043-.55-.2-.013-.398-.037-.602-.064l-.026.095zm-2.183-.42l-.002-.048c-.003-.14.006-.287.23-.3l2.198-.088c.217-.007.24.134.243.272v.055l.137-.006c-.006-.15-.034-.388-.043-.568-.007-.194 0-.426-.01-.608l-.125.002.006.056c.002.14-.013.29-.232.3l-2.197.087c-.217 0-.246-.135-.25-.276l-.006-.048h-.12c.01.19.03.417.044.604.005.2 0 .425.005.572l.12-.005zm2.498-1.975c.036.288-.037.308-.333.408l.017.11c.12-.03.23-.06.347-.09.113-.034.23-.055.35-.07l-.013-.093c-.13-.014-.138-.11-.15-.214l-.276-1.973c-.013-.105-.022-.2.097-.223l-.024-.092c-.11.033-.22.06-.33.092-.107.024-.226.037-.338.05l-.032.123c.16-.013.41-.03.44.228l.092.627-2.216.306c-.32.048-.375-.082-.4-.27l-.01-.07-.124.016c.02.15.074.416.104.623.03.23.048.504.07.65l.123-.016-.01-.073c-.028-.21-.02-.322.308-.364l2.223-.31.086.628zm-1.942-3.075l1.316.447c.206.067.33.103.374.283l.012.04.12-.04c-.053-.194-.12-.375-.17-.574-.056-.194-.088-.376-.132-.555l-.127.03.012.048c.028.108.028.2-.04.22-.047.012-.113-.02-.15-.032l-1.013-.33.6-.663c.1-.09.156-.162.236-.18.083-.032.14.134.15.18l.024.07.116-.03c-.034-.14-.09-.277-.124-.42-.034-.118-.05-.247-.083-.36l-.12.033c.034.13-.037.26-.107.34l-.88.98-.97.257c-.342.1-.39-.01-.448-.207l-.018-.073-.12.04c.058.217.134.436.18.597.045.184.092.42.144.63l.128-.03-.012-.07c-.066-.22-.027-.327.242-.397l.862-.232zm-23.174-16.722c-.033-.232.125-.255.31-.28l.09-.013-.017-.124c-.212.03-.422.07-.638.103-.238.032-.468.05-.708.08l.028.124.078-.008c.17-.03.358-.047.39.177l.29 2.09c-.17-.052-.377-.132-.562-.194l-.046.134c.165.06.36.146.553.24.19.108.364.2.477.263l.11-.017-.355-2.577zm1.58-.407c.255-.01.43.178.444.448.017.41-.31.572-.578.765-.205-.12-.33-.36-.34-.623-.013-.326.17-.582.473-.59m.248 1.535c.187.126.314.367.332.602.007.296-.143.566-.418.58-.22.01-.425-.204-.43-.44-.022-.387.247-.577.516-.74m-.47-.266l-.05.04c-.24.19-.397.42-.38.783.04.615.533.797.86.777.367-.023.706-.263.685-.712-.012-.338-.29-.573-.562-.69.3-.162.554-.427.533-.82-.03-.515-.444-.82-.88-.802-.372.025-.8.258-.77.73.016.398.248.575.562.695m2.902.235c-.086-.184-.31-.362-.548-.375-.447-.025-.682.348-.705.764-.034.555.392.953.876.98.586.038.93-.482.963-1.07.053-1.015-.86-1.817-1.694-2l-.065.11c.776.244 1.34.92 1.29 1.83-.017.313-.18.998-.582.974-.28-.015-.388-.264-.372-.54.023-.323.23-.712.546-.69.13 0 .185.05.275.123l.017-.107zm2.26-.943c.032-.233.186-.205.374-.18l.085.016.026-.122c-.22-.036-.433-.06-.647-.092-.23-.036-.455-.084-.69-.122l-.023.13.087.002c.17.034.348.064.32.288l-.333 2.084c-.143-.102-.318-.235-.477-.34l-.08.103c.137.11.304.253.453.39.153.158.304.298.383.395l.11.018.41-2.57zm13.222 8.72c0-.057.047-1.12.047-1.12s-.59.905-.61.948c-.052-.016-.996-.366-.996-.366s.63.818.66.852c-.025.046-.607.853-.607.853s.925-.365.968-.385c.033.04.663.86.663.86s-.097-1.003-.105-1.052c.053-.02 1.063-.363 1.063-.363s-1.025-.22-1.082-.226m-2.344-2.56c-.005-.06-.134-1.112-.134-1.112s-.432.987-.447 1.03c-.056-.008-1.046-.2-1.046-.2l.79.736c-.02.046-.463.94-.463.94s.86-.51.897-.538l.792.747-.28-1.032c.053-.02.997-.513.997-.513s-1.048-.057-1.105-.057m-2.722-2.158l-.318-1.073s-.26 1.045-.274 1.09c-.053 0-1.06-.03-1.06-.03s.857.576.9.6c-.02.052-.31.997-.31.997s.767-.63.797-.67c.038.03.9.61.9.61l-.43-.973c.04-.033.893-.674.893-.674s-1.045.115-1.098.122m-29.04 4.555c-.004-.053-.044-1.11-.044-1.11s.582.91.61.948c.05-.02.995-.37.995-.37s-.627.825-.66.854c.03.045.605.847.605.847s-.922-.355-.967-.38c-.03.043-.662.86-.662.86s.102-1.005.106-1.058l-1.06-.353s1.022-.226 1.078-.24m2.346-2.556c.005-.057.13-1.11.13-1.11s.428.987.454 1.03c.05-.005 1.043-.204 1.043-.204s-.756.713-.794.74l.464.934s-.855-.496-.895-.528c-.03.035-.793.742-.793.742s.26-.977.276-1.028c-.052-.023-.993-.52-.993-.52s1.05-.055 1.106-.055m2.723-2.154c.012-.053.313-1.073.313-1.073s.263 1.044.278 1.092c.052 0 1.06-.033 1.06-.033s-.862.58-.897.6c.01.048.31 1 .31 1s-.768-.637-.805-.67c-.04.024-.902.607-.902.607l.437-.967c-.046-.04-.89-.674-.89-.674s1.042.107 1.096.116"/>
    <path fill="#fff" d="M64.183 142.05c.017-.017.028-.034.045-.047-.016.017-.027.036-.044.046m-.332-4.76l-.02.56c.005-.128.008-.448.02-.603v.044zm-.152-3.612c0 .014.007.058.02.154-.02-.048-.028-.096-.02-.154m0-.01v.01-.01zm3.71 5.717c.164-.014.053.182.096.286-.117.115-.015.355-.216.38-.04-.207.065-.44.028-.665h.092zm.24-.04c.104.02.064.086.114.146-.01.06-.074.11-.148.093-.11-.05-.026-.198.033-.237m-.06.64l.086.027c.062.074.024.168-.027.24.08.252-.274.252-.21.486-.1.167-.276.225-.335.406-.088.06-.263.024-.234-.12.098-.207.218-.35.42-.483.016-.142.464-.302.3-.557m-.748.935c-.035.134-.4.25-.358 0 .04-.137.184-.146.293-.18l.065.18zm-.22.457v.09c-.06.094-.19.187-.35.14l-.025-.085c.107-.097.258-.18.376-.145m-.766.263l-.1-.12c.163-.053.295-.362.49-.313-.036.184-.27.34-.39.433m3.75.407c.084.104.04.286 0 .405-.108.085-.334.26-.375.06.117-.154.106-.53.375-.465m-.648.318h.09v.066c-.035 0-.09-.016-.09-.065m-.03-.286c.085-.072.092-.16.157-.23.073.036.198.107.145.23.028.183-.302.153-.302 0m-.352.398c.056-.048.134-.145.206-.085.065.25-.11.548-.294.716-.202-.183.238-.356.088-.632m-1.622.675c-.15.205-.338.385-.6.336v-.086c.397-.138.128-.682.55-.682.15.08.087.297.05.43m.484.146c-.05-.172-.154-.3-.122-.497.058-.103.188-.09.272-.138.244.072.01.29.087.447-.062.107-.103.204-.237.188"/>
    <path fill="#fff" d="M66.304 143.924c.05-.147.12-.205.265-.25.272-.185.487-.468.595-.764.05.043.05.09.085.118-.092.19-.16.367-.232.558-.113.28-.438.402-.714.338m.238-1.16c-.295.2-.16-.217-.36-.313.05-.056.107-.085.173-.116.078.118.25.24.187.43m.563 2.036l.144-.433c.08 0 .16-.014.19.06.014.168-.2.3-.335.373m1.558 3.852c.12-.125.12-.353.296-.403.055.11-.064.23-.03.375-.008.133-.24.18-.267.027m-.862.49c.1-.132.25-.215.455-.252.014.037.087.058.087.11-.14.132-.338.24-.54.266v-.125zm-.695.23c.157-.045.35-.24.485-.167-.024.09-.084.156-.18.203-.16-.02-.342.074-.505.108l.2-.143zm-.893.328l-.03-.184c.343-.177.398-.797.875-.684-.215.35-.44.762-.845.868m-.393-.264c.087-.142.01-.39.232-.4.12.047.16.105.16.23-.04.14-.27.4-.393.17m-.172-.58c.032-.05.083-.06.145-.06.05.024.01.084.026.117.037.147-.285.113-.172-.058m.023.35c.073.048.118.122.087.203-.053.15-.148.352-.328.377-.206-.19.153-.303.087-.518.04-.046.092-.076.154-.062"/>
    <path fill="#fff" d="M65.155 149.436l-.02-.11c.22-.136.02-.447.294-.532.374.142-.075.33 0 .533-.023.118-.155.118-.275.11m-.347.7c-.217-.17.12-.33.15-.47l-.15-.09c0-.06-.03-.132.054-.17.055-.01.106 0 .146.06-.167.257.32.187.215.462-.106.153-.265.18-.415.206m-.332 1.038c-.117.035-.193.074-.306 0l.066-.06c.077-.06.215 0 .24.06m4.22.085c.088-.022.252-.06.326.032l-.425.44c-.052 0-.107-.015-.148-.06.083-.136.077-.304.247-.413m-.784.582c0-.11.098-.2.213-.2.13.112-.016.258.023.407-.263.14-.36.474-.687.463.088-.217.412-.383.45-.67m-.112.032c-.07.095-.21.304-.423.232-.16-.112.063-.16.086-.265.112-.076.276-.112.338.033m-1.703.315c.085 0 .115-.172.228-.108.065-.028.12.025.097.085-.08.08-.302.19-.325.023"/>
    <path fill="#fff" d="M65.43 153.116l-.023-.02.086-.1c.364.014.295-.458.666-.432.098-.28.42-.33.593-.58.226-.218-.1-.747.265-.81.11.194.05.468.062.7-.038.194-.426.327-.364.542.205.04.225-.168.426-.143.074.166-.124.29-.237.412-.524.083-.912.463-1.476.43m.24-.455c-.263-.06-.24.364-.476.193.08-.13.162-.253.213-.398.085-.143.248-.06.35 0 .047.122-.06.11-.086.205m-.985.69c.086-.125.244-.11.324-.17.06-.027.108.035.1.083-.077.12-.33.275-.425.086m-1.02.844c-.008-.276.067-.53.12-.76.067.01.14-.01.172.058 0 .046.037.1-.02.124.045.034.02.14.124.106-.04-.24.163-.46.264-.606.127-.007.225-.092.336 0-.11.233-.247.452-.274.705-.215.18-.43.496-.72.374m3.744.375c.053.048.005.13.053.17-.04.154-.29.313-.383.204.21-.096.06-.352.33-.375m-.904.64c-.047.155-.275.18-.453.208v-.1c.178 0 .272-.218.453-.107m0-.618c.11.05.057.157.063.24-.103.174-.422.306-.54.052.163-.097.228-.35.476-.292m-1.162.785l.027-.02c.113.07.3-.04.388.084-.087.142-.387.108-.414-.063m-.236-.58c.073-.057.198-.117.3-.057v.266c-.052.105-.133.167-.274.14l-.026-.35zm-1.746 1.428c.146-.11.19-.256.357-.27.204-.25.527-.373.73-.598.174-.136.225-.58.536-.474-.068.614-.75.905-1.23 1.133.108.267-.276.39-.394.21m2.395.4v.238l-.175.03c.014-.114.014-.32.175-.268m-.328.094v.048c-.1.097-.124.286-.296.266v-.086c.11-.046.123-.322.295-.228m.128.438c.04.117-.166.203-.252.31-.172.095-.312.275-.534.29-.013-.457.572-.278.786-.6m-.898-.293c.1.01.086.122.086.19-.038.072-.113.065-.19.065.028-.085-.046-.246.104-.255m-.104.604c0 .07.036.156-.025.2-.26.03-.206.41-.51.356v-.1c.293-.086.278-.385.536-.457m-5.285-.955v-.058l.023.017-.022.04zm.535.458c-.127-.07-.32-.145-.32-.31.01-.037.046-.037.085-.037.07.114.313.218.235.347m.025.346c-.26-.008-.476-.194-.538-.427h.127c.11.202.397.19.41.426m.85.5l-.04.02c-.148-.11-.45 0-.51-.203.16.106.484-.04.55.184m-.34-.785c-.11.42.5.108.454.52-.187-.03-.417-.122-.604-.235.078-.152-.12-.255-.06-.37.1-.012.187.013.21.085m.99 1.01c-.09.15-.213-.008-.3-.077-.016-.064-.103-.127-.028-.184l.327.262zm.362-.374c0 .126.033.278-.15.257-.115-.063-.15-.238-.09-.37.123-.087.184.03.24.114m-2.612-5.446c.088 0 .088.1.126.145-.05.025-.097.025-.148 0 .01-.047-.026-.12.022-.146m.213.544c-.038-.083-.124-.23.038-.286.112 0 .23.07.264.178.075.154.363.303.3.456-.35.21-.392-.205-.6-.348m.96.52l-.087.18c-.085-.014-.1-.108-.085-.18.058-.062.122-.025.17 0m-1.923-2.655h-.148c.025-.086.125-.03.147 0m-.645-1.838c.096-.037.25.025.3.142-.065.11-.18.09-.273.098.014-.107-.18-.145-.027-.24m.258.64c.09.01.117.08.152.143-.035.06-.11.026-.175.04-.075-.014-.115-.136-.062-.182h.085zm.49.265c.122-.06.288.074.35.21-.1.067-.318.152-.39-.04.015-.064-.024-.133.04-.17m.325.81c.074.01.213.075.176.17-.12.145-.28 0-.35-.047-.064-.136.1-.122.174-.122m.384-.146c-.075.03-.208.1-.17-.062.07-.024.108.05.17.062m0 .315h.09c.04.022.04.06.04.096-.065.022-.115-.05-.13-.097m-.17-3.273v-.147l.146.12c-.038.048-.1.013-.147.027m.56.43c.013-.06-.008-.128.065-.165.146.01.26.118.298.252-.116.135-.28.034-.362-.086m.787.232c.037-.085.135-.035.212-.048.15.122.126.35.084.518-.383.23-.283-.28-.297-.47m.536-.145c.288.193.074.567.18.82-.092.04-.02.23-.18.168-.124 0-.012-.13-.086-.168-.025-.205.102-.57-.064-.787l.15-.033zm.238 1.135c-.036-.133.065-.34.15-.408.114.02.114.143.13.238-.016.11-.14.22-.28.17m.24-.956c.075.062.15.134.12.232-.033.076-.11.06-.174.06-.096-.07-.046-.193-.06-.292h.113zm.246 1.453c-.074.062.027.263-.148.203-.152-.166-.114-.48-.037-.677h.124l.062.474zm-5.07-5.672l-.123.103-.083-.21c.076-.075.188.012.207.107m-.27-.27c-.27.15-.24-.16-.35-.27.21-.128.322.122.35.27m-1.1-2.385c.11.064.078.17.09.27-.04.07-.115.048-.187.06-.126-.038-.126-.16-.116-.266.04-.1.14-.052.212-.064m.2 1.135c.066.04.08.086.066.147-.04.11-.226.048-.238-.06.05-.038.063-.12.17-.087m-.047-.263c-.04-.094-.072-.267.024-.347.168 0 .14.174.215.266-.024.094-.164.153-.238.082m.778.35c.033.074-.068.085-.097.122-.108-.014-.082-.095-.082-.18.06 0 .136-.014.18.058"/>
    <path fill="#fff" d="M55.672 142.333c.015.025.027.046.062.032l.05.52h.036c.015.068-.02.134.03.164.058-.06.022-.19.036-.286.136 0 .186-.228.35-.19.064.123.02.275.1.4l.046-.15c.105-.014.166.025.216.085.077.065 0 .128-.06.176-.13.04-.178-.058-.238-.11-.076.034-.043.1-.09.133-.112.107-.214-.045-.302-.082l-.057.08c-.27.03-.325-.285-.415-.446.065-.15.212-.173.237-.33m.903 1.157c.32.17.408.508.45.783-.468.124-.263-.446-.488-.637-.03-.036-.063-.147.038-.147m.595 1.052c.155 0 .33.205.393.348-.166-.01-.288-.108-.43-.203.013-.053-.022-.124.037-.145m1.012-.27c.05.05.124.096.1.183-.05-.012-.1.025-.127-.03-.03-.043-.06-.152.027-.152m-.323.52c-.087-.02-.2-.16-.148-.19.334-.098.348.385.745.25-.262.154-.324-.166-.598-.06m.534-.956c.15-.08.305.03.305.184-.026.075-.116.1-.214.092-.053-.09-.117-.158-.092-.275m.19.705c.01-.1-.215-.207 0-.23.047.023.144.07.115.168.007.072-.08.062-.116.062m.23.348c-.056-.037-.14-.143-.085-.203.078.06.19.095.242.166-.038.064-.103.027-.157.037m.39-.555c.125-.033.14.048.237.09.088-.063-.082-.184.06-.26.075.014.2-.046.24.05 0 .168-.136.276-.084.472h-.064c-.11 0-.11-.112-.152-.182l-.06.058c0 .064 0 .133.037.184-.1.132-.287 0-.302-.12-.052-.136.077-.184.088-.292m.722 1.08c.076.03.173.107.173.202-.007.094-.12.06-.172.11-.152-.027-.11-.168-.152-.255.04-.058.09-.074.152-.058m-.098-.81v-.33h.098c.053.038.065.088.053.15.024.118-.052.15-.15.18m.27.518c.138.22-.218.205-.27.023.013-.035-.026-.094.036-.108.09-.012.175 0 .235.085m.514.98c.18-.04.267.153.362.266-.05.058-.107.083-.182.083-.137-.063-.213-.195-.18-.35m.54-.665c-.028.23.2.567-.123.666-.054-.087-.2-.135-.15-.253.383-.195-.078-.498-.086-.702h.087c0 .134.174.218.275.29m-3.503-7.102c.148.085.33.255.214.438-.25.045-.31-.216-.356-.377.033-.05.082-.07.142-.06m-.023.868h.15c.11.06.225.17.2.29-.05-.012-.102.013-.15.027-.098-.06-.273-.19-.2-.316m.35-.748c.025-.033.06-.033.1-.033.062.013.148.07.084.14-.15.053-.083-.07-.183-.108m.36.875c-.087.076-.176.076-.26 0-.075-.16.095-.145.173-.186.088.014.098.11.088.187m.45-.72c-.025.052-.05.073-.115.103-.108-.014-.175-.074-.18-.168.08-.05.258-.05.294.064m-.09.72c-.058.034-.046.192-.172.146v-.29h.088c.072.02.098.046.084.145m-.214.747c.058-.01.085.023.12.06-.16.315.328.37.39.605-.015.034-.05.034-.093.034-.157-.173-.546-.4-.417-.7m.695.493c-.09-.136-.3-.177-.21-.314.07.11.313.098.322.29-.022.045-.07.01-.11.024m.2.207l.037.433-.15.023-.088-.35c.064-.037.1-.155.2-.106m.15 1.183c-.187.04-.21-.122-.24-.25h.063c.088.064.223.105.176.25m.363-.145c-.037.22-.027.34.035.553l-.215-.205c.092-.47-.33-.723-.182-1.22.21-.107.084-.35.128-.517h.055c-.08.192.18.302 0 .457.092.327-.055.557.117.826 0 .034-.013.116.063.106m.088-.02l-.087-.036c.024-.234-.027-.427-.063-.632.036 0 .077 0 .098-.038.154.157.076.484.053.705m.102-.81c-.226-.073-.164-.29-.216-.438.04-.11.166-.037.216.025-.05.157.283.354 0 .412m.17.606v.12h-.085c-.015-.065 0-.157.086-.12m.212.46c0 .3.403.08.415.348.06.095.022.19-.028.268-.058.023-.1-.05-.15-.063-.16.165.166.21.092.428-.18-.018-.302-.19-.33-.366.04-.283-.188-.502-.188-.734l.19.12zm.715-.61c.037.036.096.063.096.125-.013.153-.308.153-.3.025.056-.086.08-.17.204-.148m6.946-11.9h.023c.138.092.224.19.3.274-.038.102-.145.19-.26.18.012-.163-.08-.328-.064-.453m-.172.422c-.067.108-.216.16-.34.174v-.348c-.064-.157-.102-.373-.296-.42 0-.033 0-.075.037-.088.195-.077.457-.015.557.172-.212.19.18.31.042.51m-.75-.358c.126.05.103.125.172.21.13.27-.182.387-.383.322.087-.058.2-.198.17-.304-.048-.004-.083.03-.107.07-.1.036-.185.197-.28.09.15-.09.165-.41.428-.388m-.49.507c-.06.135-.09.32-.255.368l-.07-.095c.015-.184.19-.286.325-.274m.296-.918c.022.288-.247.477-.41.638-.21.106-.298.437-.568.45-.05-.065-.12-.074-.088-.15.358-.257.705-.59.892-.995.06 0 .136-.017.175.057m-7.988.21c.16-.087.435-.087.592 0 .138.395.598.524.955.644.386.407.965.232 1.33.453.028.153-.03.29-.142.407-.187-.012 0-.226-.173-.264-.087.073-.203.106-.167.257l-.132-.133c.002-.404-.405-.17-.5-.457-.52-.444-1.29-.308-1.787-.798.012-.04-.025-.125.022-.11"/>
    <path fill="#fff" d="M60.066 130.168c-.306.134-.592-.125-.923-.125-.18-.273-.61-.183-.67-.5l.294-.018c.376.286.806.548 1.3.643m1.383 1.41h-.214c-.258-.238-.07-.704-.377-.887l.207.052c.247.046.05.276.21.412-.15.24.222.207.173.424m-.603-.525c-.02.207.173.332.148.53-.462-.198-.354-.84-.673-1.22.023-.043.062-.086.108-.06.162 0 .2.15.21.253-.17.232.186.262.15.44-.012.036.024.07.057.057m2.174 10.738h.11c-.028.29.018.492-.035.784-.22-.037-.108-.304-.168-.435 0-.132.103-.22.094-.35"/>
    <path fill="#fff" d="M63.27 133.802c.22.737.088 1.554 0 2.284-.124-.023-.104-.25-.193-.295l-.05.02c.153.307-.152.604.05.866l-.116.11c-.036-.085-.002-.222-.005-.315-.214-.31.03-.692-.214-.952-.04.198-.04.453 0 .652-.03.485.268.743.337 1.19.025.168-.116.468.037.602-.037.114.127.49-.153.49-.07-.176.11-.408-.16-.468-.012.025-.036.037-.025.06.15.408-.224 1.065.186 1.435.08-.21-.098-.358-.005-.597.073.036.137.093.203.204.07-.168-.12-.325 0-.49h.022c.147.18.236.44.236.714h-.11c-.023-.078-.065-.174-.148-.2l-.044.026c.29.518.445.965.357 1.67h-.164c.012-.24-.023-.44-.084-.634-.267.274.122.61 0 .885-.12.04-.183-.097-.194-.17-.003-.32-.07-.63-.166-.92 0-.166-.197-.212-.272-.31l-.025-1.06c-.088-.042-.074 1.054.025 1.517.368.405.036.896.15 1.373.024-.177.074-.346.184-.49.394.386-.272.658 0 1.103-.033.078-.062.18-.124.25-.16-.108-.076-.322-.123-.538-.012-.106.17-.17.064-.263-.063.02-.15.092-.213.02-.083-.103.063-.347-.114-.398l-.035.027c-.122-.084-.194-.227-.148-.394-.16-.155-.06-.34-.106-.49.046-.05.01-.202.144-.144.1.322.16.562.176.924.12-.185.12-.445.12-.636-.43-.373-.16-1.078-.233-1.554-.1-.13-.05-.25-.043-.42-.29-.205.353-.598-.2-.705 0-.035-.04-.1.022-.118.074 0 .158.058.17.12.015-.102.028-.237.035-.387.008-.132-.13-.247-.145-.38-.008-.124-.07-.175-.11-.284h.088c.073.047.082.117.12.183-.012-.295-.11-.656-.038-.978-.12-.192-.2-.417-.296-.622.04-.09-.073-.288.096-.26.217.227.377 1.167.48 1.02-.03-.338-.204-.903-.097-1.205.35-.034.052.367.264.47l.064-.055c.024-.113-.04-.186-.063-.272-.05-.36.11-.927.098-1.358.327.15.087.7.186 1.04.142-.257.117-.64.154-.956.083-.022.108.04.156.066"/>
    <path fill="#fff" d="M61.99 136.113c-.036.078-.115.066-.18.066v-.173h.088c.027.034.092.06.092.106m.297 8.2c-.098.13-.185 0-.234-.098.037-.05.086-.06.147-.05.025.04.127.076.087.147m-.297-1.302h.123v.076h-.123v-.076zm.423-.387c.072.1-.024.18-.037.263l-.15-.084c.012-.08-.027-.18.037-.228.064-.015.113 0 .15.05m-.086 1.98c.186.044.196.403.263.624-.077.028-.113-.035-.177-.046.064-.244-.15-.4-.086-.578m-.15 3.9h-.064l.027-.047c.013.01.036.02.036.048m.024.762c-.074-.035-.06-.11-.06-.184h.124c.063.06.023.17-.064.184m-.126-2.068h.102c.102.276.062.64.023.93h-.087c-.2-.266-.023-.617-.04-.93m.214 1.595c-.024.01-.036-.01-.062-.025h.062v.025z"/>
    <path fill="#fff" d="M62.352 147.008h.125v.142c.2.28.1.775.09 1.127-.478-.185-.24-.883-.216-1.27m.152-.386c-.062-.013-.112-.073-.088-.147-.037-.094.088-.085.152-.085.074.038.045.113.06.184-.036.024-.076.07-.124.05m.456 2.894c-.058-.237-.063-.456.138-.603.093.014.153.073.13.17-.13.184-.022.362 0 .583l-.095.18c-.235.013-.034-.252-.172-.33m.29-8.286c.123-.05.176.074.233.147.074.134-.064.59-.29.286.03-.14-.05-.322.058-.433m.232 2.936c-.033.05-.093.05-.144.085v-.137h.144v.053zm-.254-1.257c.144.2.072.53.05.764-.206-.06-.2-.376-.246-.588.047-.068.06-.225.196-.177m-.33.975v-.48c.207.012.062.29.134.416-.023.047-.072.065-.135.065m-.155 1.382c.06-.01.108 0 .155.06-.034.383.062.75-.096 1.06-.202-.335-.136-.745-.06-1.12m-.03 2.078l.03-.314c.074.11-.017.24-.03.315m.218-4.436v.2c-.09.043-.153-.035-.128-.1.037-.035.062-.1.128-.1m.235 1.305c.026.046.064.12.026.147l-.06.242c-.143.044-.11-.113-.11-.18.005-.078-.013-.258.143-.21m.063 2.757c-.064.264-.33.015-.3-.147.17-.382.03-.905.104-1.326 0-.195-.13-.34-.073-.56h.174c-.105.33.193.498.096.81.282.365-.15.764 0 1.224m0 .702c-.023.06-.078.106-.15.085-.12-.037-.05-.16-.055-.23.11-.1.206.023.206.145"/>
    <path fill="#fff" d="M62.86 148.42c-.495-.17.08-.543-.085-.956.232.1.05.46.152.666l.03-.026c.064-.025 0-.218.138-.146.228.064.078.367.13.547-.006.086-.094.166-.195.184-.182-.02 0-.222-.17-.27m-.085-3.94c-.01.083.025.195-.034.267l-.15-.205c.036-.087.15-.07.185-.062m-.252-.23l-.083-.062c-.126-.13-.064-.35-.064-.494.038-.05.05-.156.147-.108 0 .19.276.51 0 .664m.067-2.23l-.025.08-.088-.08h.113zm-.263-.265c-.076-.043-.076-.115 0-.148l.025.033c-.013.043.024.1-.025.115m1.01-4.79c-.197.06-.088-.226-.206-.276v-.36h.058c.045.038.045.083.088.124-.027.18.17.322.06.51m-.24.146v-.095l.035.033c.01.03-.027.04-.034.062m.067.067c.07 0 .152.032.2.113-.1.073-.214 0-.2-.113m.29-3.906c-.03.065-.09.075-.138.065l.082-.115.056.05zm-.357.187h-.132c-.068-.295-.198-.49-.102-.83h.096c.067.038.205.11.173.233-.172.168.104.378-.034.597m-.356-2.367c.16-.168.155-.597.423-.532l-.302.387c-.024.2.147.332.235.45-.168.022-.372-.118-.355-.305m.596-.956c.117.066.144.25.087.36h-.06c.084-.146-.144-.217-.027-.36m.027 1.085c-.064-.084-.232-.19-.174-.362.263-.076.11.252.263.318-.023.043-.056.043-.09.043m-.485-1.105c-.21-.018-.343.2-.504.207.06-.22.356-.27.413-.525.05-.234-.077-.396-.118-.59.07-.052.208-.052.26.058-.032.177.225.398 0 .555.112.113.157-.067.273-.023.036.18-.283.108-.325.318"/>
    <path fill="#fff" d="M62.502 129.427c.088 0 .074.1.124.154-.114.022-.2-.073-.25-.13l.126-.023zm-.277 1.518c.038.19-.05.347-.15.45-.224-.17.05-.337 0-.536.078-.035.1.062.15.085m.298 1.533c.028-.362-.285-.65-.384-1h.06c.24.316.39.703.452 1.048-.062.026-.086-.023-.13-.048m-.346 2.085c-.102-.147-.05-.327-.21-.447.21-.12-.04-.322.024-.507h.15c.123.134.036.36.147.506-.036.157.103.447-.11.447m-.187-2.236c.15.187.31.41.235.645-.248-.042-.235-.458-.327-.645h.092zm.235 1.043c.038-.06.102-.025.15-.035l.038-.446h.088c.11-.013.14.125.21.183 0 .223-.085.488-.27.596-.162-.012-.177-.187-.215-.3m.252 1.075c-.078-.154-.138-.4-.064-.603.064 0 .137-.01.177.073-.04.168.1.48-.113.53m.263-2.754l-.088-.024c-.087-.207-.44-.396-.3-.636.047.014.125-.023.15.044.048.217.272.393.238.617m.356-1.49c.053.184-.32.248-.32.488-.077.07-.164.163-.274.145.15-.21.288-.566.594-.633m-.683.443c-.037.055-.086.076-.15.066v-.127c.064-.025.102.05.15.06m-.487 2.33c-.262.014-.3-.286-.35-.47.04-.05.088-.066.15-.066.25.054.138.402.2.536m-.262-1.754c.373.18.326.662.623.858.153.25-.123.207-.234.127-.163-.127-.178-.323-.242-.48-.06-.165-.11-.377-.234-.485.026 0 .06.02.088-.02m-1.776-2.02c.42.67 1.26.34 1.762.842.16.048.393.01.503.147-.414.23-.83-.06-1.236-.088-.322-.385-.906-.29-1.177-.758-.038-.11.037-.18.148-.143"/>
    <path fill="#fff" d="M60.693 128.745c.16-.122.407-.043.557.05.89.014 1.697.127 2.61.127.09.088.282.15.208.357-.19.07-.33.333-.604.234.03-.18.318-.147.304-.326-.23-.178-.407.19-.66.18l-.025-.18c-.084-.116-.242-.266-.44-.205-.295.308-.617-.072-.918-.093-.38.345.3.286.388.497-.048-.01-.076.04-.122.04-.37-.136-.74-.21-1.098-.383-.023.028-.076.062-.05.106.518.2.916.707 1.57.594-.175.263-.5.152-.744.085-.27-.443-.753-.116-1.094-.38-.09-.16-.322-.187-.474-.3-.075-.368.444-.128.593-.405m3.51 1.145c.036.122-.055.11-.118.207.048.187-.378.37-.065.468.258-.097.21-.574.5-.504l-.08.27c.015.172-.32.235-.146.412l.175-.154c.105-.023.01-.17.177-.118l-.037.065c.062.33-.685.42-.29.765l-.09.04c-.305-.23-.338.25-.564.383.08.1.146 0 .246 0v.117c-.047.14-.205.275-.358.266-.03-.098.065-.26-.097-.266l-.12.415c-.083.016-.108-.087-.168-.128-.206.227.3.35.15.596-.16-.026-.16-.258-.362-.298-.1-.07-.17-.283-.06-.41.55-.13.822-.62 1.058-1.09.156-.347-.445-.38-.313-.572.023.065.064.027.114.037.055-.06.135-.106.155-.18-.227-.014-.192-.32-.4-.32.086-.138.27-.172.4-.15.013.02-.02.037-.033.064.016.155.216.05.324.086"/>
    <path fill="#fff" d="M63.757 130.945c-.1-.012-.09-.12-.09-.212h.117c.08.06 0 .152-.027.212m.602-2.172l.167.505c0 .207-.244.225-.37.297l.167-.208c.084-.202-.12-.357-.168-.54.055-.033.115-.084.203-.054m1.514.507v.106l-.124.13c-.223.146-.444.526-.703.356l.297-.21c-.014-.034.025-.096-.038-.126-.19-.02-.408.117-.532.274-.095.02-.247-.025-.316-.148.07-.156.24-.11.354-.212.38.035.728-.158 1.062-.17m-.915.987c.108-.02.123.117.108.162.015.13-.158.153-.236.106 0-.078-.01-.25.127-.27m1.28-1.016h.162c-.14.466-.605.792-.96 1.078-.077-.02-.226-.078-.137-.207.327-.248.663-.53.935-.87m-.242 1.232c.097.14.184.295.142.48-.152.082-.11.393-.366.287.033-.16.033-.317 0-.505.13-.102.097-.23.224-.263m-.35.16c-.05.077-.018.23-.156.217-.12-.077-.024-.205.025-.277.065-.014.092.03.13.06m-.222.5c.138 0 .125.164.125.285-.125.12-.293.41-.473.256.11-.182.315-.24.267-.497.026-.017.035-.058.08-.044m-.23-.007v.168c-.04.078-.186.143-.207.035.06-.08.097-.204.207-.204m-.303-.343c.528.186-.36.412-.06.838-.072.2-.225.386-.444.395-.23-.382.17-.486.298-.785-.05-.196.178-.283.207-.447m-.654 1.77c0 .2-.216.21-.355.233.208-.335.64-.522.93-.718-.038.297-.396.276-.574.486m-.08-.746c.18.198-.083.362-.136.536-.21.06-.32.244-.512.32-.11-.372.553-.46.648-.856m-.603 4.9c.104.195.203.37.112.573-.024 0-.057 0-.08.033-.156-.21-.133-.4-.105-.605h.073zm0 1.186c.064.044.088.104.088.173-.055.09-.225.082-.278-.033.09-.036.067-.165.19-.14m-.19.576c.034-.048.09-.06.146-.06.087.025.125.122.11.202-.166.123-.19-.08-.256-.142m.63 2.545l.028.205c.023-.157.203-.277.303-.373.11.05.11.108.152.207-.152.166-.31.408-.32.665-.082.18-.23.025-.344.025-.08-.194.263-.378.183-.548-.047.048-.094.11-.182.087-.027-.052-.11-.07-.09-.15.036-.12.172-.19.273-.12m.692-.23c.086-.034.244-.07.302.063-.078.108-.24.168-.327.063.016-.05-.026-.102.025-.125m.722-.81c-.036-.08.06-.094.11-.08.018.01.052.02.04.058-.04.05-.1.01-.15.023m.775-.64c-.262.025 0-.177-.062-.286-.25-.244.205-.145.152-.37.27.202-.123.407-.09.656m-.303-.89c-.05-.036-.06-.05-.06-.12h.232v.084c-.03.06-.11.025-.173.035m.063 1.216c-.035.077-.11.05-.186.05v-.29h.122c.15.06-.048.158.063.24m-.186.464c-.014.046-.078.014-.11.02v-.08h.083c.013.023.043.035.027.06m-.148.142c-.203.046-.143.325-.387.267-.09 0 0 .182-.155.113l.065-.15c.21-.014.173-.29.36-.29.065 0 .09 0 .116.06m-.455-.555c.05.224.07.404-.108.533-.155-.166.096-.33.06-.532h.048zm-1.49 3.142c-.277-.19.055-.468.12-.702.096-.14.283-.04.4-.11-.205.23-.228.693-.52.812m1.082-.47c-.113-.254.24-.278.322-.464.064-.116.048-.332-.152-.288-.076.1-.195.195-.233.316-.22-.077-.357-.037-.456.047 0-.004 0-.006.006-.008.062-.306.284-.58.596-.643.215.064.454.085.575.288-.225.28-.264.765-.66.753m-1.027.854c.064-.094.12.02.197 0 .03.067-.064.067-.105.097l-.092-.097zm.197.447c-.065-.033-.105-.108-.036-.143.045.015.09-.022.114.036.027.09-.037.09-.077.108m.24-.93c-.07.012-.125 0-.163-.043.14-.108.093-.327.264-.438.09.012.203-.05.25.05-.047.204-.25.29-.352.432m.295.93c-.05.07-.065.143-.193.127-.057-.09 0-.206.067-.234.05.028.152.04.127.108m.21.037l-.035-.18c.146-.146.183-.333.443-.252v.085c-.11.12-.196.348-.408.348m-.402 1.618c.013-.07-.022-.166.04-.226.163-.115.25.06.294.168l.068-.518c.048.01.112-.025.15.02.12.052.12.208.108.33l-.21.35c-.135.038-.322-.075-.45-.124m.966-1.762c-.058.145-.216.28-.362.338v-.193c.107-.07.206-.202.362-.144m.424 1.207c-.066.138-.362.4-.277.06.122-.132-.047-.25 0-.373.07.083.326.134.278.313m-.19 1.575c0-.062-.017-.182.1-.148.04.023.122 0 .09.086-.04.072-.113.062-.19.062m.19-.62v.038c-.023.046-.08.01-.13.023 0-.063.107-.1.13-.063m-.04-.19c-.102-.01-.253.153-.323-.036.013-.096.107-.194.232-.23.092-.034.24-.073.302.036.012.133-.15.12-.21.232m-.563-.376c.01-.23 0-.41-.13-.62-.026-.045.042-.106.09-.082.16.062.35.216.278.437-.042.134-.08.265-.238.265m0 .98c.108-.05.12.08.147.144-.052.195-.235.278-.423.315l-.023-.088c.074-.153.062-.346.3-.37m-.75.745l-.04-.19c.23-.23.317-.53.368-.787.083-.084.06-.24.238-.183.17.17-.083.29-.116.44-.155.253-.122.658-.45.72m-.086-.456c-.045-.24.114-.52.266-.664.08.01.097.096.08.17-.156.145-.136.444-.345.495m-.216-.264c-.237-.074.08-.244-.037-.376.087-.047.087-.193.214-.145.066.083.03.217.04.326-.074.062-.085.206-.216.196m-.328 1.51c-.095 0-.033-.133-.048-.208.102-.242.247-.443.3-.747.03-.06.092-.086.17-.086.148.33-.276.51-.207.81-.054.024-.015.1-.028.145-.05.048-.105.122-.186.087m-.186-.523c.128-.12.013-.41.24-.41v.122c-.112.085.027.385-.24.288"/>
    <path fill="#fff" d="M63.48 145.373c.128-.032.044-.156.073-.228.104-.254.327-.398.56-.497.223.013.363-.433.57-.168-.007.062.025.135-.023.168-.068.135-.247.1-.362.145-.128.05-.174.17-.142.29.157.414-.355.534-.304.955-.096.134-.04.425-.3.388-.122-.348-.043-.7-.072-1.053m-.083-.31c-.194-.063 0-.28-.034-.436.233-.11.034-.532.394-.377.044-.108.123-.23.095-.327h.168c.092.256-.104.422-.21.582-.302.098-.153.433-.413.558m.664 5.186c.264-.02.3-.444.565-.238-.04.304-.414.45-.688.52.032-.062.032-.23.124-.283m-.303-.153c.253-.14.263-.43.54-.605.09.016.2-.024.26.024.103.123-.037.22-.105.29-.18.137-.365.206-.535.392-.065 0-.197.01-.16-.1m-.51 1.45c-.028-.125.076-.198.067-.31.056-.113.194-.04.24.054.102.173-.158.46-.306.256m-.538.764c.217-.1.115.19.254.253.107-.182-.037-.458.132-.605.32.17-.075.423 0 .7-.297-.122-.02.303-.235.338-.26-.145-.137-.474-.15-.686m.03-.705l.155.207c0 .095.008.205-.096.27.025-.184-.175-.39-.06-.477"/>
    <path fill="#fff" d="M63.642 150.74c-.07.107-.148.107-.245.057-.248.195-.39.412-.32.75l-.055.124c-.28-.086.055-.412-.094-.64-.03.025-.05.033-.033.06h-.12v-.23c-.135-.18-.034-.363 0-.558-.065-.144-.252-.086-.335-.086l.083.272c-.298.166-.133-.29-.347-.39l.176-.108c.16-.144-.053-.28-.025-.433.263-.29-.04-.608.15-.932.09-.01.175 0 .233.085-.02.122.055.265-.058.35-.187.17-.062.376.025.558.033-.06.088-.05.123-.102.104.22.14.474.222.7.008.014.02-.007.055-.018.054-.1.026-.24.2-.185.232.11.06.38.147.52.085.013.193-.022.242.038 0 .063.034.155-.024.17m-.546 5.858c-.066-.012-.11-.07-.074-.142.07-.01.152-.11.227-.03v.048c-.046.055-.1.112-.154.124m-.386-.058c.115-.366-.01-.847.254-1.122.113.01.24-.054.284.047-.206.228-.32.552-.284.82-.15.19-.103.58-.463.608-.124-.185.177-.194.21-.353m.03 2.44c0-.24-.255-.35-.115-.618.124.098.332.317.34.534.022.108-.152.205-.225.085m-.1-1.07c-.01-.08 0-.17.09-.225.068-.018.1.01.154.03.073.194-.13.35-.243.194m.324.574c-.006-.168-.103-.458.113-.58.063-.04.21-.07.26.023-.118.154-.174.444-.373.557m.35-.083v.107c-.087.037-.065.184-.183.145l.033-.168c0-.073.113-.122.152-.083m.468-.29c-.09.208-.025.53-.3.616-.064-.042-.105-.16-.093-.265.163-.094.15-.376.393-.35m-.753 1.05c.062-.12.04-.29.176-.35.048.096.15.113.15.23-.05.133-.264.448-.326.12m-.126.3c.402-.02-.028.25.09.413-.428.27-.036-.334-.324-.412-.028-.068.037-.114.08-.165.22-.048 0 .122.154.166m-.85-1.407l.064-.05c-.14-.16.037-.426-.153-.56h.088c.078.115.274.175.212.318.138.157-.014.435.122.583-.035.263.166.456.18.698-.266-.01-.266-.34-.412-.492-.02-.04-.03-.087-.03-.138l-.072-.3c-.05.065-.162.18-.262.085-.065-.11.1-.132.085-.225.076-.018.165.007.178.083m-2.395-3.362c-.187 0-.303-.17-.426-.29l.04-.034c.2 0 .298.168.386.325m-.064-.434c0-.11.12-.055.182-.062.08.062.13.145.152.23-.035.035-.072.07-.124.06-.102-.072-.198-.13-.21-.228m.746.54c.152.22.267.036.426 0 .115.052.175.17.15.29-.086.162-.275.06-.424.087-.216-.088-.488-.157-.6-.34.112-.093.326-.057.448-.036m.69.52c.387-.19.42.58.81.265.1.073.185.11.15.265-.08.073-.16.103-.265.09-.274-.148-.682-.282-.694-.62"/>
    <path fill="#fff" d="M61.303 154.832c.078-.072.178-.01.24.05 0 .196.094.387.15.535-.15.032-.242-.053-.322-.148.057-.185-.278-.276-.067-.438m.21-.12c-.07-.032-.062-.108-.062-.17h.093c.06 0 .08.076.12.112-.04.046-.087.072-.15.058m.328-.603c.162.048.186.215.234.337-.244.185-.307-.143-.38-.315l.147-.023zm.36 1.93c-.236-.215-.11-.623-.45-.83.042-.157-.037-.47.176-.5.287.1-.015.306 0 .463.273.122.14.408.425.495-.05.13.127.445-.15.37m.302-1.262c.033 0 .074-.016.088.02-.055.35.2.425.21.727.014.11-.148.146-.09.266-.07.01-.134.108-.208.025.01-.208.01-.507-.15-.67-.053-.15.062-.26.15-.37m.088-.436c-.15-.096-.164-.348-.238-.52-.1-.328-.074-.688-.3-.967l.087-.023c.325.267.226.52.383.844-.058.257.14.41.067.665m-.327-1.885h.064c.062.07.25.18.15.313-.15 0-.313-.157-.214-.313m-.57-.06h-.09v-.147c.06.025.11.075.09.147m-.9-.346c-.075-.045-.137-.065-.152-.15.04-.05.088-.058.154-.058.058.034.157.08.123.177-.05-.024-.077.034-.123.03m-.753-.936h.15v.06c-.05-.01-.15.035-.15-.06m-.235-.4c-.012.11-.21.145-.302.062-.084-.122-.196-.22-.148-.384.278-.062.24.262.45.322m.025-.226c-.038-.272-.36-.376-.476-.58l.065-.062c.14-.012.248.062.356.143.09.084-.064.18 0 .26.08.02.19-.04.238.052.176.122-.047.474-.184.186m.636.398c-.384-.04-.148-.375-.3-.583.038-.043.088-.053.152-.053.175.102.364.247.364.464 0 .112-.14.145-.216.172m.328-.433c.25-.06.173.214.27.324h-.088c.037-.18-.258-.156-.182-.324m1.196.84c.362-.034.047.36.273.46.103-.178.036-.34.09-.544l.087.027c-.088.456.3.76.125 1.218-.11-.133-.15-.315-.213-.437v-.084c.024-.06-.038-.106-.09-.092.065.226-.225.226-.21.47-.088.02-.127-.04-.177-.088-.183-.133.08-.156.115-.264-.026-.147.075-.445-.092-.555.043-.037.127-.037.092-.113"/>
    <path fill="#fff" d="M60.794 151.237c-.015-.072-.228-.196-.066-.295.452.016.347.496.574.728.103-.232-.122-.423-.147-.608h.084c.073.04.227.146.24.258.07-.05-.03-.17.095-.207.165.023.266.156.323.292l-.023.325c-.072-.014-.175.035-.21-.06-.123.12.1.18.027.314-.117.146-.225-.076-.322-.11-.153.096.08.217 0 .315h-.13c-.085 0-.123-.1-.15-.142-.047-.14-.15-.318-.06-.442.096-.192-.162-.298-.236-.37m.986-1.97c.12.143.146.4.095.604-.124-.064-.124-.276-.25-.402.05-.07.012-.228.155-.2m.03.93h.155c.1.21.25.348.362.578-.26-.062-.523-.352-.516-.578m.33-.474l-.15-.106c-.013-.062.024-.087.063-.126.037.016.1-.024.122.023.024.062.063.21-.036.21m-.087-3.94c.072.034.147.06.123.17-.037.082-.05.264-.186.145-.036-.098-.064-.28.063-.314m-.028-1.28c.225.128.174.41.262.616 0 .192.138.323.214.495v.34c-.475.07-.11-.46-.388-.667-.047-.12-.04-.352-.122-.497-.037-.072-.08-.25.035-.288m-.274 2.503c-.057-.037-.135-.162-.057-.244h.182c.066.1.024.267-.124.244m.148-3.71c.092.016.116.097.127.168-.084.208-.084.444-.127.657-.095.092-.148-.01-.206-.076.033-.2-.068-.328-.09-.496.048-.133.138-.236.296-.252m-.355-1.11h-.092l.064-.05c.013.013.037.02.03.05m-.093 1.568c.164.11.174.41.242.58-.19-.075-.353-.382-.24-.58m.212-1.39c.35-.047.06.276.21.4.116.233-.198.188-.25.12-.022-.19-.062-.35.04-.52m.39-.084c-.163-.18-.064-.57-.09-.783-.073-.148-.112-.293-.09-.475.052-.046.09-.104.18-.085.233.354.02.895.17 1.28-.035.074-.11.05-.17.062m0-3.477h-.128c-.062-.184-.115-.462-.085-.675.197.182.234.45.213.675m0-1.695c-.04.05-.088.062-.155.05-.094-.05-.07-.16-.118-.237h.095c.102.016.162.076.178.187m-.302-1.64l.09-.062c.06.01.114.074.086.145-.05.152-.185-.023-.175-.083m.148-1.838c-.087.078.08.34-.148.283-.136-.198-.237-.43-.148-.667.21-.028.2.26.296.384m-.596-1.278c.088.01.2.083.148.17-.096.028-.188-.062-.234-.11.023-.027.037-.08.086-.06m-1.807-1.663c.117.013.195.16.203.273-.12 0-.212-.14-.273-.243.027-.017.04-.04.07-.03m-2.82-.637c.275.03.725.113.953-.145.425-.035.858.242 1.13.56.132.014.272.073.348.166-.084.034-.256.01-.29-.08-.29-.066-.485-.34-.754-.46-.092-.04-.264-.074-.345.02.118.09.313.052.372.206-.21-.01-.448-.096-.668-.142-.252-.05-.547.1-.747-.125"/>
    <path fill="#fff" d="M56.265 129.247c.4.392 1.023.406 1.537.343.447-.274.585.378.956.378.272.346.698.4 1.166.417.32.103.475.465.487.746.117.227.227.578.507.634.3-.083.384.164.596.028.093.085.26.21.147.373-.224-.125-.495-.01-.704-.22-.48.03-.408-.538-.738-.718.162-.138-.116-.29-.102-.457-.19-.136-.352-.212-.494-.385l-.035.032c-.19.14-.4-.012-.557-.094-.323 0-.558-.293-.746-.48-.293.125-.396-.232-.687-.11-.175.263-.606.127-.89.11-.17-.456-.675-.16-.998-.4.017-.267.363-.127.555-.196"/>
    <path fill="#fff" d="M60.89 132.174c-.156.145-.24-.07-.38-.088-.557-.2-.392-.737-.658-1.142.234-.06.15.2.275.297.012-.003.014-.017.024-.02l.07.387c.16.35.435.385.67.567m-5.156-2.446c.212.127.54-.147.65.103-.05.025-.11.122-.174.046-.273-.123-.672.124-.748-.214.1 0 .202-.008.272.066m-1.146-.51c.25-.044.502-.165.723-.15l-.023.08c-.224.053-.522.152-.7.07m.815.21c-.127.16-.348.05-.478.21-.122.095-.37.06-.448-.057.2-.243.6-.167.86-.3.066.038.078.087.066.147m.147-.28c0-.132-.1-.225-.148-.356.108-.116.246-.12.384-.147.065.148.263.208.28.395-.17.064-.318.15-.517.11m3.42-1.13c.532.112 1.044.365 1.522.575-.26.177-.6.223-.86.412-.524.143-1.1.184-1.625.332-.54.113-1.11.076-1.584-.208.186-.137.44-.125.688-.125.453.422.995-.012 1.474-.083.35 0 .648-.014 1.01-.094.12-.093.362-.078.362-.235-.19-.21-.298.115-.514.05-.72-.108-1.223.307-1.88.332-.28-.248-.718-.16-1.025-.124-.215.125-.374-.076-.473-.232.008-.21.36-.27.57-.36.21.102.29.284.498.36.43-.06.803.132 1.196-.06.315-.016.69-.062 1.027-.09.064-.04.064-.098.087-.15-.324-.176-.634.065-.985.03-.376.295-.763-.206-1.133.095-.192-.023-.273-.186-.362-.3.313-.073.645-.375.958-.057.31.056.78.134 1.05-.07"/>
    <path fill="#fff" d="M57.984 127.808c.023.014.034-.01.05-.03.21-.07.486-.013.597.155-.197.084-.56.096-.646-.125m3.443-.11c-.31.01-.476-.38-.725-.43.225-.13.5-.12.778-.12.122.202.395.12.594.183.224.033.502-.413.636 0-.52-.112-.784.438-1.283.367m3.083-.428c-.585-.286-1.246.328-1.71-.17.536-.09 1.08.012 1.614.017.048.043.16.032.117.13l-.02.022z"/>
    <path fill="#fff" d="M64.685 127.633c-.728.134-1.654.134-2.333 0l.088-.058c.663.19 1.202-.357 1.858-.13.45.262.61-.413 1.046-.176v.176c-.226.063-.385.26-.66.187m.925-.364c.06-.022.105.042.12.06l-.12.033v-.094z"/>
    <path fill="#fff" d="M65.404 127.96c-.476.17-1.02.16-1.536.23-.322-.122-.643.012-.973-.11-.523.145-1.044.022-1.572-.063-.435.167-.732-.15-1.062-.3-.238-.098-.526-.03-.694-.268.53-.16 1.065.028 1.603.418.94-.07 1.85.124 2.816.06.42.22.867-.034 1.275-.12.455.05.614-.663 1.06-.36-.182.332-.578.512-.916.512m1.138-.514c.038.01.1-.02.11.04l-.083.09c-.046-.033-.086-.08-.028-.13"/>
    <path fill="#fff" d="M66.653 128.107c-.336.023-.675.19-.983.212-.396.158-.9.188-1.346.176l-.408.147c-.593 0-1.366.173-1.927-.147-.388.307-.835-.067-1.225-.028-.41-.21-.82-.382-1.263-.534-.21-.272-.634-.076-.828-.3.532-.416.932.224 1.427.263.49.523 1.254.1 1.798.452.927-.144 1.767.293 2.61-.03.685-.223 1.556-.05 2.096-.568.202-.133.463-.306.714-.154-.07.3-.414.398-.665.51"/>
    <path fill="#fff" d="M65.388 128.782l-.11.058c-.222.037-.43.07-.59-.025.16-.408.565-.07.93-.176.38-.213.812-.295 1.24-.383.372-.062.476-.638.872-.527.02.16-.095.255-.147.38-.658.4-1.39.606-2.195.672m2.5-.765c0-.11.162-.237.237-.148-.06.027-.12.2-.238.147"/>
    <path fill="#fff" d="M70.766 129.224c-.425.412-1.06.327-1.585.486l-.368.21c-.302.117 0-.316-.288-.244 0-.09-.16-.203-.09-.302.2-.056.363.037.533-.113-.247-.307-.673.104-1.023-.122-.16-.298-.558.11-.662-.236.128-.168.448-.152.402-.383-.434.214-.883.416-1.407.44-.192.124-.364-.007-.54.117-.337.023-.656.225-.997.06l.063-.06c.886-.054 1.783-.267 2.583-.625.235-.267.703-.045.896-.446.15-.092.297-.092.45 0-.113.426-.56.16-.85.357-.052.2.173.07.252.156.31.033.57-.058.833-.157.234-.028.497-.22.713 0-.36.19-.787.235-1.205.33-.193.26-.43-.118-.645.08-.07.067-.004.18.052.188.29.102.55.078.787-.086.234 0 .448-.088.654-.182.312 0 .577-.348.866-.117-.112.175-.323.226-.51.3-.097.078-.287.06-.302.238.166.164.327-.05.49-.06.244-.15.522-.424.838-.28-.327.34-.885.474-1.382.578-.143.136-.47-.048-.544.21l.062.064c.612-.098 1.27-.128 1.737-.51.196-.03.417-.364.576-.06-.103.12-.262.12-.39.17"/>
  </g>
</svg>
