<svg xmlns="http://www.w3.org/2000/svg" xmlns:xlink="http://www.w3.org/1999/xlink" viewBox="0 0 250 250">
  <style>
    .st0{clip-path:url(#SVGID_2_);} .st1{fill:#FFFFFF;}
  </style>
  <defs>
    <path id="SVGID_1_" d="M0 0h250v250H0z"/>
  </defs>
  <clipPath id="SVGID_2_">
    <use xlink:href="#SVGID_1_" overflow="visible"/>
  </clipPath>
  <g class="st0">
    <path d="M248.15 124.976c0 68.056-55.094 123.15-123.15 123.15-68.056 0-123.15-55.094-123.15-123.15C1.85 56.92 56.945 1.828 125 1.828c68.056 0 123.15 55.093 123.15 123.148" class="st1"/>
    <path d="M57.407 122.662c0-1.39-.926-2.315-2.778-2.315-1.853 0-2.78.463-2.78 2.315v.463h5.557v-.463zm-7.407.463c0-3.24 1.85-4.167 4.166-4.167 2.315 0 4.167 1.39 4.167 3.704v2.314L50 124.513v-1.388zm9.26-6.945l-8.334-1.39v-1.388l8.333 1.39v1.388zm-5.094-11.11l-.926 3.24 1.852.463.463-2.778 1.39.463-.464 2.778 1.853.463.926-3.705 1.388.463-1.39 5.092-8.332-1.85 1.388-5.094 1.852.463zm8.797-7.872l1.39-3.24 1.387.463-2.314 4.63-7.87-3.703.462-1.39 6.945 3.242zm0-14.35l5.092 3.24c1.39.925 1.852 2.314.926 3.703-.925 1.39-2.314 1.853-3.703.927l-5.092-2.778.926-1.39 4.63 2.778c1.39.926 1.852.463 2.315 0 .463-.463.463-1.39-.926-1.852l-4.63-2.778.463-1.85zm6.48-6.02l-2.314 2.778 1.388 1.39 1.852-1.853.926.926-1.852 1.85 2.778 2.315-.926 1.39-6.482-5.093 3.24-3.704h1.39zm6.483-6.48l-1.39 1.387 4.63 5.093-.926.926-5.092-5.093-1.39 1.39-.925-.926L75 68.958l.926 1.39zm12.037-2.316c.926-.926 1.39-1.852 0-3.704-.926-1.39-1.852-1.852-3.24-.926l-.464.463 3.24 4.63.463-.463zm-4.167-5.556c2.778-1.852 4.63-.926 5.556 1.39 1.39 1.85 1.39 4.166-.926 5.555l-2.315 1.39-4.63-6.945 2.316-1.39zm12.037-5.092l-3.24 1.388.925 1.852 2.315-1.39.463 1.39-2.315 1.39.927 1.85 3.24-1.388.464 1.39-4.63 2.314-3.702-7.408 4.63-2.314.925.926zm6.482 0c.463 0 1.852-.463 1.39-1.39-.464-.925-1.39-.462-2.316-.462h-.464l.463 1.852h.925zm-.463-3.704c1.852-.463 2.777.463 3.24 1.39.463.925 0 1.85-.463 2.314l2.777 3.24-1.39.463-2.313-2.778-.926.462.926 3.24-1.39.464-2.777-7.87 2.315-.926zm44.907 1.39l-3.24-.927-.464 1.852 2.314.463-.463 1.388-2.314-.462-.926 3.24-1.39-.463 2.316-8.332 4.63 1.39-.464 1.85zm4.63 3.702c.462.463 1.85.926 1.85-.463.464-.926-.462-1.39-1.388-1.852h-.463l-.927 1.85.926.464zm1.85-3.24c1.853.926 1.853 2.314 1.39 3.24-.463.926-.926 1.39-1.852 1.39v4.166l-1.39-.463V60.16l-.925-.462-1.39 3.24-1.388-.462 3.24-7.87 2.316.926zm9.26 6.48l-2.778-1.85-.926 1.85 2.315 1.39-.462 1.39-2.315-1.39-.926 1.852 3.24 1.852-.925 1.39-4.63-2.316 4.167-7.408 4.166 2.315-.926.926zm-.926 7.41l4.63-6.946 1.39.926-4.63 6.945-1.39-.926zm10.185 1.387l1.85-2.315 1.39.926-5.555 6.482-1.39-.926 2.316-2.778-1.85-1.85-2.316 2.776-1.39-.926 5.557-6.48 1.39.925-2.315 2.315 2.314 1.85zm8.333 5.555l-2.315-2.315-1.39 1.39 1.853 1.85-.925.927-1.852-1.852-1.39 1.39 2.316 2.777-.927.926-3.704-3.704 6.018-5.556 3.24 3.704-.925.463zm-3.704 6.945l6.48-5.093.927 1.39-6.482 5.09-.926-1.387zm11.573 3.703l-.926-1.852-6.018 3.705-.927-1.39 6.018-3.702-.925-1.852 1.39-.925 3.24 5.092-1.852.926zm-.463 14.815l-.463-1.39 5.093-3.24-6.02 1.39-.462-1.39 6.945-4.63.463 1.39-5.093 3.24 6.02-1.388.462 1.388-5.093 3.24 6.02-1.388.462 1.39-8.334 1.388zm9.26 6.945l-.926-3.24-1.852.462.926 2.778-1.39.463-.925-2.778-1.852.463.927 3.704-1.39.463-1.388-5.092 8.332-2.315 1.39 5.093h-1.852zm-.926 8.333l3.24-.463v1.39l-8.333.925-.462-1.39 3.704-.462-.463-2.778-3.705.463v-1.388l8.333-.926v1.852l-3.24.463.926 2.316zm2.314 10.185v-2.314h-6.944v-1.388h6.944v-2.315h1.39v6.018h-1.39z"/>
    <path d="M125 207.847c-45.834 0-82.87-37.037-82.87-82.87 0-45.834 37.036-82.87 82.87-82.87 45.833 0 82.87 37.036 82.87 82.87 0 45.833-37.037 82.87-82.87 82.87m0-168.056c-47.222 0-85.186 37.964-85.186 85.186 0 46.76 37.964 85.186 85.186 85.186 46.76 0 84.723-37.963 84.723-85.186.463-46.76-37.964-85.185-84.723-85.185"/>
    <path d="M66.203 161.55l-.463.464s-.463.463 0 .463c0 0 .463.463.463 0l.463-.463s.463-.463 0-.463h-.463m106.482 21.297s-2.314.463-2.777.926c-.463.463-.463.926 0 .926s2.777-1.39 2.777-1.853c.463 0 0 0 0 0m-33.333-18.52l.463-.462h-.926c-1.39.926-2.316 1.39-3.705 2.315l-3.704 3.704c0 .926.927.926 1.39 0 0 0 1.852-2.315 2.315-2.315 1.39-.927 1.852-1.39 3.24-2.316l.927-.926zm-6.945.464l.926-.462.463-.463s0-.925-.463-.463l-.463.463-.463.463v.463c-.463.464 0 .464 0 0m-1.85.464l-.927.463-.463.463v.463h.463l.926-.463.462-.463c.463 0 0-.926-.462-.463m14.35-2.314h-.462c-.925.925-2.314 1.388-3.24 2.314l-1.39 1.39c-.462.462-.925 1.388-1.388 1.388-.463 0-.463.463-.463.463s0 .463.463 0c.926-.463 1.39-1.39 1.852-2.315 1.39-1.39 2.778-2.315 4.166-3.24.463.462.463.462.463 0m-7.87 6.48c-.463 0-.926.464-1.39.927 0 0-.462.463-.462.926l-.463.463s0 .463.463 0 .926-.926.926-1.39l.464-.462s.463 0 .463-.463c.463.464.463 0 0 0m10.648-4.166s-1.39.926-1.852.926c-.463 0-.926.926-.926 1.39l.463.462c.463 0 .463-.463.926-.463l.463-.464.462-.463c.463 0 .926-.463.926-.926l-.463-.463m-4.166 3.24c-.464.464-.464.464 0 0l-.464.464h-.463l-.463.463v.464h.463l.926-.463h.462v-.462l-.463-.463m6.943-.463c-.463 0-.926.463-.926.463l-.463.463v.463h.463l.463-.462.463-.463s.463 0 0-.463c.463 0 0 0 0 0m0 9.722c.463 0 .463-.463.926-.463l.462-.462.463-.462s.463 0 .463-.463c0 0 0-.463-.463-.463s-1.39.463-1.39.463l-.462.463-.463.462c.463 0 0 .463.463.926-.463 0 0 0 0 0"/>
    <path d="M192.593 161.55h-1.852c-.462 0-.925-.462-.925-.462-.463 0-1.39-.463-1.852-.463-.926 0-1.852 0-2.778.463-.926 0-2.777.926-4.63 1.852-.462.462-1.388-.463-1.85 0-.464 0-.927.462-1.39.462-1.852-.925-1.852 0-3.704-1.388-1.85-.463-4.628-.926-6.017-1.852-1.39-.463-3.24-1.852-4.63-.926-2.315.463-4.63 1.39-6.944 2.778-.927 0-1.853.463-2.316 0-1.852-.463-3.704-1.852-5.556-.926-.926-.463-2.315-.463-3.704-1.39h-2.314c-3.704.464-5.556 1.853-9.723 2.316-.926 0-1.39.463-4.166.463 0 0-.462-1.852.464-3.24v-1.853-2.778c-.926-1.852.463-5.092-.926-6.944 1.39-2.315 0-4.167.463-6.482.464 0 1.39 1.852 1.853.463.925.463 1.85 2.315 2.777 1.39h.463c-.463.925.463 1.85.463 2.777-.463.926-2.315.926-1.39 2.315.927.463 1.853 0 2.78.463.462-.463.925-1.39 1.85-1.852.464.463.464.463 0 .926h-.462c.463.926 1.852 1.39.463 2.315v.925h.926c0 1.39-1.852 1.39-.926 2.778.926.926 1.852-.926 3.24-.463.927-.463.464-1.39.927-1.852-.463-.926 1.39-1.388.463-2.314-.463-.925-.463-1.85-1.39-2.777-.462-1.39-1.85-1.852-2.314-3.24-1.852-.464-2.778-2.316-3.704-3.242 0-.462.462-.462.925-.462.463-.463.463.463.926.463 0 .464.464.927.927 1.39.463-.463 0-1.39.463-1.852.463 0 1.39-.463 1.852.463 0 .464-.463.927-.463 1.39.462.463 1.388 1.39 2.777.926.926 0 1.39 1.852 1.852 0 0 1.39-.464 3.24.462 4.63-.926.926-2.778-1.39-1.39.926 1.39.463 1.852.463 2.315 1.852.463.463 1.39.463 1.852.463 1.85-1.852 1.85-4.63 1.388-6.945-.926-.926-.926-1.852-.926-2.778-.926-.926-1.852-1.39-2.315-2.315-1.388-.464-2.777-1.39-4.63-1.39 0-.462-.925-.462-1.388-.462-1.853-2.778-6.02-3.24-6.946-6.02.926-.462 1.852.927 2.778.927.463.463 1.39 0 1.852.463h.463v-1.39c.463.464 1.852.927 1.39 1.853l.462.464c.462-2.778-2.78-3.704-3.242-6.02 3.24 0 3.704 3.242 5.093 5.094 0 .926-1.388 2.315-.925 3.24.926.464 1.39.464 1.852.464 1.39-.926 1.39-2.315 3.24-2.315.926.926 1.39 1.852 2.315 2.315.926-.463.926-1.39.926-2.315.463 0 .926 0 .926.463 0 0 .463.463.463 0 .926-.463 0-.926-.463-1.39-.463-.462-.463-.925-.463-1.388.927-.463 1.39.463 1.853 1.39 0 1.85 2.315 3.24 1.852 5.09.463.927 1.39.927 1.852.464.926-.925 1.852-.463 2.778-.463.462.463-.463.463 0 .926.462-.464.925-.927.462-1.39-.925-1.388-.925-4.166-3.703-4.63-.463-1.388-1.39-2.314-3.24-2.314-1.39-1.39-4.168-.463-5.094-2.315-1.85 0-2.777-1.85-4.63-1.85-1.388-.927-3.703 1.388-4.63-.464.927-.463 1.39-.926 1.853-.926 0-.925 0-1.388.463-2.314.926.463 1.39-.463 2.315 0 0-.463 0-.926.464-.926.926 0 .926.463 1.39.926 0 .463 0 .463-.464.463-.463 0-.463 0-.926-.464-.463.463-.463 1.39-.463 2.314.464 1.39 1.853.463 2.316 1.39.926-.464 2.314 1.388 2.777-.464.463-.926-.463-1.388-.463-2.314-1.85-.463-1.85-2.315-4.166-2.315-.463-.463-.926-.926-.926-1.39-1.39 0-2.315 0-3.24-1.388 0-.464 0-.927.462-.927.926 0 .926 1.852 1.852 1.39.463-.464.926-1.39.463-1.853-.463-.463-.463-.463-.463-.926 0 .463.463.926 0 1.39-.463-.464-1.39-.927-1.39-1.39.464-.463.927 0 1.39 0-1.852-2.315-5.093.926-6.02-1.852-.925-.926-2.314-.463-2.776-1.852-1.39.463-.926-.926-1.39-1.85 0-1.39-.925-1.853-1.388-2.316-.463-1.39-1.39-2.778-.926-4.63.463-.463 0-1.39 0-1.852v-1.39c.926.464 1.852 1.39 2.778 1.39.926.463 1.388 2.778 2.777 1.39.926.462 1.852.462 2.315 1.85 0 .927.463 1.39.463 2.316.463.463.463 0 .926 0 .464-1.852 2.316 0 2.316-1.852.463-.463 1.39-.463 1.39-.926.925 0 1.388 1.852 2.777 1.39.463-.927 1.85-.927 2.777-.464.926 2.778 4.167-.463 5.093 2.778 0 .926 0 1.39.926 1.852 1.388-.463 1.388-1.39 1.388-2.778 0-2.778-3.24-2.778-4.63-4.63-1.39 0-1.852-1.852-3.24-1.39-1.39-2.314-4.167-.462-6.02-1.388-1.85-.463-4.166.463-5.092-1.39-1.39 0-2.315-1.387-3.703-.924l-.463-.463c0-.463.463-.926.926-.926.462-.463 1.388.926 1.85-.463h.464c.463.463-.463.926 0 1.39.463 0 1.39 0 1.39-.927.462-2.315-2.316-2.778-3.704-3.704-.926-.463-.463.463-.926.463-1.39.463-1.39-.463-1.852-1.39 0-.925-.463-1.388-.926-1.85 0-1.853-.463-2.316.463-4.168 0-.925-.926-2.777-.463-3.703 0-.926.463-1.852-.463-2.778.462 1.852-1.853 2.778-.927 4.63l-.463.463-.463-.926c-.463 0-.463 1.85-1.39.926.927-.926 0-2.315.927-2.778 0-.463-.463-1.39.463-1.852H125v.926c.463-1.39-.463-2.315 0-3.704.926-.463.463 2.315 2.315 1.39 1.39.925 0 1.85 1.39 2.777-.927 2.314.925 3.703 1.85 5.554 1.39 0 2.315 1.39 3.704 1.39.462-.464.462-1.853 1.388-.927.926 1.39 1.39 2.778 2.778 2.778 0 .463.463.926.926.926 1.39-.462 1.852.927 3.24.464.464.463 0 .926 0 1.852.927.463.927 2.778 2.778 1.852.926-.463.926-1.39 1.39-1.852.925 1.39 2.777-1.39 2.314.926 1.39.926 2.778.463 4.167.463.464 0 .464.463.464.463 0 .926-.463.463 0 1.39.463.462 1.39.462 1.852 0 .926-1.39.463-1.853.463-3.242-2.78-2.778-6.483-6.945-11.113-6.945-1.388-1.85-4.166-.925-6.018-2.313-3.242-1.39-5.557-3.704-8.797-5.556-.463-.925-1.39-1.85-1.39-2.777.464 0 .927-.463.927-1.39-.463-.462-1.39-.925-1.852-1.85.926-.464 1.39.462 2.315.925 1.388.926 1.388 3.24 3.24 3.704.463 1.852 2.778.926 3.704 1.39.463-.464 1.852.462 2.315-.464-.463-.926-.926-1.39-.926-2.315 2.315 0 1.852 3.24 4.167 3.704.926-.463.926-2.315 2.777-1.39 0 .927.463 1.39.926 1.39.926 0 .926-.926 1.852-1.39 0-1.388 0-2.314-.926-3.24-.463-.926-1.852-.463-2.315-.926-2.314-1.85-5.092-1.85-8.333-1.85-1.39-1.39-3.704-.926-5.556-2.315-.925-.926-2.777-.926-3.24-2.315-.463-.926-1.852-1.39-1.39-3.24.464-.927 1.39-.927 1.853-.464.927.463 1.39 2.315 2.778 2.778.926-1.852-2.777-2.778-2.777-4.63 1.39.926 2.778 2.315 4.167 3.704 0 1.39.926 2.315 1.852 2.778l.925-.926c.463.463 1.39 1.852 2.315 2.315.926-.463 2.778.926 2.778-.926 0-1.39-1.852-1.853-.926-3.705-2.315-2.778-5.093-3.704-7.87-4.63-1.39-1.85-3.24-3.703-3.704-5.555-.926-.926 0-1.39-.463-2.315 0-.463 0-1.852-.463-1.852-.926 0-1.852 0-1.852.926 0 6.48-7.407 8.795-12.963 11.573-1.852.926-3.704 3.24-4.167 5.093 0 .926 0 1.39.463 1.852 0 .463.463 0 .926 0 .462-.926 1.85-.926 2.314-2.315.926 1.39 1.852-.463 2.778-.463.463-1.39 2.315-.463 2.315-1.852.463-.463.926-.926 1.388-.926 0 .463 0 .926.926.926.464 0 .927.926 1.39.926 1.39.463 1.852-2.315 2.778-.463 0 1.853-.926 3.705-2.315 4.168-1.852.463-3.24.926-4.166 2.777 0 .926-.926.463-1.39.926-2.777-.462-4.166 2.316-6.48 2.78-.927.925-.927 2.314-1.39 3.24.463.926 1.39.926 2.315 1.39 2.315-.464 1.852-3.242 4.63-3.705.463-.463.926 0 1.39.463v.463c0 .464.925 0 .925.464-.926.926 0 3.704-2.315 2.778 0-1.39.926-1.852.926-2.778-.926 0-1.852 0-2.315.926 0 1.852-1.852 3.24-3.24 3.704-.464 0-.927.463-1.39.463.463 1.85-1.852 2.314-.926 3.703v.926c.926 1.852 1.39-.463 2.778-.463.926-.926.926-3.24 2.778-2.778 1.39-1.388 2.315-1.85 3.24-3.24.464-.463 0-1.852.464-2.315.463-.926.926-1.852 1.85-2.315 0 .463-.924 1.39-.924 2.315v1.39c.925-.464 1.388-.927 1.388-1.853h.927c.463.463-.926.926 0 1.852.926-.464 2.315-.927 3.24-1.853h.927c0 .926-1.39 1.39-.926 2.315-.463.463-.463 1.39-.926 1.852v.463c-.463.463-.463.926-.463 1.388-2.316 2.778-6.482 2.315-7.87 5.556.462.927.925-.462 1.388.464-.463 1.852-2.315.926-3.24 1.852-2.316-1.39-3.242 1.852-5.557 1.39-.925.925-3.24.925-2.776 2.777.463 1.388 1.85-.463 2.777.463-1.388.925-3.702 1.388-4.165 3.703.926 1.85-2.315 2.777 0 4.63.926.462 1.39-.927 1.852-1.39-.926-1.852 1.388-1.39 1.388-2.778.926-.463 1.852-1.852 2.778-1.39.463.464.926.927 1.852.464 1.39-.463 3.24-.926 4.63-1.852 3.703.463 3.24-5.092 6.944-3.703-.927.927-1.39 1.853-1.853 3.24-2.314 1.853-3.24 5.557-6.48 6.483-1.853 2.315-6.02 3.24-6.02 6.944 0 .926-.926.926-1.39 1.852-.462 1.388-.925 3.703.464 4.63.464 0 .927 0 1.39-.464 0-.463-1.39-1.39 0-1.852.463 0 .926.463 1.39 0 0-.926-.927-.926-.927-1.852.926-.463 1.39.926 1.852 1.39.926.462 1.39-1.39 1.852-1.39.463-1.39-1.852-.926-.926-2.315.927-.463 2.78-.463 3.242-1.388 0 .462.463.462.463.462.926-.463 1.39-1.852 2.315-.926.463-.463 1.388 0 1.85 0 .464-.926.927-1.852 1.853-2.778 0-.926.463-2.315.926-2.778.462 0 .462 0 .462.463 0 2.315-.926 4.63-3.24 6.02 0 2.776-2.778 3.24-3.704 5.09-1.39 1.39-3.704 1.39-3.704 3.242-1.39 1.39-3.24 1.39-5.093 1.852-1.85 0-3.702-.463-5.09.463-1.853.463-3.705 1.852-4.63 3.703-2.316.463-1.853 3.704-4.63 4.167-.926 1.852-3.24 4.167-1.852 6.482-.926 1.39-2.778 2.777-1.39 4.166 1.853 1.39 2.316-1.852 3.704-2.315.463-.462.463-1.388 1.39-1.85.925-.927 1.85-1.39 2.314-1.853.463-.463 2.315-.463 1.39-1.852-.464-.463 0-.926 0-1.39.462-.462 1.388 0 1.388-.925.463-.926 0-2.315 1.39-2.778 0 0 .462 0 .462.463s-.926.926 0 1.39c.926-.464.926-1.39 1.852-.464.926 0 .463-1.39 1.39-1.39.46.927-.464 1.853.924 2.316.926 0 1.852-.463 2.315-1.39v-2.314c1.39-.463 0 1.39 1.39 1.39.925 0 1.85.925 2.777.462 2.315-1.39.463-3.703 1.852-5.092.463-1.39.463-2.778 1.39-3.24h.462c-.463 1.388-1.39 2.777-.926 4.63 0 .462.463.924.926.462.463-1.852 3.24-1.852 2.777-4.63.926-.926.463-2.315.926-3.704-.462-.463-1.387-.926-.462-1.39 0-.462.463 0 .926 0 .463.464.926 1.39.926 1.853-.463.463 0 1.39-.463 2.315.463.463.926.463.926.926 0 .926-1.39.926-1.39 2.315 0 .926.464 2.315-.925 3.24 0 1.39-.925 1.852-.925 3.24-.463.927-.463 1.853-1.852 2.316-1.85 0-2.777 1.85-4.166 2.314-.926 2.778-4.63 3.704-4.167 6.48-1.852 1.39-1.852 3.242-3.703 4.63.463.927-.463 1.39 0 1.853-.926 1.852-3.704 1.852-4.63 4.167.926.463.926 1.388 1.39 1.388 0 .926-2.316 1.39-.927 2.315.463.926-.926 1.852 0 2.778v.463c.926.463.926-.463 1.39-.926v-.926c.925 0 .925.463 1.388.926.926-.463.926-1.39 1.39-1.852.924.926 2.313-.463 3.24-.463 0-.463 0-.463.462-.926v-1.85h-.463c-.463-.926-.463-1.852-.463-2.778 0-.463-.462-.463-.462-1.39 1.852.927 2.778-1.388 4.167-1.85v.462c-.463.463-.463.463 0 .926s.926.463 1.39 0c.925-1.39 1.388-3.24 2.314-5.093 0-.926 0-2.778.925-3.704.926-.462 1.39-1.388 2.315-1.85.463-1.853 0-3.705.463-5.094h.925c-.925 1.85.926 5.092-1.388 6.018-.463.925-1.39 1.388-.926 2.314.463.463.463 1.39 1.39 1.39.924-.464.924-2.316 2.313-1.853 0 .925.463 1.388.463 2.314 0 .926.463.926.463 1.852 0 1.852 0 4.167.463 5.556-.463 1.852-.463 3.703-.926 5.555 1.39 1.39-.926 2.778 0 4.63-.463.463 0 .926 0 1.852l.463.462v4.63c-1.852.462-3.24.925-4.63 1.388-3.703-.926-12.962-7.407-16.203-6.944H96.296c-.926 0-1.39.463-1.852.463-.463 0-1.39.462-2.315.462h-1.39c-1.388.926-2.777.463-3.703 1.852-2.315-.926-4.167.463-6.02 1.85-2.314-.462-4.165-1.85-6.017-2.776-1.39.463-2.315-1.39-3.704-.926-.926-.926-2.315.463-3.704-.463-1.39 0-2.315.925-3.703.925-1.853.926-3.242 1.39-5.557 1.852-.926.925-1.39 1.388-1.852 1.388-5.554-11.11-8.795-23.148-8.795-36.574 0-43.98 35.648-79.166 79.167-79.166 43.98 0 79.167 35.65 79.167 79.167 0 13.427-3.242 26.39-9.26 37.5-1.852-2.776-3.24-2.776-4.167-3.24m-7.87 3.704l1.388-.926.927-.463c.463 0 0-.463-.463-.463s-.926.463-.926.463l-1.39.926c0 .464-.924.464-.924.464-.463 0-1.852-.463-4.167-1.852.463-.462 1.852 0 2.315 0 .463 0 .926-.462 1.39-.462 1.387-.463 2.313-.926 3.702-.926.926 0 1.852-.463 2.315-.463.462 0 .925.464 1.85.464.464 0 1.39.463 2.316.463l1.39.463-.927 1.388c-.464.926-.927 1.39-1.39 2.315h-2.315c-.926 0-1.39-.463-1.852-.926h-.463c.463 0 .926-.463 1.39-.463h.462l.463-.463h.463v-.462l-.463.463h-.926c-.464 0-.927.464-1.39.464-.926 0-1.852-.463-2.778-.463v.464zm3.703 7.408c-4.167.926-9.26-.463-12.5 2.315-2.778-.926-5.555 0-8.333-.463-1.39-.926-4.167.463-5.093-1.39-2.778-.462-5.555-.925-8.333-.925-1.852 0-2.778-1.853-4.63-1.39-.926-.926-2.315-.463-3.24-.926l-2.778 1.39c-.464.462-.927.462-1.853.462-.463 0-2.315.463-2.778.926-.927 0-2.316.463-2.78.926-.925 0-1.85.463-2.777.463-.926 0-2.315 0-2.777.464h-1.852c0-.463-.463-.926-.463-1.852v-.926-2.315c-.462-.925 0-2.314-.462-3.24v-3.703c6.018-.463 7.87-1.852 12.037-3.24l2.778-.464c2.777-.926 3.703 2.315 6.48 1.852 1.39.463 2.78 0 4.168.926 2.78.927 5.556 1.852 8.334 3.24 2.315 0 3.704.927 6.02.927.462.463 1.388.463 1.85.463 1.852 0 6.02.926 6.02.463s-3.705-.463-6.02-1.39c-.925 0-2.314-.462-3.24-.462l.463-.462c.463 0 .463-.463.463-.463h.463v-.463c-.463 0-.926.463-.926.463l-.463.463-.463.463h-1.388l.463-.462c.463 0 .463-.463.463-.463s.463 0 .463-.463c0 0 0-.462-.462-.462-.463 0-.926.462-.926.462l-.463.463v.463c-.464-.463-1.39-.463-1.853-.926h.926c.926 0 1.39-.462 1.852-.925v-.463h-.463c-.463.463-.926.926-1.39.926-.925 0-1.388.462-1.388.462h-.463c-.462-.462-1.388-.462-1.85-.925h.925l.926-.463h.464c.463 0 .926 0 .926-.463 0 0 .463 0 0-.462h-.463c-.463.463-.463.463-.926.463H159.723l-.926.464h-1.389c-.462 0-.462-.463-.925-.463.925-1.85 3.24-.925 4.63-2.314 1.388 0 3.24-.926 4.166.463 3.704.925 7.407 1.85 10.648 3.702 2.315 0 3.704 2.315 5.556 2.315.926.463 1.852.463 2.315.463 1.85 0 3.24 1.39 5.092 1.852h1.85c-.462 1.852-1.388 3.24-2.314 4.63m-22.685 20.37c-1.85.463-3.24 0-4.63-.926.927-.926 2.78-2.777 4.63-4.63.927-.925 2.316-1.85 3.242-2.314.926-.463.463-1.39-.463-.926-.464.463-1.853 1.39-2.78 1.852-2.314 1.852-4.166 4.166-5.555 5.555-1.39-.926-3.24-1.39-5.092-1.85.926-.464 1.852-1.39 2.314-1.853 1.39-.926 4.63-3.24 5.093-3.24v-.464c-.463-.463-3.704 1.852-5.555 3.24-.926.464-1.852 1.39-2.778 2.316l-4.167-1.39-.463-.462c.463-.463.926-.463 1.852-.463.462 0 .925-.463 1.85-.463h.464s.463-.463 0-.463c0 0-.463-.462-.463 0h-.462c-.463.464-.926.464-1.39.464-.925 0-1.388.463-1.85.926 0 0-.464 0-.464.463-.926 0-2.315.463-3.24-.463-.464 0-1.39 0-1.852-.463-.463-.926-1.852-1.39-2.315-2.315h.926c2.777 0 6.018-.463 8.796-1.39v-.462c-1.39 0-3.242.463-4.63.463-1.39.463-3.24 0-4.63.463h-.926c-.463-.463-.463-.926-1.39-1.39-1.85-.925-3.24-.925-4.166-3.703-.463-.463-1.39-.926-1.852-1.39h1.852c.926 0 1.39.464 1.852.464 1.39.463 3.24.463 4.63.926 4.166.926 8.796 0 13.426.926 1.39-.464 3.24 0 5.092-.464-1.852.926-4.166 1.852-6.48 1.852-.464.463-1.39.463-1.853.926h.926s2.316-1.39 3.705-.926c.925-.463 2.314-.463 3.24-.926 2.315-.463 4.167-2.315 6.482-3.24 1.39-.926 3.704-.926 5.555-1.39 2.778-.462 6.482-.925 8.797-2.777 1.85.463 3.24-.926 5.09-.463 1.39 0 2.316-.463 3.705-.463-7.87 9.258-15.74 15.74-24.074 20.832m-35.184-16.666c-.926 0-1.39-.463-1.39-.926h.464c3.24-.926 2.777-.463 5.555-1.39.463 0 2.778-.462 3.24-.925.464 0 3.705-.463 4.168-.463.463 0 2.314-1.39 2.777-1.852.463-.463.463-.463.926-.463s1.39 0 2.315.926c.927.463 2.78 0 3.705.926 1.39.462 2.778 0 4.167.462 2.314 0 4.166.463 6.018.926.926 1.39 3.24.463 4.63.926 1.852.463 3.703.926 5.555.463-.463.463-.926.463-1.39.463-2.313.926-4.628 1.388-7.406 1.85-1.853 2.316-4.168 1.853-6.945 2.316h-1.39c.464 0 .464 0 .464-.463 0 0 0-.463-.464-.463-.463 0-.926 0-.926.463l-.463.463h-1.852c.463 0 .926-.463.926-.926 0 0 0-.463-.462-.463 0 0-1.39.926-1.852 1.39h-3.703c.463 0 .463-.464.926-.464 0 0 .463 0 .463-.463 0 0 0-.463-.462-.463-.463 0-1.39.463-1.852.463-.463 0-.463.463-.926.463s-1.85 0-2.314-.463l-1.39-.463c.927-.463 1.853-.926 3.24-.926.464 0 1.39-.462 1.853-.462.462 0 2.314-.462 2.314-.925v-.463c-.463 0-1.39.463-1.852.463-.926.463-1.39.463-2.315.463-.925.462-1.85.925-3.24 1.388h-3.705l-1.39-.463c.927 0 1.853-.924 3.242-.924.926-.463 2.315-.463 3.704-.463.924 0 1.387-.463 2.313-.926l.463-.463c.463-.463 0-.463-.463-.463-1.39.464-2.314.927-3.703.927-1.39 0-2.778.463-4.167.926-.926.463-2.315.925-3.24.925h-.927c-.463 0-1.852 0-3.24-.462.462 0 .462 0 0 0m-12.5-3.24c-.463-.464 0-.464 0-.927v-.464h-.463c0 .463-.463.926-.463.926h-1.852l1.39-1.39c.462-.462-.464-.925-.927-.462l-1.85 1.852h-4.168-.463c.462 0 .462-.463.925-.463s.463-.464.926-.927c.464-.463 1.39-.926 2.316-.926.463 0 1.39-.463 1.852-.463h.463s.464-.463 0-.463c0 0-.462-.462-.462 0h-.463c-.463.464-.926.464-1.39.464-.925 0-1.388.463-2.314.926-.462.463-1.388.926-1.85 1.39-.464 0-.464.462-.927.462h-.463l-1.39-1.39h-.462c-.463 0-.926-.462-1.39-.462 1.39-.463 3.242-1.39 4.63-1.852l2.78-1.39c.462 0 1.85-.925 2.314-.925 0 0 .463 0 .463-.463s0-.463-.463-.463c-.926 0-1.852.463-2.315.926-.926.463-1.852.926-2.778.926l-4.168 1.388c-.463 0-1.85.463-2.777.926H100c-.463 0-.926-.463-1.39-.463h-.925c3.24-.462 6.482-1.85 8.796-2.777 2.316-.926 3.705-1.852 6.483-1.852 1.39 0 2.315-.462 4.167-1.388v2.315c1.388 6.482.925 7.408.925 7.408m-17.592-7.87c-.463 0-.463.462-.463.462 0 .463-3.24 2.315-3.704 2.778v.463h-.463l-.463-.463c-.463 0-.926-.463-.926-.463l.463-.463 2.315-1.853h-.463l-1.853 1.852-.463.462v.463c-.463 0-.926 0-1.39-.463h-.462l-.463-.463c1.388-.927 4.166-3.705 4.166-4.168v-.462c-.463 0-3.704 3.24-4.63 4.166-.462 0-.925-.463-.925-.463l-.925-.463H88.425c.926-.926 4.166-3.24 5.092-3.703v-.463h-.463c-.926.463-4.166 2.777-5.555 4.166l-.926-.463s0-.463-.463-.463l-.462-.463s-.463-.462-.926-.462l-.463-.463c.925-.463 1.85-.925 2.314-.925.463 0 4.167-1.852 4.63-1.852h.462v-.463c-.462 0-1.388.463-1.85.926-.464.464-3.242.927-4.168 1.39-.463 0-.926.462-1.39.462H82.87c-.463 0-.926-.462-.926-.925 1.39-1.39 3.704-.463 5.093-1.852l.926-.463s1.39-.463 1.852-.463c0 0 .926 0 1.39-.464.46-.463 1.85-.463 2.313-.463l1.39-.463c3.24 0 6.48 0 9.26.926.924.926 7.406 4.166 10.647 5.092-1.39.463-2.778.926-4.167.926-2.315 0-4.167 2.315-10.185 2.778h-1.39l3.242-2.315c-.926 0-1.852-.463-1.852-.463m15.278 12.5c-.925.463-2.314.926-3.24 1.39-.463.925-1.852 1.85-2.315 2.777-.463 0-.926-.462-.926-.462-.927 0-5.556-.926-6.482-.926-2.315-.463-4.63-.463-6.945-1.39-1.39 0-2.315-.462-3.24-.462.462-.463 1.85-2.314 1.85-2.314s0-.463-.462-.463c0 0-.462 0-.462.463 0 0-1.39 1.85-1.39 2.314-1.85-1.39-3.702-1.39-5.554-1.852v-.462c.926-.926 1.852-2.315 2.315-2.778 0 0 0-.463-.464-.463 0 0-.463 0-.463.463l-1.852 2.315c-1.388-.463-3.24-1.39-4.63-.463-.462 0-1.388 0-1.85.463.925-.926 2.777-3.704 2.777-3.704s0-.464-.463-.464c0 0-.463 0-.463.463l-2.777 3.703c-2.314 0-5.092 0-7.407-.463.926-.926 5.556-5.093 6.02-5.556v-.463c-.464-.462-5.557 5.094-6.483 6.02-.463-.463-.926-.926-1.852-.926-1.388-.926-3.24 0-4.628.463-.463-.463-.926-.926-.926-1.39.926-.462 1.388-1.388 2.314-1.85 1.39-.927 8.334-3.242 8.334-5.557 0-.463 0-.463-.463-.463 0 0-.462 0-.462.463 0 1.39-6.02 3.704-6.945 4.167-1.39.463-2.314 1.39-3.703 2.315-.926-.926-1.39-1.852-2.315-2.778l.463-.463c.463-.462 2.315-1.388 2.315-1.85 1.39-.464 6.018-.927 6.018-2.78 0-.462 0-.462-.462-.462 0 0-.463 0-.463.463 0 1.39-5.092 1.853-6.018 2.316-.926.463-1.852 1.39-2.778 1.852-.927-.926-1.39-2.315-2.316-3.704l6.945-2.777c.462-.463.462-.463 0-.463-.927 0-6.483 2.314-7.41 2.777-.462-.925-1.388-2.313-1.85-3.24.925 0 1.388-.462 2.314-1.388 2.315 0 3.704-.926 6.02-1.852 1.85-1.852 4.165-.463 6.017-.463 3.242.463 6.02 2.778 9.26 3.704 4.63.464 6.945 5.556 12.038 5.556 1.85 0 4.166 1.852 6.018 1.852l1.39.463c.462 0 .462.464.925.464H100.927c.463 0 .926.463 1.852.463s1.85.463 2.777.463c.463 0 .926 0 .926.463.464 0 .464.463.464.463h.926c.463 0 .926 0 .926.463 0 0 .463 0 .463.462.462 0 .462 0 .925.463.463 0 .463.463.926.463h4.168c.463 0 1.39.463 2.315.463 0 1.853 0 3.24-1.852 3.704m-6.48 6.945c-1.853 1.388-4.63 1.388-6.02 2.777-2.777 0-5.092.926-7.87.926-1.852 1.39-4.166.463-6.018 2.314-1.852-.463-4.167-.463-5.556.926h-1.39c-1.388-.926-2.314-1.85-3.703-2.314.463 0 .463-.464.926-.464.462-.463 1.388-.926 2.314-1.852.926-.463 1.852-1.39 2.778-1.852.463-.463 2.778-.926 2.778-1.852 0 0 0-.463-.463-.463-.926.463-1.852.463-2.315.926-.926.463-1.39.926-2.315 1.39-1.39.925-2.778 1.85-4.167 3.24-1.85-1.39-3.703-2.778-5.555-4.63 0 0 .463 0 .463-.463.463-.463.926-.463 1.852-.926.463 0 2.315-.926 2.315-1.852 0 0 0-.463-.463-.463s-1.852.925-2.315 1.388c-.926.463-1.39.926-2.315 1.39-1.39-1.39-3.24-2.78-4.63-4.63h.463c.463-.464 1.852-1.39.926-1.39-.462 0-1.388.926-1.85.926-.927-.926-1.39-1.85-2.316-2.777 1.39-.463 2.315-.926 3.24-.463 1.853.463 3.242.926 5.094.926.926.463 2.315 0 3.24.463 3.704 1.85 7.87-2.315 11.575.925 1.39-.462 2.315.926 3.703.926 1.39.926 2.778 1.852 4.63 1.852 3.24 1.39 6.945 1.852 10.185 1.852.464.463 2.316.463 4.168.926v.463c-.926 1.39-.926 1.39-1.39 1.852M125 44.42c-44.445 0-80.556 36.112-80.556 80.556 0 44.445 36.11 80.556 80.556 80.556 44.445 0 80.556-36.11 80.556-80.556 0-44.444-36.11-80.556-80.556-80.556"/>
    <path d="M125 236.088c-61.11 0-111.112-49.537-111.112-110.65C13.888 64.33 63.426 14.33 125 14.33c61.11 0 110.65 49.537 110.65 111.11 0 60.65-49.54 110.65-110.65 110.65m0-224.075c-62.5 0-112.964 50.463-112.964 112.963C12.036 187.014 62.5 237.94 125 237.94c62.037 0 112.5-50.463 112.5-112.964 0-62.5-50-112.963-112.5-112.963m4.167-4.167L125 5.068l-4.167 2.778L125 10.624l4.167-2.778zm-17.593.463l-4.63-1.853-3.703 3.24 4.63 1.853 3.704-3.24z"/>
    <path d="M94.444 11.55l-4.63-1.39-3.24 3.705 4.63 1.39 3.24-3.705zM78.24 17.57l-4.63-.464-2.777 4.166 5.093.463 2.314-4.166zM62.5 25.44l-4.63.462-1.852 4.63 5.093-.463 1.39-4.63zM48.61 36.086l-4.63.926-1.388 4.63 4.63-.926 1.39-4.63zm-12.5 12.037l-4.63 1.852-.462 5.093 4.63-1.853.463-5.093zM25.926 62.476L21.76 64.79v4.63l4.165-2.314v-4.63zm-8.333 15.278l-3.704 2.778.926 4.63 3.704-2.778-.926-4.63zM11.574 94.42l-3.24 3.704 1.388 4.63 3.24-3.704-1.388-4.63zm-3.24 17.13l-2.78 4.167 2.316 4.167 2.778-4.167-2.315-4.167zm-.464 18.056l-2.315 4.167 2.778 4.166 2.315-4.167-2.778-4.167zm1.852 17.13l-1.39 4.63 3.242 3.703 1.388-4.63-3.24-3.704zm4.63 17.13l-.927 4.63 3.704 2.777.925-4.63-3.704-2.778zm6.944 15.74v5.093l4.166 2.314v-5.093l-4.166-2.314zm9.26 14.815l.462 4.63 4.63 1.853-.463-4.63-4.63-1.852zm11.573 13.427l1.388 4.63 4.63.926-1.39-4.63-4.63-.926zM55.09 219.42l1.852 4.63 4.63.464-1.852-4.63-4.63-.463zm14.815 9.26l2.778 4.167 4.63-.463-2.778-4.166-4.63.463zm16.204 6.945l3.242 3.704 4.63-1.39-3.24-3.704-4.63 1.39zm16.668 4.63l3.703 3.24 4.63-1.85-3.703-3.242-4.63 1.852zm17.592 1.852l4.167 2.777 4.167-2.777-4.167-2.315-4.167 2.315zm17.593-.463l4.63 1.85 3.703-3.24-4.63-1.85-3.703 3.24zm17.593-3.24l4.63 1.388 3.24-3.704-4.63-1.39-3.24 3.705zm16.203-6.02l4.63.463 2.777-4.166-5.093-.462-2.315 4.166zm15.74-7.87l4.63-.463 1.852-4.63-5.093.464-1.39 4.63zm13.89-10.648l4.63-.926 1.388-4.63-4.63.926-1.39 4.63zm12.5-12.037l4.63-1.853.462-4.63-4.63 1.852-.463 4.63zm10.184-14.353l4.167-2.315v-5.093l-4.166 2.314v5.093zm8.334-15.278l3.704-2.78-.926-4.63-3.704 2.78.926 4.63zm6.018-16.668l3.24-3.704-1.388-4.63-3.24 3.704 1.388 4.63zm3.24-17.13l2.78-4.166-2.316-4.167-2.778 4.166 2.315 4.166zm.464-18.055l2.315-4.167-2.778-4.167-2.315 4.167 2.778 4.167zm-1.852-17.13l1.39-4.63-3.242-3.703-1.39 4.63 3.242 3.703zm-4.63-17.13l.927-4.63-3.704-2.777-.925 4.63 3.704 2.777zm-6.944-15.74v-5.093l-4.167-2.315v5.092l4.167 2.315zm-9.26-14.815l-.462-4.63-4.63-1.852.463 4.63 4.63 1.852zm-11.11-13.426l-1.39-4.63-4.63-.926 1.39 4.63 4.63.926zm-13.426-11.574l-1.852-4.63-5.093-.463 1.852 4.63 5.093.462zm-14.815-9.26l-2.778-4.166-4.63.463 2.778 4.165 4.63-.463zm-16.204-6.944l-3.242-3.704-4.63 1.39 3.24 3.703 4.63-1.39zm-16.668-4.63l-3.703-3.24-4.63 1.85 3.703 3.242 4.63-1.852zm-9.26-1.39l-4.166-2.777-4.166 2.316 4.166 2.778 4.167-2.315zm-17.592-.462l-4.166-2.315-4.167 2.78 4.167 2.314 4.166-2.778zm-17.13 1.852l-4.63-1.39-3.703 3.242 4.63 1.39 3.704-3.242zm-17.13 4.63l-4.63-.926-2.777 3.704 4.63.925 2.778-3.702zm-15.74 6.944h-5.093l-2.314 4.167h5.092l2.315-4.168zm-14.815 9.26l-4.63.463-1.85 4.63 4.628-.464 1.852-4.628zM42.13 42.106l-4.63 1.39-.926 4.628 4.63-1.39.925-4.628zM30.554 55.07l-4.63 1.85v4.63l4.63-1.852v-4.63zm-9.26 14.814L17.13 72.66l.462 5.094 4.167-2.778-.464-5.092zm-6.944 16.203l-3.702 3.24 1.388 4.63 3.704-3.24-1.39-4.63zm-4.628 17.13l-3.24 3.704 1.85 4.63 3.242-3.703-1.852-4.63zM7.87 120.81l-2.315 4.166 2.315 4.167 2.315-4.167-2.315-4.166zm.463 17.592l-1.852 4.63 3.242 3.704 1.852-4.63-3.24-3.704zm3.24 17.13l-1.388 4.63 3.703 3.24 1.39-4.63-3.704-3.24zm6.02 16.204l-.464 4.63 4.166 2.777.463-4.63-4.168-2.777zm7.87 15.74l.462 4.63 4.63 1.852-.463-5.092-4.63-1.39zm10.648 13.89l.927 4.63 4.63 1.388-.927-4.63-4.63-1.388zm12.038 12.5l1.852 4.63 4.63.462-1.853-4.63-4.63-.462zM62.5 224.05l2.314 4.168h5.093l-2.315-4.167H62.5zm15.278 8.334l2.777 3.704 4.63-.926-2.778-3.704-4.63.926zm16.666 6.02l3.704 3.24 4.63-1.39-3.704-3.24-4.63 1.39zm17.13 3.24l4.167 2.777 4.167-2.313-4.166-2.778-4.166 2.314zm18.056.463l4.166 2.314 4.167-2.776-4.167-2.315-4.166 2.777zm17.13-1.852l4.63 1.39 3.703-3.242-4.63-1.39-3.704 3.242zm17.13-4.63l4.63.926 2.776-3.703-4.63-.926-2.777 3.705zm15.74-6.944h4.63l2.314-4.166h-5.092l-1.852 4.167zm14.815-9.26l4.63-.462 1.85-4.63-5.09.464-1.39 4.63zm13.426-11.11l4.63-1.39.926-4.628-4.63 1.388-.925 4.63zm11.575-13.426l4.63-1.852.462-4.63-4.63 1.852-.462 4.63zm9.26-14.815l4.166-2.78-.462-4.628-4.167 2.778.464 4.63zm6.944-16.205l3.702-3.24-1.39-4.63-3.702 3.24 1.39 4.63zm4.628-17.13l3.24-3.703-1.85-4.63-3.242 3.704 1.852 4.63zm1.852-17.592l2.315-4.167-2.315-4.166-2.315 4.166 2.315 4.167zm-.463-17.593l1.852-4.63-3.242-3.703-1.852 4.63 3.24 3.703zm-3.24-17.13l1.388-4.63-3.703-3.24-1.39 4.63 3.704 3.24zm-6.02-16.203l.464-5.093-4.166-2.777-.463 5.092 4.168 2.777zm-7.87-15.74l-.463-4.63-4.63-1.852.464 5.092 4.63 1.39zm-10.648-13.89l-.927-4.63-4.63-1.388.927 4.628 4.63 1.39zm-12.038-12.5L200 31.457l-5.092-.462 1.852 4.63 5.092.462zM187.5 25.902l-2.315-4.167h-5.092l2.315 4.167h5.092zm-15.278-8.333l-2.777-3.705-4.63.926 2.778 3.704 4.63-.925zm-16.666-6.02l-3.704-3.24-4.63 1.388 3.704 3.24 4.63-1.388z"/>
    <path d="M3.24 124.976C3.24 57.846 57.87 3.216 125 3.216s121.76 54.63 121.76 121.76-54.63 121.76-121.76 121.76S3.24 192.106 3.24 124.976m-3.24 0c0 68.982 56.018 125 125 125s125-56.018 125-125c0-68.98-56.018-125-125-125s-125 56.02-125 125"/>
    <path d="M35.648 150.902c.926 0 .926-.925.926-1.388 0-.926-.463-1.39-.463-2.315-.462-.464-.925-1.39-1.388-1.39h-1.39v-.463c.927 0 2.316 0 3.242-.463.463 1.39.926 3.24 1.39 4.63.46 1.388.924 2.777 1.387 4.63h-.462v-.464c0-.463-.463-1.39-1.388-.926l-9.723 2.778c-.926.463-.926.926-.926 1.39h-.462c0-.927-.463-1.853-.463-2.78-.463-.925-.463-1.85-.925-2.777h.462v.463c0 .463.463.926 1.39.926l8.796-1.852zm-.463-6.48c0-.927-.463-1.39-1.39-1.39l-10.184 1.39c-.925 0-.925.925-.925 1.388v.463h-.463c0-.926-.463-2.778-.463-4.167 0-1.39-.464-3.24-.927-4.63.926 0 1.852-.463 2.778-.463l.464.463c-1.39.463-2.315.463-1.852 2.315l.463 2.316 5.092-.926-.463-2.315c0-.926-.926-1.39-1.852-.926v-.464c.926 0 1.39 0 2.315-.463.926 0 1.39-.462 2.315-.462v.463c-.926.463-1.852.463-1.852 1.852l.463 2.315 4.63-.463c1.39 0 .926-1.39.926-2.315-.464-2.314-.464-3.24-2.78-3.24v-.463h3.242c0 .925.463 3.24.463 4.628.463 1.39.463 3.704.926 4.63l-.925.463zm-3.24-14.353c.925 0 .925-.464.925-.927v-2.315c0-.926-.463-1.39-.926-1.852-.463-.463-.926-.463-1.39-.463v-.463c.927 0 2.316.463 3.242.463v4.63c0 1.39 0 3.24.463 4.63h-.464v-.463c0-.463 0-1.39-1.39-1.39l-10.184.464c-.926 0-.926.926-.926 1.39v.462h-.463v-2.778-2.778h.463v.926c0 .926 0 1.39.926 1.39l9.722-.927zm-4.168-10.65l-5.555-1.85 5.555-1.39v3.24zM37.5 99.05c-.463 0-1.39 0-1.852-.463l-8.797-1.85c-2.313-.464-2.313-1.39-1.85-2.316v-.462h-.463c0 .926-.463 1.39-.463 2.315 0 .926-.463 1.388-.463 2.314h.464v-.463c0-.463.463-1.388 2.314-.925l6.945 1.85-11.11 5.556c0 .463 0 .926-.464 1.39 0 .462-.464 1.388-.464 1.85h.463c0-.925.925-1.388 1.85-1.388l8.334 1.852c1.39.463 2.315.926 2.315 1.852v.925c0 .463-.464.926-.927.926s-1.39.463-1.852.463l-10.184 2.315h-.463c0 .464.463.927.926 1.853.925 0 1.85.463 2.314.926l8.796 3.703c.926.463 1.39.926.926 1.852h.463v-1.852c0-.926 0-1.39.462-2.315h-.463c0 .463 0 1.39-.927 1.39-.463 0-.926-.464-1.39-.464l-1.85-.926.462-4.167 2.315-.462c.463 0 1.39-.463 1.39-.463.462 0 .462.926.462.926h.463v-2.777c0-.926.463-2.314.463-2.314 0-.927 0-1.853.463-2.316 0-.926.464-1.39.464-2.315h-.463v.462c-.462 1.39-.925 1.39-2.777.926l-7.87-1.852 12.962-6.482-.925.926zm-.463-5.555c1.388.463 1.85 0 2.314-1.39.927-2.777-.925-5.092-3.702-6.48-4.63-1.852-6.945 0-7.87 2.314 0 .462 0 .925-.464 1.388l9.723 4.167zm0 4.166c.463-.924.463-1.387-.463-1.85l-9.26-3.704c-.926-.463-1.39 0-1.39.926h-.462c0-.463.926-1.39.926-2.778.463-.926.463-1.852.926-2.778 1.852-4.166 5.093-5.555 8.797-4.166 3.704 1.388 5.556 5.555 3.704 8.796l-1.39 2.778c-.46.926-.924 2.314-.924 2.777h-.463zm2.314-27.776c-.925-.463-2.776-.463-3.24.463-.925 1.388-.462 2.314.927 3.24 2.777 1.852 4.63-3.24 8.796-.926 2.315 1.39 2.315 3.705 1.39 6.02-.464.926-1.39 1.39-2.316 1.852l-2.778-1.39v-.462c1.388.463 3.24.463 4.166-.926.463-.926.463-2.315-.926-3.24-2.778-1.853-4.63 3.24-8.796.925-2.315-1.39-2.778-3.705-1.39-5.556.464-.463 1.39-1.39 1.39-1.852.926.463 1.85.926 2.777 1.852zm.927-5.093c-.926.927-.463 1.39.463 2.316l-.463.463-1.39-1.39c-.462-.463-.924-.926-1.387-.926l.463-.463c.462.464.925 0 .925-.462l5.556-7.407c.463-.462.463-.925 0-.925l.463-.463.926.926c.463.463.926.463 1.39.926v.462c-.464-.462-1.39-.925-2.316 0l-1.852 2.315 8.334 6.483c1.387.926 1.85.463 2.313 0v-.463l.463.463c-.463.463-1.39 1.39-1.852 2.315-.463.926-1.388 1.85-1.85 2.314L50 70.81v-.463c.463-.926.926-1.39-.463-2.315l-8.334-6.482-.926 3.24zM53.24 59.7l-2.777-5.092 5.092 2.778-2.315 2.314zm19.908-9.722l-1.39-1.39-5.555-6.943c-1.39-1.852-.926-2.315-.463-2.778l-.463-.463c-.463.463-.925.926-1.85 1.39-.464.462-1.39.925-1.853 1.388l.463.463.463-.463c.463-.463 1.39-.926 2.314.463l4.63 5.555-12.5-2.778c-.463.463-.926.926-1.39.926-.462.463-.925.926-1.85 1.39l.462.462c.463-.463 1.852-.463 2.315.463l5.094 6.483c.926 1.39 1.39 2.315.463 2.778-.463.464-.926.464-1.39.464-.462-.463-1.388-.463-1.85-.926l-9.723-4.63h-.463c0 .463-.462 1.39-.462 1.852.463.463.926 1.39 1.39 2.315l4.628 8.333c.463.926.463 1.39 0 1.852l.463.463 1.388-1.39 1.39-1.388-.464-.463c-.463.463-.926.926-1.39.463-.462 0-.462-.926-.925-1.39l-.927-1.85 2.778-2.78 2.316.927c.463.463.926.463 1.39.926.462.463 0 .926-.464 1.39l.463.462 1.852-1.852 1.852-1.852c.462-.462 1.387-.925 1.85-1.388.463-.463 1.39-.926 1.852-1.39l-.463-.462h-.464c-.926.926-1.852.463-2.777-.926l-5.094-6.482 14.352 3.24v-.462zm.926-9.722l2.315-1.39c.925-.462.462-.925 0-1.85l.462-.464c.463.463.463 1.39.926 1.852.462.926.925 1.39 1.388 1.852l-.463.463c-.463-.926-1.388-1.39-2.314-.926l-1.853.927 2.315 4.166c.463.926 1.388.463 1.85 0l.464.463-2.777 1.39c-.927.462-1.853.925-2.316 1.388l-.463-.463c.464-.462.927-.925.464-1.85l-5.093-8.797c-.462-.926-1.388-.463-1.85-.463l-.464-.463c.926-.463 2.778-1.39 3.704-2.315 1.39-.926 2.778-1.852 3.704-2.315.463.926.926 1.852 1.39 2.315l-.464.463c-.926-.926-1.39-1.852-2.778-.926l-2.315 1.388 4.167 5.556zm14.815.463c3.24-1.39 2.314-4.63 1.388-7.408-.926-2.778-3.704-5.093-6.482-4.167-2.778 1.39-2.315 4.166-1.39 6.944.927 3.24 3.705 5.556 6.483 4.63M83.332 28.68c3.704-1.39 7.408-.463 8.796 3.24 1.85 4.167.462 7.87-3.24 9.723-3.705 1.39-7.41 0-8.798-3.704-1.39-4.168 0-7.87 3.24-9.26m29.168 5.092c-1.39 0-1.852 0-1.852-1.39l-1.39-10.647c.464 0 .927 0 1.39-.463 2.778-.463 5.556.926 6.02 6.02.462 3.24-.927 6.017-4.168 6.48M98.148 30.07h-.926l-1.39-5.557s.464 0 .927-.463c1.388-.463 2.777.463 3.24 1.852.463 2.778 0 3.704-1.852 4.167m20.833-3.242c-.462-4.167-3.702-6.482-7.87-6.02-.925 0-1.85.464-2.777.464-.926 0-2.315 0-2.778.463v.463h.463c.463 0 1.39 0 1.39.926l1.388 10.185c0 .925-.463 1.388-1.39 1.388h-.462c-.926 0-1.39 0-1.852-.463l-4.166-4.166c1.39-.927 1.852-2.316 1.39-4.168-.927-2.778-2.78-2.778-5.094-2.315-.926.463-1.852.463-2.778.926-.926.463-2.315.463-2.778.463v.463h.463c.462 0 1.388-.464 1.388.925l2.778 9.722c0 .926-.463 1.39-.926 1.39h-.463v.462c.926-.464 1.39-.464 2.315-.927.926-.463 1.852-.463 3.24-.926v-.463H100c-.926 0-1.39.463-1.852-.926l-.926-4.166.926-.463c1.852 1.85 3.704 3.702 5.093 5.554.464 0 .927-.463 1.39-.463.462 0 .925 0 1.388-.462.463 0 1.852-.463 3.24-.463 1.39 0 2.316-.463 3.242-.463 4.63.463 6.944-3.24 6.48-6.944m8.798-5.093c0-.926-.926-.926-1.39-.926h-.462v-.464h5.555v.463h-.462c-.462 0-1.388 0-1.388.925l-.463 11.574c0 2.314-1.39 4.63-3.704 4.63-.926 0-2.315-.464-1.852-1.853 0-.463.464-.926.927-.926 1.39 0 .463 1.853 1.852 1.853.462 0 .925-.926.925-1.39l.463-13.888zm6.944.463c0-1.39-.463-1.39-1.39-1.39v-.462c.927 0 1.853.463 2.78.463.925 0 1.85 0 2.777.462v.463c-.927 0-1.39 0-1.39 1.39l-.926 6.944c-.463 2.313.463 4.165 2.778 4.628 2.315.463 3.704-.926 4.167-3.703l.924-6.482c0-1.39-.462-1.39-.925-1.39h-.464v-.462c.926 0 1.388.464 2.314.464h1.852v.463h-.463c-.464 0-.927 0-1.39 1.39l-.926 6.018c-.462 4.166-2.777 5.092-5.555 5.092-3.242-.463-5.094-2.315-4.63-5.555l.462-8.334zm21.76 12.963l2.314-6.943c.463-1.39-.463-1.852-.926-2.315h-.462v-.463c.925.462 1.388.462 2.314.925.926 0 1.39.463 2.315.463v.463h-.463c-.926 0-1.39-.462-2.315 1.853l-2.315 8.333c0 .463-.463 1.39-.463 1.852h-.463l-5.557-13.426-2.315 7.87c-.463 1.852-.463 2.315.926 2.778h.463v.463c-.926 0-1.39-.463-2.315-.926-.926-.463-1.39-.463-2.315-.463v-.463h.463c1.39.464 1.852-.462 2.315-1.85L150 25.44c.463-.927-.463-1.853-.926-2.316h-.463v-.463c.464 0 1.39.464 1.853.464.463 0 .926 0 1.39.463l4.63 11.574zm1.388 4.168c.926.463 1.39.463 1.852-.463l4.167-9.722c.462-.926 0-1.39-.927-1.39v-.462c.463.464 1.39.927 2.315.927.926.463 1.852.463 2.778.926l-.463.463c-.463-.463-1.39-.463-1.852.463l-4.166 9.72c-.463.927 0 1.39.926 1.39h.463l-.463.463c-.926-.463-1.852-.926-2.778-.926-.926-.463-1.852-.463-2.314-.926l.462-.462zm11.112 5.092c3.24 1.852 5.092-.925 6.48-3.703 1.39-2.315 1.853-6.02-.925-7.408-2.778-1.39-5.092.925-6.48 2.777-1.39 3.24-1.39 6.945.925 8.333m6.48-12.037c3.242 1.852 4.63 5.556 2.78 9.26-2.316 3.703-6.02 5.092-9.723 3.24-3.242-1.85-4.63-5.555-2.78-9.26 2.316-3.24 6.482-4.628 9.723-3.24m6.482 12.037l.926.463c1.39.926 2.778.926 4.167-.925.926-1.39.926-2.778-.463-3.704-.463-.463-.463-.463-.926-.463l-3.703 4.63zm.463-4.63c.926-.925.463-1.388 0-1.85h-.463l.463-.464c.463.463 1.39.926 2.314 1.852.926.463 1.39.926 2.315 1.852 1.852 1.39 3.24 3.24 1.39 5.092-.927 1.39-2.316 1.852-4.168 1.39l-.463 6.018c0 .926 0 1.39.462 1.852l-.463.463c-.463-.463-.926-.926-1.39-.926-.462-.464-.925-.464-1.388-.927 0-2.315.462-4.63.925-7.408l-.926-.926-2.316 3.24c-.926 1.39-.463 1.852.463 2.315h.463l-.463.463c-.926-.463-1.39-1.39-2.315-1.852-.926-.463-1.39-.926-2.315-1.39l.463-.462h.463c.463.463 1.39.463 1.852 0l5.093-8.333zm14.814 11.575c.926-.926.463-1.39 0-1.852l.463-.463c.463.463.926 1.39 1.852 2.315l1.852 1.852-.464.463c-.463-.463-.926-.926-1.852 0l-5.092 4.63c-1.852 1.85-2.315 3.24-.926 5.092 1.39 1.852 3.704 1.39 5.555-.463l4.63-4.63c.927-.926.464-1.39 0-1.852l-.462-.463.926-.463c.463.463.926.926 1.39 1.852l1.388 1.388-.463.463-.464-.463c-.463-.463-.926-.926-1.852 0l-4.63 4.167c-3.24 2.777-5.555 2.314-7.407.462-2.315-2.315-2.778-5.093 0-7.407l5.555-4.63zm9.26 23.61l6.018-4.166c1.39-.926.926-1.852.463-2.315v-.463l.463-.463c.463.462.926 1.388 1.39 2.314.462.463.925.925 1.388 1.85l-.463.464c-.462-.463-.925-1.39-2.777 0l-7.407 5.093-1.39 1.39-.462-.463 4.167-13.89-6.48 4.63c-1.39.927-1.853 1.39-.927 2.778v.463l-.463.463c-.463-.462-.926-1.388-1.39-1.85-.462-.463-.925-1.39-1.388-1.852l.463-.463c.926.926 1.852.926 2.778 0l6.945-4.63c.926-.463.926-1.852.463-2.315l.464-.463c.463.463.926.926.926 1.852.463.462.463.925.926 1.388l-3.704 10.648zm-1.39 4.63c.464.927.927 1.39 1.853.927l8.796-4.63c.927-.463.464-.926.464-1.852l.463-.463c.463.463.926 1.39 1.39 2.315.462.926.925 1.852 1.388 2.315l-.463.463v-.463c-.463-.463-.926-.926-1.39-.463l-8.795 4.63c-.926.463-.463.926-.463 1.85l-.463.464-1.388-2.777c-.463-.925-.926-1.85-1.39-2.314zm16.205 4.63c-.463-.925-.926-.925-.926-.925s-.462 0-.462.463l-6.945 6.018 8.334-.462h.926c.463 0 .463-.926 0-1.39v-.462h.463c.463.463.463 1.39.925 1.852 0 .463.464.926.927 1.39l-.463.462c0-.463-.463-.463-.925-.463-.464 0-7.872.463-11.113.463h-1.85l-.464-.463 9.722-8.796c.463-.462.926-.925.463-1.85h.463c.464.925.464 1.85.927 2.777.463.926.926 1.85.926 2.314l-.926-.925zM212.5 95.347c0 .926.463 1.39 1.39 1.39l9.72-2.78c.927-.462.927-.925.464-1.388h.463c.463.925.926 2.777.926 4.166.463 1.388.926 3.24 1.39 4.166-.927 0-1.853.463-2.78.926l-.462-.463c1.39-.463 2.316-.926 1.39-2.778l-.463-2.314-5.092 1.388.463 1.853c.463.926.926.926 1.852.926v.462c-.926 0-1.39.463-2.315.463-.926 0-1.39.463-2.315.463l-.463-.463c.926-.463 1.852-.463 1.39-1.852l-.464-1.852-4.167 1.39c-1.39.463-.926 1.39-.463 2.315.463 1.852.926 2.778 3.24 2.778v.463h-3.24c-.463-.926-.926-3.24-1.39-4.63-.462-1.39-.925-3.703-1.387-4.63h2.314zm9.723 12.963v.926c.463 1.85.926 2.777 3.24 2.314 1.852-.463 2.778-1.388 2.315-3.24v-.926l-5.555.926zm4.166-2.778c1.388 0 1.388-.926 1.388-1.39v-.462h.463c0 .463 0 1.852.464 2.778 0 .926.463 1.852.463 2.778.463 2.314 0 4.166-2.778 4.63-1.853.462-2.78-.464-3.704-1.853l-4.63 3.704c-.926.463-.926.926-.926 1.852h-.463v-1.853c0-.463-.463-.926-.463-1.852 1.852-1.852 3.704-3.24 5.556-4.63v-.925l-4.167.463c-1.39 0-1.39.926-1.39 1.85v.464h-.462c0-.925-.462-1.85-.462-3.24 0-.926-.463-1.852-.463-2.778h.463v.462c0 .463.463 1.39 1.39.926l9.72-.926zm.925 18.98c1.39-.462 2.315-.924 2.315-2.313 0-1.39-.926-2.316-2.315-2.316-3.24 0-1.852 5.555-6.48 5.555-2.78 0-4.168-1.852-4.168-4.167 0-.926.463-1.852.926-2.778.926 0 1.852-.463 2.778-.463v.463c-1.85.463-3.24.926-2.777 2.778 0 1.39.926 2.315 2.315 2.315 3.24 0 2.315-5.093 6.944-5.556 2.315 0 4.167 1.39 4.167 3.704v2.777h-3.705zm-10.185 1.853c0 .926 0 1.39.926 1.39l10.185.462c.927 0 .927-.463.927-1.39v-.462h.463v5.556h-.463v-.462c0-.463 0-1.39-.926-1.39l-10.184-.462c-.926 0-.926.463-.926 1.39h-.463v-2.78-2.777l.463.925zm11.574 9.26c0-1.39 0-1.39-1.39-1.852v-.463c.464 0 .927.463 1.39.463.463 0 .926.463 1.39.463v.463c-.464 0-.464.462-.927.925l-1.39 9.26c0 .462 0 .925.464.925v.463c-.462 0-.925-.463-1.388-.463-.463 0-.926 0-1.39-.463v-.463c.927 0 1.853 0 1.853-.926l.463-2.778-10.185-1.39c-1.39 0-1.852.464-1.852 1.39v.463h-.462c0-.463.463-1.852.463-2.778 0-.926 0-2.314.464-2.777h.463v.463c0 .926 0 1.39 1.39 1.852l10.184 1.39.464-4.167zm-9.26 13.89l6.02-1.853c.925-.463 1.388-.463 1.85-1.39h.464c-.463.927-.463 1.853-.926 2.78-.463.925-.463 1.85-.463 2.776h-.464v-.926H225l-4.63 1.39 2.78 3.24c.46.463.924.926.924.926.463 0 .463-.463.926-.926v-.463h.463c0 .462-.463 1.388-.463 1.85 0 .464-.463.927-.463 1.853h-.463c0-.463 0-1.39-.463-1.39l-4.165-4.63-4.63-1.388c-1.39-.463-1.852 0-1.852.926v.464h-.463c.463-.926.463-1.852.926-2.777 0-.926.463-1.852.463-2.778h.462v.462c-.463.926 0 1.39.926 1.852h4.167zM112.5 227.29c0 .926.463 1.39 1.39 1.39h.462v.462c-.926 0-1.852-.463-2.778-.463-.926 0-2.315-.462-3.24-.462v-.463h.462c.926 0 1.852 0 1.852-.926l1.39-9.724c-.927.463-1.853.463-2.78.926v-.463c.927-.464 1.853-.464 2.78-.927.925-.462 1.85-.925 2.314-1.388h.463l-2.315 12.037zm7.407 1.852c1.39 0 1.852-.926 1.852-1.852 0-1.852-1.39-2.778-2.78-3.704-.925.463-1.387 1.852-1.387 2.778 0 1.39.925 2.778 2.314 2.778m.926-7.408c.926-.463 1.39-1.852 1.39-2.778 0-1.39-.464-2.777-1.853-2.777-.926 0-1.852.926-1.852 1.852 0 2.315.926 3.24 2.315 3.704m-2.315 1.39c-1.388-.927-1.85-2.316-1.85-3.705 0-2.777 2.313-3.702 4.165-3.702 1.852 0 3.24 1.388 3.24 3.24 0 1.39-1.388 2.778-2.777 3.24 1.39.927 2.778 1.853 2.315 3.705 0 2.315-1.85 3.703-4.166 3.703-1.85 0-3.703-1.388-3.703-3.24.464-1.852 1.39-2.778 2.778-3.24m13.426-.927c-.463.925-1.388 1.85-2.314 1.85-1.852 0-3.24-1.388-3.24-3.703 0-2.778 1.85-4.63 4.166-4.63 2.777 0 4.166 2.315 4.63 5.093.462 4.63-4.168 8.334-7.87 9.26l-.464-.464c3.704-.925 6.018-4.166 6.018-8.333 0-1.39-.926-4.63-2.777-4.63-1.39 0-1.852 1.39-1.852 2.315 0 1.39.927 3.24 2.316 3.24.462 0 .925-.462 1.388-.462v.463zm10.65 4.166c0 .926.925.926 1.85.926h.463v.463c-.925 0-1.85.463-2.777.463-.926 0-2.315.463-3.24.463v-.462h.462c.926 0 1.39-.463 1.39-1.39l-1.39-9.722c-.463.463-1.39.926-2.315 1.39l-.463-.464c.463-.463 1.39-1.39 2.315-1.85l1.85-1.853h.464l1.39 12.036zm61.11-40.278v5.092l-2.778-4.166c-.463 0-4.63 1.852-4.63 1.852s2.778-3.704 3.24-4.167l-2.776-4.168s4.166 1.852 4.63 1.852l3.24-4.167s-.463 4.63-.463 5.093c.463 0 5.093 1.852 5.093 1.852s-5.093.926-5.556.926m-10.648 11.574c0 .463-.463 5.093-.463 5.093l-1.852-4.63c-.462 0-4.63.926-4.63.926l3.705-3.24-2.315-4.167 4.167 2.315 3.704-3.24-1.388 4.63c.463 0 4.63 2.314 4.63 2.314h-5.556m-12.5 10.185l-1.39 5.093s-1.388-4.63-1.388-5.093h-5.093l4.167-2.778c0-.464-1.39-4.63-1.39-4.63s3.705 2.777 3.705 3.24l4.167-2.777-1.852 4.63 4.166 3.24-5.092-.926M45.833 186.55v5.093l2.778-4.166 4.63 1.852s-2.777-3.705-3.24-4.168l2.777-3.704s-4.166 1.852-4.63 1.852l-3.24-4.167s.463 4.63.463 5.093l-5.093 1.852c.463-.463 5.556.463 5.556.463m11.11 12.038c0 .463.464 5.092.464 5.092s1.852-4.63 2.315-4.63l4.63.927-3.704-3.24 2.315-4.168-4.167 2.314-3.704-3.24 1.39 4.63c-.464 0-4.63 2.314-4.63 2.314h5.092m12.5 10.185c0 .463 1.39 5.093 1.39 5.093s1.388-4.63 1.388-5.093h5.093l-4.167-2.778 1.39-4.63s-3.705 2.778-3.705 3.24l-4.167-2.776 1.852 4.628-4.166 3.24s4.63-.925 5.092-.925"/>
    <path d="M129.16600000000003 155.99599999999998v-2.78c-.462.927-.462 2.316 0 2.78zm-.925 16.666v-.926.926m0 0zm17.13-26.39c.926 0 .463-.925.463-1.388-.463-.463 0-1.852-.926-1.852 0 1.39.463 2.315.463 3.24zm1.39.464c.462 0 .462-.463.462-.463 0-.463-.463-.463-.463-.463-.927 0-.464.463 0 .926m-.464-3.24c.463-.464.463-.927.463-1.39.462-1.39-1.39-1.39-.927-2.315-.463-.925-1.39-.925-1.39-1.85-.46-.464-1.387 0-.924.462.462.926.924 1.852 1.85 2.315-.463.926 1.852 1.852.926 2.778m-3.703-4.167c0-.463-1.852-.926-1.852 0 0 .463.927.463 1.39.926l.463-.926zm-.926-2.315c-.463-.925-.926-1.388-1.39-.925v.463c.464.463.927.926 1.39.463m-3.24-.925l-.464.463c.926.463 1.39 1.852 2.315 1.39-.463-.927-1.39-1.39-1.852-1.852m17.13-1.852c.463-.463 0-1.39 0-1.852-.463-.463-1.39-1.39-1.852-.463.463.464.463 2.316 1.852 2.316M152.315 133.774c.463.462.463.925.926.925.464 0 .927-.464.464-.927.463-.926-1.39-.463-1.39 0m-1.388-1.852c.463 0 .463.464.926.464.463-.926-.463-2.315-1.39-3.24-.925.925.927 1.388.464 2.777m-7.407-3.24c-.927-.926-1.39-1.852-2.78-1.39v.464c1.853.463.464 3.24 2.78 3.24.462-.462 0-1.388 0-2.314m1.85-.463c-.463.926-.926 1.39-.463 2.315.463.463.926.463 1.39.463.925-.463 0-1.39.462-1.852-.464-.463-.464-.926-1.39-.926" class="st1"/>
    <path d="M140.278 125.44c.463.462.463.925 1.39.925 1.388.926 2.314 2.315 2.776 3.704.463 0 .463-.464.463-.464-.463-.926-.925-1.852-.925-2.778-.926-1.39-2.315-1.852-3.704-1.39m.926 5.094c-1.39-.926-.926.926-1.852 1.39.463.462.463.462.926.462.463-.463 1.39-.926.926-1.852m2.778-9.26l.462 1.853c.463 0 .926 0 .926-.463.463-.463-.926-.926-1.388-1.39m7.407-18.055c.462.463.462 1.852 1.388 1.852.463-.464-.463-.927 0-1.853-.463-.463-1.39-.463-1.39 0m-4.166-1.852c.463.463.926.926 2.315 1.39l.463-.464c-.463-.462-1.39-.925-2.315-1.388l-.463.463zm-3.24-1.39c.925 0 1.388.927 2.314.927 0-.463-.463-.926-.926-.926-.926 0-1.388-.463-2.314-.463l.926.463zm-4.167-1.388v.926c1.39.926 1.852 3.704 4.167 3.24-1.39-1.85-2.315-3.703-4.167-4.166m-1.852 1.39c.463.462 0 1.85.926 1.85.462 0 .925-.462.925-.925 0-.926-1.39-2.315-1.852-.926m-.926 2.315c0 .464.463.464.463.464.463 0 0-.463 0-.463.926-.925-.926-.462-.463 0m.463-1.388c.463 0 .463-.463.463-.926-.463-.463-.463-1.852-1.39-1.852-.925.926.927 1.39.464 2.315 0 .462 0 .462.463.462" class="st1"/>
    <path d="M135.185 99.976v.463c.926.462 0 1.85 1.39 2.314 1.85-.463-.464-1.39 0-2.315-.464-.464-.927-.464-1.39-.464m-1.852-3.24c-.926.925.463 1.388.926 2.314l-.927.463c0 .463 0 .463.463.926.463 0 .463 0 .463-.464-.927-1.39 1.388-.926.925-2.315-.463-.924-.926-.924-1.852-.924m-1.39-5.093c-.462 0-.925-.463-1.387 0l.462.463s.926 0 .926-.463m19.445-.463c.462 0 1.388.463 1.388 0l-1.852-1.852c-.463 0-.463 0-.463.463 0 .464 0 .927.926 1.39m-3.705-2.315c0 .463.463.926.926.926.464-.462 0-1.388 0-1.85-1.388-.464-1.85-2.316-3.24-2.316.463.926 2.315 1.852 2.315 3.24m-.463-.462c-.463-.463-.926-1.39-1.852-.926-.926.463.463.926.463 1.39.463 0 .926.462 1.39-.464m-7.87-1.39c.462 0 .462.927.925.464.463 0 .463 0 .463-.463-.462 0-1.388-.926-1.388 0" class="st1"/>
    <path d="M136.11 82.847l.464.463c1.852 0 1.39 2.314 3.24 1.85.464 1.39 1.853 1.39 2.78 2.78.925.925-.464 3.24 1.388 3.703.462-.926.462-2.315.462-3.24 0-.927-1.85-1.39-1.85-2.316.925 0 .925.926 1.85.463.463-.926-.462-1.39-.925-1.852-2.78-.463-4.63-1.85-7.41-1.85m1.39 1.85c-1.39.463-.926-1.85-2.315-.925.463.462.926 1.388.926 1.85.464.464.927.464 1.39 0 .463-.462 0-.462 0-.925m-4.63-2.777c.463.464.926.464 1.39.927.462 0 .462 0 .462-.463-.463-.926-1.39-1.39-1.852-.463m-4.63-4.166c0 1.39.464 2.315.464 3.704.463 0 .463 0 .926-.463v-.463s0-.463.463-.463c0 .925.925 2.314 1.388 2.777.464 0 .927.463 1.39 0-.463-.926-.926-2.315-1.39-3.24-.924-.927-1.85-2.316-3.24-1.853m17.13-1.852c.463 0 0-.463.463-.926 0-.926-1.39-1.39-1.85-.926.924.926 0 1.852 1.387 1.852m-4.166-2.778c0-.926-1.39-.926-2.315-.926v.463c.925 0 1.388.927 2.314.464m0 2.778c.463-.463.463-.926.463-.926-.463-.926-1.852-1.39-2.315-.463.463.463.926 1.852 1.852 1.39m-5.556-3.705c.463-.463 1.39.463 1.852-.463 0-.463-1.39 0-1.852.463m-.926 2.778c.463.463.926.463 1.39.463v-1.39c-.464-.463-.464-.926-1.39-.463v1.39zm-7.87-6.48c.463.462.926 1.388 1.852 1.388.926.925 2.314 1.85 3.24 2.777.926.464.926 2.78 2.315 2.316-.464-2.778-3.704-4.167-5.556-5.092.463-1.852-1.39-2.315-1.852-1.39m11.11-1.85v-.927h-.925s0 .926.926.926m-1.852-.463c-.462-.463-.462-1.39-1.388-1.39v.464c.463 0 .926 1.39 1.39.926m.925-2.315c0-.463-.926-.926-1.39-1.39-.925-.462-1.388-1.388-2.314-1.388 0 2.315 2.315 1.39 3.704 2.778m-4.167 1.39c.463 0 .463-.464.463-.927s-.463-.463-.926-.463c0 .926-.463 1.39.463 1.39m-.463-2.78v-.925c-1.39 0-.926-1.852-2.314-1.852v.463c.925.927.925 2.316 2.314 2.316m-24.537 4.63zm2.315-2.315c-.463.464-1.39.464-1.39 1.39h.464s1.388-.463.925-1.39m0-1.388c-1.39 0-2.315.926-2.315 1.852h.463c.463-.926 1.852-.926 1.852-1.852m4.167-2.315c-.926.463-2.315 0-2.315.926.463-.463 1.852 0 2.315-.926M112.5 64.79c-.463-1.85 2.315-.462 2.315-2.314-.926 0-1.852.463-2.778.926.463.926-.463 1.39-.463 1.852.463 0 .926-.463.926-.463m4.63-4.63c-.463-.462-.926 0-1.39.464 0 .463-.462.463 0 .926l1.39-1.39zm1.85 1.39c0-.463 0-1.39-.925-1.39-.462.464-.925.927-.462 1.853.925.463.925 0 1.388-.463m-12.036 25.463c.463 0 .463-.463.463-.463h-.463s-.463.463 0 .463m.926-2.778c0 .463-.463.926 0 1.39.463 0 .926-.464 1.39-.927.462-.925 1.85-1.388 1.388-2.314-1.852-.463-1.852 1.39-2.778 1.85m4.63-2.313l-.463-.925c-.463 0-.463.463-.463.926 0 .464.463 0 .926 0m-9.26 12.5h-.462c0 .464.463 0 .463 0m-2.777 8.334c.463 0 .926 0 1.39-.463-.464-.462-.927-.462-1.39-.462 0 .463-.926.463 0 .926m.926-2.778c.462 0 .462-.463.925-.463 0-.463-.463 0-.926 0-.464-.463-.464 0 0 .463zm2.314-1.39c.463.464 1.388-.462 1.388-.925-.463-.462-1.388-.924-1.85 0 .462.464.462.927.462.927m1.85-3.703c.464 0 .927-.463.927-.926-.462-.463-1.388 0-1.388 0-.925.926 0 .926.463.926m1.39.463c-.464 0-.927-.463-.927.463.463 0 .926 0 .926-.463m0-1.39c.463 0 .463-.462.463-.462s0 .463-.463.463m-.463 15.278v.463l.464-.464h-.463m2.316-1.852c0 .463 0 .463.463.926.462 0 1.388-.463 1.388-1.39-.463-.925-1.39-.462-1.852.464m3.704-1.39c0 .464.463 0 .926 0 .926-.462.463-1.85.463-2.314-1.853-.926-1.39 1.39-1.39 2.315m2.778.926c1.39-.925.463-2.777.926-3.703-.463 0 0-.926-.926-.926-.463 0 0 .464-.463.927 0 .926.463 2.778-.463 3.704h.926zm.926-5.555c0 .463.463 1.39.926 1.852.463 0 .463-.463.463-.926 0-.462-.926-.925-1.39-.925m.927 4.63c.463-.463.925-.463.463-.926 0-.464-.463-.464-.926-.464-.463.463 0 .926-.463 1.39h.926zm1.388-6.945c-.463-.463 0-1.39-.463-.926-.925.926-.462 2.315 0 3.24h.463V99.05zm-23.61 26.39l-.464-.464-.463.926c.464.463.927 0 .927-.463m-1.39 1.388c-1.388-.463-.925.926-1.388 1.39.925.462 1.388-.927 1.388-1.39m-5.092 11.11c.463-.462.463-.925.463-1.387 0-.462-.464 0-.927-.462-.463 0-.463.925-.463 1.388.463.463.926.463.926.463m.926-5.556c.463 0 .463-.463.463-.463 0-.462-.926 0-.926.464 0 0 0 .463.462 0m0 1.39c0 .462-.463 1.388 0 1.388.926 0 .463-.926.926-1.39 0 0-.463-.462-.926 0m3.703-1.388c0-.463-.463-.463-.463-.463-.463 0-.463.464-.463.927 0-.463.462-.463.925-.463" class="st1"/>
    <path d="M91.204 132.847c0-.463 0-.463 0 0l.462-2.778v-.927c.463.463 0 .926 0 1.39.463 0 .926.925 1.39.925.462-.463 0-1.39.462-1.852v.463c.463 0 .926 0 .926-.464.463-.463 0-.463-.463-.926-.462 0-.925.463-.925.463-.463 0 0-.463-.463-.463-.463-.463-.926 0-1.388.463l-.463-.463c-1.388 0-1.388 1.39-1.85 1.852 1.388 1.39 1.85 1.39 2.314 2.315m4.166-5.556c1.39-.925 1.852-2.314 2.315-3.702-2.315-.463-1.39 1.85-2.315 2.777-.463.463-.463.926 0 .926m2.778-4.628c.926 0 1.39-.926 1.852-1.39-.926 0-1.39.464-1.852.927-.463 0-.463 0 0 .462m4.63.926c0-.463.463-.463.463-.926h-.462c-.463.463-.463.926 0 .926m-1.39-2.315c-.462 0-.925.926-.462.926 1.39.462 1.39-1.853 3.24-.927-1.388-.926-1.85.463-2.777 0m2.314 4.63c.925.462 1.388 0 1.388-.927 0-.463-.463-.463-.925-.463-.463.463-.463.926-.463 1.39m.925-3.24c0 .462-.926.925 0 .925 0 0 .462-.463.462-.926h-.463m.925-1.852c-.463 0-.463.463-.463.926.463-.463.926-.463.926-.926h-.463m1.852 2.778c.463 0 .463 0 .926-.463.463.463-.463.925.463 1.388.463 0 .926 0 .926-.463 0-.925-.463-1.388-.463-2.314h-.464c-.463 0-.463.463-.926.926l-.463-.463v-.927c-.463-.463-1.39 0-1.39.463.927.926 1.39 1.39 1.39 1.852m3.24-5.093c.464 0 .927-.463.927-.926 0-.464-.463-.464-.926-.464-.926 0-.463.926-.926 1.39h.926m-.463 3.703v1.388h.463c.463 0 .463-.463.463-.463 0-.463-.462-.926-.925-.926m1.39-2.316c.462-.926-.927-.926-1.39 0v.463c.926 0 .926 0 1.39-.463m2.314-4.63c.925 0 1.388-.926 1.85-1.39 0-.462-.462-.462-.925-.462-.463.463-.926.926-.926 1.852m2.777 3.24c0-.925.926-2.777-.463-3.24-.463.463-.926.463-.926 1.39 1.852.925-.463 2.314-.463 3.24h.463c0-.926.926-1.39 1.39-1.39m-16.205 32.87c.463-.462 1.39-1.387.926-1.85-.927 0-1.39.925-1.853 1.85h.926M100 147.2h.926c.463-.464.926-.927.926-1.39h-.926c-.463 0-.926.926-.926 1.39m1.852 3.24c0 .462 0 .462 0 0 .926 0 .926 0 .926-.463-.926 0-.463.462-.926.462m1.39-3.704c-.464-.463-.927-.463-1.39 0-.463.926.463.463.926.926.463-.463.926-.463.463-.926m2.315 3.24c0-.462 0-.462-.463-.462s-.925.463-.925.925c.462 0 1.388 0 1.388-.463m-.463-3.24c-.463 0 0-.927-.925-.464v1.39h.462c.462-.464.462-.464.462-.927m-.925-3.704c.462 0 .462 0 .462-.463-.926-1.39 1.388-1.853 1.85-2.78h-.462c-.926.927-2.314 1.853-1.85 3.242m3.24-2.315c-.464.463-1.39.926-.927 1.39.464-.464 1.39-.464 1.39-1.39h-.463m.926-.926v-1.85h-.926l-.463 1.85c.463 0 .926.464 1.39 0m.462-5.554c-.926 0-.926.463-.926.926h.463s.926 0 .463-.926m1.852.926v-2.778l-.926.926c.463 2.315-1.39 3.24-.926 5.555.926.463.463 1.852.463 2.315h.462c-.463-.926.926-1.39 0-2.315.463-1.39-.463-2.777.463-3.703 0 .463 0 0 .463 0m.463 0c-.462 1.39-.462 2.314-.925 3.24h.463c.926-.463.463-2.314.463-3.24m.464 3.703c-.926.463-.926 1.39-.926 1.852 0 .463.926 0 .926 0-.463-.463 1.39-1.39 0-1.852m.926-2.777v-.463h-.463c0 .463 0 .926.463.463m.926-1.852c0-1.39 1.852-.463 1.852-1.39.463-.462 0-.925 0-1.388-.463 0-.463.463-.926.463-.926-.925.926-.925.463-1.85-.926 0-1.39.925-1.39 1.85 0 1.39-.925 2.316-.925 3.242l.926-.926zm3.24 2.777l.464-.462c0-.925-1.39-.925-1.39 0 0 0 .464.463.927.463m31.944 55.093c.927-.463.927-.926 1.39-1.39 0-.462-.463-.925-1.39-.925.464.927 0 1.39 0 2.316m-.462-2.315c-.463-.46-.926-.924-1.39-.924v1.388c-.462.926-.462 1.852-1.388 1.852v.463c.926.462 2.315 0 2.778-.927-1.39 0 .463-.926 0-1.852m-3.704 1.853l.926-.926c.463-1.388-.926-1.85-1.85-1.388.462.46.924.924.924 1.387 0 0-.462 0-.462-.463-.463 0-.926-.925-1.39-.463.464.464.464 1.853 1.852 1.853m-2.314-2.314c-.463-.464-.463-1.39-1.39-1.853l-.462.463c.463.926 1.39 1.39 1.852 1.39m1.39 4.165c0-1.39-.927-2.315-1.853-2.778-.926-.463-1.39-1.85-2.778-1.85l-.464.462c1.852 1.387 3.24 2.776 4.167 4.628.463 0 .926 0 .926-.463m-37.04-.926c.927.462 1.853.462 2.78 0 .462-1.853 2.777-2.316 4.63-2.78 1.85-1.85 4.628-.924 6.017-2.313 0-.926 0-1.39-.463-1.852-.926 0 0 .926-.926 1.39-.463-.464-.925-.464-.925-1.39l-.463.463c0 1.852-1.852.926-2.315 2.315-2.315 1.85-6.02 1.388-8.334 3.703v.463" class="st1"/>
    <path d="M111.574 188.866c-1.39-.463-2.778.463-4.167.463-.926 1.387-2.778.924-3.24 2.313h1.388c1.39-.926 3.704-2.314 6.02-2.777m6.48-6.482h-.925c-1.39.926-.463 3.24-1.852 4.167l.926-.462c.926 0 0-1.39.926-1.852-.926-.926.925-.926.925-1.852m-3.24 2.315c0-.927.926-1.39.463-2.316-2.315.926-1.852 3.704-3.24 5.556l.462.463c.926 0 .926-.463.926-1.39 0-.925 1.39-.925 1.39-2.314 0 .462 0 0 0 0M125 135.16h.463v-3.704c-.926 0-.463 1.39-.926 1.852 0 .926.463 1.39.463 1.852" class="st1"/>
    <path d="M126.39 172.2c.925-3.242.462-7.41 0-10.65-.464 0-.464.927-.927 1.39.926-1.39-.926-2.778 0-4.167l-.463-.463v1.39c-.926 1.388 0 3.24-.926 4.628v-3.24c0-2.315 1.39-3.24 1.39-5.556 0-.926-.464-2.315 0-2.778 0-.463.462-2.315-.927-2.315-.463.925.463 1.85-.926 2.314v-.463c.927-1.85-.925-5.09.927-6.48.463.926-.463 1.852 0 2.778.463 0 .463-.463.926-.926.463.926-.463 1.39 0 2.315.463-.926.926-1.852.926-3.24h-.464c0 .462-.463.925-.463.925 1.39-2.315 1.852-4.63 1.852-7.87h-.926c0 .925 0 1.85-.464 2.777-1.39-1.39.463-2.78 0-4.168-.463 0-.926.463-.926.926 0 1.39-.463 2.778-.926 4.167 0 .926-.926.926-1.39 1.39v5.092c-.462 0-.462-5.093 0-6.945 1.853-1.852 0-4.167.927-6.48 0 .924.464 1.387.927 2.313 1.852-1.852-1.39-3.24 0-5.092 0-.463-.463-.926-.463-.926-.926.463-.463 1.39-.463 2.315 0 .463.927.926.464 1.39-.463 0-.926-.464-.926 0-.463.46.463 1.387-.463 1.85-.463.463-.926.926-.463 1.852-.926.926-.463 1.39-.463 2.315 0 .462 0 .925.462.462.463-1.39.926-2.778.926-4.167.463.926.463 1.852.463 2.778-1.85 1.852-.925 5.093-.925 7.408-.463.464 0 .927 0 1.852-1.39.926 1.852 2.778-.926 3.24v.464c.462 0 .925-.463.925-.463v1.852c0 .463-.463.926-.463 1.852 0 .463-.463.926-.463 1.39h.462c.463 0 .463-.464.463-.927 0 1.39-.463 3.24 0 4.63l-1.39 2.777c0 .463-.462 1.39.464 1.39.925-.927 1.85-5.556 2.314-4.63 0 1.388-.926 4.166-.463 5.555 1.39 0 .464-1.852 1.39-2.315l.463.463c0 .463 0 .926-.463 1.39 0 1.85.463 4.166.463 6.48 1.39-.462.463-3.24.926-4.63.462 1.39.462 2.78.925 4.63-1.39-1.388-1.39-1.85-.926-1.85M120.37 161.55c0-.462-.463-.462-.926-.462v.926h.463l.463-.463m1.39-37.962c-.464-.463-.927 0-.927.462 0 .463.463.463.463.463 0-.463.463-.463.463-.925m-1.39 6.018h.463v-.463l-.463.463zm1.852 1.852c.463-.463 0-.926 0-1.39l-.926.464v.926h.926m-.463-9.26c.925 0 .925-1.85 1.388-2.777h-.926c.463 1.39-.463 1.853-.463 2.78m-.464-21.761c-.463 0-.463.462-.463.925h.463c.463 0 .463-.926 0-.926m-.463 9.722h.463c.463-1.39.463-2.778 0-4.167h-.463c-.926.926 0 2.778 0 4.167m.926-7.408z" class="st1"/>
    <path d="M122.222 111.087h.463v-.463c.926-1.388.463-3.703.463-5.092-2.315.463-1.39 3.704-.926 5.555m.463 1.852c-.463 0-.463.462-.463.462 0 .463.463.463.926.463s0-.463.463-.926h-.925M125 99.512c-.463.926-.463 2.315.463 2.778.463 0 .926-.462.463-.925-.463-.926 0-1.852 0-2.778l-.463-.926c-.926 0 0 1.39-.463 1.853m1.39 38.426c.462.462.925-.464.925-.464.463-.463-.463-2.777-1.39-1.388 0 .463-.462 1.388.464 1.85m.925-13.888c0-.462-.463-.462-.463-.462v.462h.463zm-1.39 6.02c.464-.927.464-2.316 0-3.705-.925.463-.925 1.852-.925 2.778.463.463.463.926.926.926m-1.39-4.63v2.314c.927 0 .464-1.39.464-1.852 0-.463 0-.463-.463-.463m-.926-6.482c.464 0 .464 0 .927-.463 0-1.852.463-3.704-.463-5.093-.926 1.852-.463 4.167-.463 5.556m0-9.26v1.39c.464-.464 0-1.39 0-1.39m.927 20.37v-.925c-.463 0-.926 0-.463.463l.463.463m1.39-6.02s.462-.462 0-.462l-.464-.926c-.463 0-.463.463-.463.926 0 0 0 .462.926.462m0-12.963c-.463-1.388-1.39 0-1.39.463.927 1.852 0 4.167.464 6.02 0 .925-.463 1.388-.463 2.777h.926c-.463-1.39.926-2.315.463-3.704 1.39-1.39-.463-3.24 0-5.556m0-3.24c0-.463-.463-.463-.926-.463s0 .926-.463.926c.926.926 1.39 0 1.39-.463" class="st1"/>
    <path d="M124.537 104.606c-2.315.926.463 2.315-.463 4.63.926-.463 0-2.315.926-3.24.463 0 0 .925.463.462.926-.463.463-1.852.463-2.315 0-.463-.463-.926-.926-.926-.926 0 0 .926-.463 1.39m-.463 18.055v-1.39l-.926.927c0 .462.463.462.926.462m-1.39 1.388c-.925.926-.462 1.852-.462 2.778 0 .463 0 .926.463.463 0-1.388 1.39-2.777 0-3.24m.463 10.186h-.463.463zm-1.39.926c-.462 0-.462.463 0 .463 0 0 .464 0 0-.463m4.63 22.222c-.925-.463-.462.926-.925 1.39v1.85h.463s0-.462.463-.462c0-.926.462-1.852 0-2.778m-.464-.925c.463 0 .926 0 .926-.463-.463-.463-.926 0-.926.463m1.39 18.056c0-.463-.464-.463-.464-.463l.463.464zm-1.853-.926H125c-.463 1.39-.926 2.315-.463 3.703H125c.463 0 .926-.462.926-.924-.926-.463 0-1.39-.463-2.778m-1.852 11.11c.927.927.927 2.78 1.853 2.316l-1.39-1.852c0-.926.464-1.39.927-1.852-.463 0-1.39.463-1.39 1.39m2.78 4.63c.462-.464.462-.927.462-1.853h-.463c.925.926-.464.926 0 1.852m.462-5.094c-.463.463-.926.926-.926 1.852 1.39 0 .463-1.39.926-1.852m-2.315 5.093c-.926 0-1.39-.927-2.315-.927.463.926 1.852 1.388 1.852 2.314 0 .926-.463 1.852-.463 2.778.464.463.927.463 1.39-.463 0-.926.926-1.852 0-2.778.463-.463.926.463 1.39 0-.464-.463-1.853 0-1.853-.925" class="st1"/>
    <path d="M122.685 192.57c.463 0 .463-.464.463-.927-.463 0-.926.463-.926.463l.463.463zm-1.39-6.945c0-.926 0-1.39-.925-1.852-.926.926 0 1.39 0 2.315.926 0 .926-.463.926-.463m1.39-7.408c0 1.852-1.39 2.778-1.853 4.63h.463c.926-1.39 1.852-3.24 2.315-4.63h-.925m-1.39-9.722c-.462.463 0 1.39-.925 1.852.926.463 0 1.39 0 2.315h.926c.463-.463 0-1.852.463-2.315 0-.463.462-1.852-.464-1.852m-.926 10.648c.926-.926 1.39-1.852.926-2.777-.926 0-.926 1.85-.926 2.777zm.926-5.092c0 .464.463 0 .926 0v1.853h.463c.463 0 .463-.463.926-.926 0-.926-.462-2.315-1.388-2.778-.463.462-.463 1.388-.926 1.85m1.39-4.63c-.464.927-.464 1.853-.464 2.78.463 0 .463 0 .926-.464 0-.926.463-2.315-.463-2.315m.926 12.5c-.925.927-2.314 1.853-1.85 3.242h.925c.463-1.39 1.39-2.315.926-3.24m1.853 6.944c.463-.926-1.39-.926-1.39-2.315-.462-.462-.925-.925-1.388-.462.926.926 1.39 2.315 2.778 2.778m-3.24-1.852c0-.463-.464-.463-.927-.463v.464h.926m-2.315-11.11c-1.39 0-1.39 1.387-1.39 2.313 0 .463.464.463.927.463.926-.463.463-1.852.463-2.777m-.926 8.333c1.853-.926 1.39-3.24 2.78-4.167.925-.927-.464-.927-.927-.464-.926.463-.926 1.39-.926 2.315-.463.464-.926 1.853-.926 2.316-.462 0-.462-.463 0 0m-8.332 9.26c1.852-3.242 6.02-1.39 8.333-3.704.927 0 1.853 0 2.316-.463-1.852-.927-3.703.462-5.555.462-1.388 1.85-4.166 1.388-5.555 3.703h.463" class="st1"/>
    <path d="M114.352 195.81c.926.463 1.852 0 2.778-.463 4.166 0 7.87-.463 12.037-.463.463-.463 1.39-.463.926-1.852-.926-.463-1.39-1.39-2.778-.926 0 .926 1.39.463 1.39 1.39-.927.925-1.853-.927-3.242-.927v.925c-.463.463-.926 1.39-1.852.926-1.388-1.388-2.777.464-4.166.464-1.85-1.39 1.39-1.39 1.852-2.315h-.463c-1.852.462-3.24.925-5.092 1.85 0 0-.462-.462 0-.462 2.315-.926 4.167-3.24 7.408-2.778-.926-1.388-2.315-.926-3.24-.463-1.39 1.852-3.704.463-5.093 1.852-.463.925-1.39.925-2.315 1.388-1.39 1.39.926.463 1.852 1.852m16.204-5.556c0-.463-.463-.463-.463-.925 0-.927-1.852-1.853-.463-2.316 1.388.463.926 2.777 2.314 2.315l-.463-1.39c0-.926-1.387-.926-.462-1.852l.926.926c.463 0 0 .926.926.463v-.463c.463-1.39-3.24-1.852-1.39-3.704h-.462c-1.388.926-1.388-.926-2.777-1.852.464-.463.464 0 .927 0v-.463c0-.463-.926-1.39-1.852-1.39 0 .464.463 1.39-.463 1.39l-.463-1.852c-.464 0-.464.463-.927.463-.926-.926 1.39-1.852.926-2.778-.927 0-.927 1.39-1.853 1.39-.463.462-.926 1.388-.463 1.85 2.315.464 3.704 2.78 5.093 5.094.926 1.39-1.852 1.852-1.39 2.778 0-.463.464 0 .464 0l.927.926c-.926 0-.926 1.388-1.852 1.388.463.463 1.39.926 1.852.463v-.463c0-.463.926 0 1.39 0" class="st1"/>
    <path d="M128.704 185.625c-.463 0-.463.463-.463.926h.464c.463-.462 0-.925 0-.925m2.777 9.722l.927-2.315c0-.926-.926-.926-1.85-1.39l.924.927c.464.925-.462 1.85-.924 2.314 0 .463.462.926.925.463m6.946-2.315v-.463l-.463-.464c-.926-.463-1.852-2.314-3.24-1.852l1.388.926v.463c-.925 0-1.85-.463-2.314-1.39-.463 0-.926 0-1.39.464.464.926.927.463 1.853.926.925.463 2.314 1.39 4.166 1.39m-4.167-4.63c.462 0 .462-.463.462-.926s-.926-.926-.926-.463c-.463.463-.463 1.39.463 1.39m5.555 5.09h.926c-.462-2.314-2.777-3.702-4.63-5.09-.462 0-.925.462-.462.925 1.39.924 3.24 2.313 4.167 4.165m-.926-6.018c.462-.463.925-1.39.462-2.315-.926-.463-.463-1.852-1.852-1.39v2.316c.926.926.926 1.39 1.39 1.39m-1.853-.464c-.463-.463 0-.926-.926-.926-.462.463 0 .926 0 1.39l.927-.464m-.926-2.315c.464 0 .464-.927.464-1.39-.463-.463-1.39-1.852-2.315-1.39.925.927 1.85 1.39 1.85 2.78 0-.464 0 0 0 0m-.925 0v-.927c0-.463-.926-.463-.926 0 0 0 .462.926.925.926m-1.39 1.388c2.316-.926-1.85-1.852-.462-3.704-.463-.926-.926-1.852-1.852-1.852-.924 1.852.927 2.315 1.39 3.704-.463.926.926.926.926 1.852m-3.24-8.334c0-.926-.926-.926-1.852-.926.926 1.39 2.777 2.315 4.166 3.24.463-1.388-1.39-1.388-2.314-2.314m0 3.704c.925-.926-.463-1.852-.463-2.315-.926-.463-1.39-.926-2.315-1.39-.926 1.39 2.315 1.853 2.778 3.705m-2.778-22.685c.463-.926.926-1.852.463-2.778h-.462c-.926.926-.463 1.852 0 2.778zm0-5.556c.463 0 .463-.463.463-.926-.462-.462-.925-.462-1.388 0 .463.464 0 .927.926.927m-.926-2.778l.463.462c.463 0 .463-.463.463-.925-.463-.463-.926.462-.926.462m2.778-11.575v-.926c0 .925.926 1.388 1.388 1.85l.926-.925c-.926-.926-1.388-1.852-1.388-3.24-.463-.926-.926 0-1.39 0-.462.926 1.39 1.85.927 2.314 0 0-.463-.464-.926-.464 0 .463-.463.463-.463.463 0 .925.463 1.388.926.925m3.24.926c.463 0 .926.464 1.39-.462-.464-.463-.927-.926-1.39-.463 0 .463-.463.926 0 .926m3.24 3.705c0 .463.464.463.464.463s.463 0 0-.463h-.463m3.705 3.24c-1.39 0 0 .927-.463 1.39-.926.926.926.463.926 1.852.926-1.39-.463-2.315-.463-3.24m-1.39 3.702c-.462 0-.462.462-.462.462h.926v-.463s-.464.462-.464 0m0-5.556c0-.463-.463-.463-.926-.463v1.39h.463c.926 0 0-.463.463-.926m-.463-1.852h-.463v.463l.463-.463c-.463 0 0 0 0 0m-.926-.926c-.926 0-.463-1.39-1.852-1.39-.463 0 0-.925-.926-.462l.462.463c.926 0 .926 1.39 1.852 1.39.463.462.463.462.463 0m-1.852 2.777c.463-.926.463-1.852-.463-2.315-.926.462 0 1.388.463 2.314zm-6.944-14.815c-1.388.925.464 2.314.464 3.24.463.463 1.39 0 1.852.463-.926-.926-.926-2.778-2.315-3.704m4.63 2.314c-.463 1.39.926 1.39 1.39 2.315.462.462 0 1.388-.927 1.388-.463-.463-.926-.926-.926-1.39-.926.464-1.85 0-2.314 0 .463 1.39 1.388 2.778 2.777 2.778.926-.463 2.315-.463 2.778-1.388-.463-1.39-.926-3.704-2.778-3.704m-4.63-3.704c.464.463.464 0 .927 0 0-.463-.463-.463-.926 0zm.927-2.315c-.463 0-.463.463 0 .463h.463c0-.463 0-.463-.463-.463m1.39 4.167h-.927c.463.463.463 1.39 1.388 1.852.463 0 .926.463.926-.463 0 0-.926-.462-1.388-1.388m.925-4.167c-.462-.463-.462-.463-.924-.463-.463.463 0 .926.462.926.463 0 .926 0 .463-.463m1.39 0v.926c.463.464.926 1.39 1.852 1.39v-.463c-.463-.926-.926-1.852-1.852-1.852m-1.852-7.87v.926c.926.464.926-.462 1.39-.925l.462 2.315h.926c.463-.463.463-.926.463-1.39l-.927-1.85c-.926.462-1.852.925-2.315.925m4.167 8.333c-.463-.463-.926-1.39-1.852-1.39v.927c.926 0 1.39.926 1.852.463m1.852-5.555c-.463-.463-1.852-1.852-1.39-.463.464.463 0 .926 0 1.852.464-.463 1.853-.463 1.39-1.39m-.463-7.407c0 .463 0 .926.463.463 0 0 .463 0 .463-.463h-.926m.463 2.778c0-.463-.463 0-.463-.463 0 .926.463.926.463.463m0 .926c-.463 0-1.39-.927-1.39 0 0 .462.464.925.927.925s.926.463 1.39 0c0-.463-.464 0-.927-.926m-2.778 1.85c0 .927 0 1.853-.464 2.78 0 0 0 .462.463.462.925-.463 1.388-.926 1.388-1.852-.463-.926-.463-1.39-1.39-1.39m0-4.63c.464.464.464-.462.464-.462-.463-.926-.926-1.39-1.852-1.39v.464c.463.463.463 1.39 1.39 1.39m-3.242-3.242v.926c.926.926 1.39 2.315 1.852 3.704.463.463.463.926.926.926.926-.926-.463-1.39-.463-1.852-.926-1.39-.926-3.24-2.315-3.704m-.462 1.852c0 .926.462 2.315 1.388 3.24.463 0 .463-.462.463-.925-.926-.463-.926-1.852-1.85-2.315m-.927 1.39c-.926.462.463.925 0 1.85.463 0 .463.927.926.464.462-.463 0-.926 0-1.39-.463-.462-.463-.925-.926-.925m-1.39-6.943c-.462 0 0 .463 0 .926.464.926.927 1.85 1.39 3.24 0 .463.463.463.926.463.462-1.39-1.39-2.314-.926-3.703-.463 0 0-.463 0-.463-.926-.463-.926-.463-1.39-.463m-.925 2.315c.463.462 0 1.85.926 1.85v-.462c-.462-.463.464-1.85-.925-1.388" class="st1"/>
    <path d="M127.315 118.495c.463 0 0 .926.463.926.463 1.39 1.39 1.853 2.778 2.316.925 0 1.85 1.852 2.777.926v-.926c-.463-.463-.926-.463-1.852-.463-.462-.463-.924-.926-.462-1.39.926-1.85-1.85-2.314-1.388-4.63-.463-.462 0-1.85-1.39-1.85-1.388 1.85-.925 3.703-.925 5.092m-.463 1.39c-.926.462 0 1.388 0 1.85.926.464 0 2.315 1.852 1.853 0 .462.463.925.463 1.388h.463c.463-1.388-.463-1.85-.926-2.777-1.39 0-.463-1.39-1.852-2.316m3.24-23.61c1.39 0 1.39 1.85 2.778.925 0-1.39-1.852-1.853-3.24-2.316 0 0 0 .926.463 1.39m-1.39.462c1.39.463 1.39 1.85 2.315 2.777h1.39c.462-.463 0-.926-.464-1.39-.926-.462-1.85-.925-2.314-1.85-.463 0-1.39 0-.926.463m-2.778-6.482c0 .463.463.926.463 1.39.462.462.925 0 .925-.464.926-.926-.463-1.852-1.39-.926m-2.314-3.704c.927.463.464-.926 1.39-1.39.463.927 0 2.316.463 2.78 1.39-.927-.463-1.853 0-3.242-1.39.463 0-1.388-.926-1.388-1.39.925-.926 2.314-.926 3.24m0 3.24l.927-.925c0-.463 0-.926-.463-1.39 0 .927-.926 1.853-.463 2.316" class="st1"/>
    <path d="M127.778 93.958c-.463-.463-.463-.463-.926-.463-.926-.926-1.852-1.852-1.39-3.704L125 89.33c-1.39.463.463 1.852-.463 2.778v-.463h-.463v.926c-.463.925 0 1.85 0 2.777-.463.463-1.39.463-1.39.463l.464-1.39c-1.39-.925-.463 1.39-1.39 1.853l.927.463c.926.463-.463 1.388 0 1.85 1.39 1.39 0 2.78.926 4.168.464 0 .927 0 .927-.463 0-.462.463-1.388-.463-1.85-.926-.927-.463-1.853 0-2.78 0 .464.463.464.463.464.463-.925.463-2.314.926-3.24h.463c.463.463 0 .926.926.926.926-.463.463-1.852.463-2.315h.926c0 .926 0 .463-.462.463m-2.315-27.315c-.463 0-.463.463-.463.463.463 0 .926.463.926 0l-.463-.463m-1.852.463c.464 1.852 0 3.703 1.39 5.092.463 0 .926.463 1.39 0-.927-.926-1.39-2.777-1.39-3.703-.926-.926-.463-2.778-2.315-2.778-.463.463.926.463.926 1.39m0-11.575c0 .926-1.388 1.852-.462 2.777.463-.464 1.39-1.39 1.39-2.315.462-.463-.464-.926-.927-.463m-.462 5.092c0 .463 0 .926.463.926h.927c.463-.926-.463-1.852-1.39-.926M125 57.846c0 .926-.463 2.315.463 2.778.463 0 .926.463 1.39 0-.927-.926-.927-2.315-1.853-2.778m1.39.463v-.464c-.464 0-.464-.925-.927-.462v.925h.926m2.314 1.388c-.463-.926 0-2.314-1.39-2.777-.462 0-.462.926-.462 1.39.926 0 .463 1.388 1.852 1.388M125 54.606c.463.463 0 1.39.926 1.852 0-.463.926-.463.926-.926-.463-.926-1.39-2.315-1.852-.926m-.463-1.39c1.852 0 0-.925.463-1.85-1.852-1.39 0 1.388-1.39 1.85 0 .464 0 .464.464.927.926 0 0-.463.463-.926m-3.704 6.48c-.463.927.463 2.316-.463 2.78h.463c.463-.464 1.39-.927.926-1.39.462-.926 0-1.852.462-2.778 0-1.39.926-2.315.926-3.24-1.39 0-1.39 1.388-1.852 2.314v.462l-.463 1.852c-.463-.463-.926-.926-1.39-.463-.462.463.464.463.464.926.463 0 .463 0 .926-.462m-11.11 15.74c-.927 0-1.39.927-1.853 1.39.926 0 1.39-.463 1.852-1.39m-.463 1.853c0 .464.462.464.925.464l.926-.926-.462-.463c-.926.463-1.39.463-1.39.926m3.242-2.314c.926-.926 1.39 0 1.852 0 .463-.463.926-.926.926-1.39-.463-.925-1.39-.462-1.852-.462-.926.463-2.315.926-2.778 1.39.463.925 1.39.462 1.852.462m3.24-2.315c1.853.927 1.853-2.776 3.704-1.388.463-.463.926-.463.926-1.388-.463-.463-.926-.463-1.39-.463-.925.927-3.24 1.39-3.24 3.24M117.13 74.976c.463.463.925 0 .925-.463 0-.926.463-1.852.926-2.315-.925 0-.925.463-1.387.463 0 .927-1.39 1.39-.463 2.316m.925.463c-.462 0-.462.462-.462.925h.462c.463 0 .463-.463.463-.463 0-.463 0-.463-.463-.463m1.39 2.777c.925 0 .925-.926.925-1.39-.926-.925-1.39.464-1.852 1.39h.926zm1.85-8.796c-.925.927-.462 2.778-2.314 3.704 0 .926 0 2.315.927 2.315 1.39-.464 0-1.39 0-2.316 1.39-.463.463-1.852 1.852-2.315 0-.463.925-1.852-.464-1.39m1.39 5.556s.462 0 0 0c0-1.852 1.388-1.852 1.388-3.24 0-.464-.463-.464-.463-1.39-.462 0-.462-.462-.925 0 0 .926 0 2.315-.926 3.24 0 .464.462.927.925 1.39m.463 2.315c-.926.464-.926 1.39-.926 2.316-.463 1.39-.463 3.24-1.39 4.63h.464c1.39-1.39.926-2.315 1.852-3.704-.463-1.39.463-2.315 0-3.24m-1.39 8.795c.464-.463 1.39-.926.927-1.39-.926-.462-1.39.464-.926 1.39m-2.78 0l-.462.463c.463 0 .463 0 .463-.463m-4.165 1.852c-.463 0-.463.462-.926.462 0 .463.462.463.925.463s.926-.463.463-.926h-.463m-3.704 4.166h.927v-.463c-.463 0-.926 0-.926.463m-.925 1.852c0-.463-.926-.463-1.39-.463-.462.463-.925.926-.462 1.852.926.463.926-.926 1.852-1.39m0 .927c0 1.39-1.852 1.852-2.315 2.777l.463.464c.463 0 .926-.463 1.852-.463.463-.46-.463-.924 0-1.387.463 0 .926 0 .926-.463.927-.463 0-2.315-.925-.926m3.24-1.852c-1.85 0-.462 1.852-1.388 2.778 0 0 .463.463.926.463.926-.463 1.852-.926 1.852-2.315-.463-.463-1.39-.463-1.39-.926m1.39 2.315c.926.463.926-.926 1.39-1.39h-.464c0 .464-1.388.464-.925 1.39m5.555-4.167c1.852 0 0-1.852 1.39-2.315.462.926 0 1.39.462 2.315h.463c-.463-2.315 1.39-3.704.463-5.556-.463.463-.926 1.39-.926 1.852v.463c0 .462 0 .462-.463.462.462-.926-.927-.926-.927-2.315-.463 0-.463 0-.926.463-.926.463.463.926.463 1.39 0 .462.463 1.85-.463 2.777 0 0 .463 0 .463.463" class="st1"/>
    <path d="M114.815 91.643c0 .463-.926.926-.463 1.39 2.315 0 1.39-2.316 2.778-3.242.463.927-.463 1.853-.463 2.78h.463c.463 0 .925-.464.925-1.39.463.463 0 .926.463.926.926 0 1.39-.926 1.39-1.39V89.33c-.464 0-.927 0-.927.463-.462-.462.464-.925 0-1.388-.462-.463-.925.463-1.387.463-.926-.463.462-.926 0-1.39h-.463c-.463 0-.463.464-.926.464 0 .462-.926 1.388-.463 1.85.464.927-.462 1.39-.925 1.853m4.63 8.796c.462-.464.462-1.853.462-2.78-.463.464-.463 1.39-.926 1.853 0 .463-.462 1.39.464.926m0-4.167h.926c.463-.926.926-1.39 1.852-2.778-1.39.463-2.778 1.852-2.778 2.778m1.39 2.314l-.927.463c0 .463 0 .463.463.463h.463c.463-.463.463-.926 0-.926m0 18.056c.463 0 .463-.463.463-.926s0-1.39-.926-.463c0 .463-.463 1.39.463 1.39m-.463 6.018c.926-.463.926-1.852 1.39-2.778 0-.926.462-1.39.925-2.315v-1.39c-2.315-.463-.463 2.315-1.852 3.24 0 .464 0 1.853-.463 2.316 0 0-.463.926 0 .926m-.926-11.575c-.463 0-.463.926-.463.926h.927c0-.463 0-.926-.463-.926m.463 17.13c.463 0 .463-.463.463-.926-.463-.925-.463-1.85-.463-3.24-.463-.462-.463 0-.926.463 0 .926-.462 1.39-.462 2.315.463.926.463 1.39 1.39 1.39m-1.853 5.092c0 .463.463 0 0 0m0-7.408c.926-.463.926-1.852.926-2.777-.925.463-1.85 1.85-.925 2.777m.926 6.482c1.39 0 .464-1.39.927-1.852.463-.926-.926-.926-.926-.463-.462.925-.462 1.85 0 2.314m1.853.463c-.926.926-.463 2.778-.463 3.704-.463.463-.463 1.39-.463 2.315.463 0 .463.463.926.463.926-1.852 0-4.166.926-6.018-.464-.463-.927-.463-.927-.463m0 16.204h-.463c-.463.927-.463 2.315-.463 3.24.463-.925.926-2.313.926-3.24m0 7.87c0-.462-.463-.462-.926-.462-.463.463-.463.926-.463.926h.463c.463.463.463 0 .926-.463m-1.39 7.408c.927.463.927 0 .927-.463-.463-.463-1.39.463-.926.463m.463 8.797c-.463-.463.463-1.39-.463-1.39-.463.927-.926 1.853-.463 3.242.464 0 .464-1.39.927-1.852m-2.777 5.555c.463 0 .925-.463.463-.926 0 .463-.463.463-.463.926-.463 0 0 .463 0 0m-8.334 7.87c.463 0 .926-.925.926-1.388-.463 0-.926.926-.926 1.39m-12.963 2.777c1.39 0 3.24-.464 4.63.462 1.852 0 4.166-.926 5.092-2.778.463 0 1.39-.463 1.39-.926-.464 0-1.39 0-1.39.463-1.388.464-2.314 1.39-3.703 2.316-.463 0-1.39.463-1.39 0 .464-.463 1.39-.463 1.853-.926-.926 0-1.852.463-3.24.463-.927.926-2.316 0-3.242.926" class="st1"/>
    <path d="M93.98 193.495c1.853-1.852 4.63-1.852 6.946-1.39 1.852 1.39 2.778-1.85 4.63-1.85 1.388-1.39 3.24-1.852 5.555-1.852 1.39-.463 2.316-2.315 2.316-3.24.463-.927.926-2.78 2.315-2.78 1.39.464 1.853-.925 2.778 0 .463-.462 1.39-.925.463-1.85-.925.462-2.313 0-3.24.925-2.314 0-1.85 2.315-3.24 3.24.926.464-.463 1.39-.463 2.316-.926.463-1.852.926-2.315 1.852-.926-.463-1.852 0-2.778.463-1.39 0-2.777 1.387-3.24 2.313-1.39-.463-1.852.926-3.24.463-.927-1.39-2.78-.463-4.168-.463-.926 2.315-3.24.926-4.63 1.852-.462 0 1.39-.463 2.315 0" class="st1"/>
    <path d="M115.278 179.606c-.926-.463-.926.463-1.852.463-2.778.925-1.852 3.24-3.24 5.092.925.463.925-.926 1.388-1.39l.463-1.85c.926-1.39 2.315-1.39 3.24-2.316M91.205 191.18c.925-.463 2.314.463 3.24-.463 0 0-.463-.463-.926 0-1.39.463-3.24-.463-3.24.926.463-.463.926-.463.926-.463m-5.093 2.315c.927 0 2.316.926 3.242.463v-.463c-.926 0-2.315-.463-3.24 0m3.703-.926c-.463-.927-1.39-.464-2.315-.927-.463-.463-1.852-.463-1.852.463.926.926 2.778.926 4.167 1.39v-.927m.926 1.388c0 .463-.462.926-.462 1.852.463.463.926.463 1.85.463.464-.463 1.39-.926 1.39-1.852-1.39-.462-2.314-.925-2.777-.462m15.74 5.093c2.316-.462 4.63-1.85 6.946-2.777-1.39-.926-2.778-.926-4.167-1.852-2.316-.462-5.093-.925-7.408-1.388-2.315-.463-5.093-.463-7.408.926.926.463 1.852.463 3.24.463 2.316-1.85 4.63 0 6.945.464 1.388 0 2.777 0 4.63.463.462.463 1.85.463 1.85.926-.925.926-1.388-.463-2.314-.463-3.24.463-5.555-1.39-8.796-1.39-1.39.927-3.24.927-4.63.464-.926-.463-1.852.463-2.315.926 0 .926 1.852 1.39 2.778 1.852.926-.463 1.39-1.39 2.315-1.852 1.852.463 3.704-.463 5.556.463 1.388 0 3.24.463 4.63.463.462 0 .462.463.462.463-1.39.925-2.778-.464-4.63 0-1.85-1.39-3.703.925-5.092-.464-.926 0-1.39.926-1.852 1.39 1.39.462 2.778 1.85 4.63.462.926 0 3.24-.463 4.63.463" class="st1"/>
    <path d="M101.852 199.977c1.39.463 2.315 0 2.777-.463-.926-.463-2.315-.463-2.778.463m15.74.463c-1.388 0-2.314 1.852-3.24 1.852.926.463 2.315.463 3.703.463.463-.926 1.852-.463 2.778-.926.926 0 2.315 1.85 2.778 0-2.314.925-3.703-1.853-6.017-1.39m14.35 1.852c-2.776 1.388-5.554-1.39-7.87.925 2.316.463 5.094 0 7.408 0 .464-.462.927 0 .464-.925z" class="st1"/>
    <path d="M132.87 200.903c-3.24-.463-7.87-.463-10.648 0l.463.463c3.24-.926 5.556 1.85 8.796.463 1.853-1.39 2.78 1.85 4.63.925v-.926c-1.388-.464-1.85-1.39-3.24-.927m4.167 1.39c.463 0 .463 0 .463-.464l-.463.462z" class="st1"/>
    <path d="M136.11 199.05c-2.314-.925-4.63-.925-6.943-.925-1.39.463-2.778 0-4.63.463-2.315-.463-4.63 0-7.407.463-1.852-.925-3.24.927-5.093 1.39-.926.463-2.315 0-3.24 1.39 2.314.925 5.092 0 7.407-1.853 4.166.463 8.333-.463 12.963-.463 1.85-.926 4.166 0 6.018.463 2.315-.463 2.778 3.24 5.093 1.852-.926-1.853-2.778-2.78-4.167-2.78m5.094 2.78h.463l-.463-.464v.463" class="st1"/>
    <path d="M142.13 198.588c-1.39 0-3.24-.926-4.63-.926-1.852-.926-4.167-.926-6.02-.926l-1.85-.463c-2.778 0-6.482-.926-8.797.463-1.852-1.39-3.703.463-5.555 0-1.852.926-3.704 1.852-6.02 2.315-.925 1.39-2.777.464-3.703 1.39 2.315 1.852 4.167-.926 6.482-1.39 2.315-2.314 6.018-.462 8.333-2.314 4.167.463 8.334-1.39 12.037 0 3.24.926 7.408.463 9.723 2.778.926.463 2.314 1.39 3.24.926-.926-.926-2.314-1.39-3.24-1.852" class="st1"/>
    <path d="M136.11 195.347l-.462-.463c-.926 0-1.852-.463-2.778 0 .926 1.852 2.778.463 4.167.926 1.852.926 3.704 1.39 5.556 1.852 1.85.463 2.314 2.778 4.166 2.315 0-.926-.464-1.39-.464-1.852-3.24-1.39-6.48-2.315-10.185-2.778m11.575 3.704c0 .464.926.927.926.464 0 0-.462-.926-.925-.463" class="st1"/>
    <path d="M161.11 193.495c-1.85-1.852-5.09-1.39-7.406-2.315l-1.852-.926c-1.39-.462 0 1.39-1.39.926 0 .463-.925.926-.462 1.39.926.462 1.852 0 2.315.462-.926 1.39-3.24-.463-4.63.463-.926 1.39-2.778-.463-3.24.926.462.927 1.85.927 1.85 1.853-1.85-.926-4.165-1.852-6.48-1.852-.926-.462-1.852 0-2.315-.462-1.39 0-3.24-.926-4.63-.463l.463.463c4.167.463 8.334 1.39 12.037 2.778.926 1.39 3.24 0 4.167 1.852.926.463 1.39.463 1.852 0-.464-1.852-2.78-.926-3.705-1.852-.463-.926.926-.463 1.39-.926 1.388 0 2.777.463 3.703.926.926 0 2.315.926 3.24 0-1.85-.926-3.703-.926-5.555-1.39-.926-1.388-1.852.464-2.778-.462-.463-.463 0-.926.463-.926 1.39-.463 2.778-.463 3.704.463.926 0 1.852.464 3.24.927 1.39 0 2.778 1.39 4.167.463-.464-.926-1.39-.926-2.315-1.39-.463-.462-1.39-.462-1.39-.925.927-.926 1.39.463 2.315.463.926.463 2.315 1.852 3.704 1.39-1.39-1.39-4.167-2.316-6.48-2.78-.464-.462-2.316 0-2.316-.925l.463-.463c2.78.463 6.02.463 7.87 2.315.927 0 1.853 1.852 2.78.463-1.39-.463-2.316-.463-2.78-.463" class="st1"/>
  </g>
</svg>
